<?xml version="1.0" standalone="no"?>
<!DOCTYPE svg PUBLIC "-//W3C//DTD SVG 1.1//EN" "http://www.w3.org/Graphics/SVG/1.1/DTD/svg11.dtd" >
<svg>
<metadata>
Created by FontForge 20090914 at Tue Sep 25 13:42:01 2018
 By www-data
Copyright (c) 2011 by typedepot. All rights reserved.
</metadata>
<defs>
<font id="CentraleSansMedium" horiz-adv-x="1449" >
  <font-face 
    font-family="CentraleSansMedium"
    font-weight="500"
    font-stretch="normal"
    units-per-em="2048"
    panose-1="0 0 0 0 0 0 0 0 0 0"
    ascent="1536"
    descent="-512"
    x-height="1065"
    cap-height="1434"
    bbox="-385 -414.003 2791 1929"
    underline-thickness="102"
    underline-position="-102"
    unicode-range="U+000D-U+FB04"
  />
<missing-glyph horiz-adv-x="1318" 
d="M1028 1192l-297 -567l297 -566v1133zM291 1192v-1133l297 566zM981 1372h-641l319 -612zM981 -123l-322 612l-319 -612h641zM1153 1499v-1747h-983v1747h983z" />
    <glyph glyph-name="f_f" unicode="ff" horiz-adv-x="1337" 
d="M1104 1516c56 0 127.003 -7.66797 213.003 -23.001l-21 -154c-54.667 10.667 -102.334 16.334 -143.001 17.001c-105.333 0 -158 -58.667 -158 -176v-115h293v-152h-293v-913h-211v913h-372v-913h-211v913h-162v152h162v106c0 116 23.333 202.667 70 260
c47.333 56.667 129.666 85 246.999 85c54.667 0 104.667 -7 150 -21l-23 -149c-54.667 6.66699 -85.334 10 -92.001 10c-50.667 0 -87 -13.667 -109 -41s-32.667 -69.666 -32 -126.999v-123h372v106c0 115.333 24 201.666 72 258.999s130.667 86 248 86z" />
    <glyph glyph-name="f_i" unicode="fi" horiz-adv-x="1200" 
d="M625 1516c116 0 229.334 -30.332 340.001 -90.999l-60 -125c-88.667 42.667 -172.334 64 -251.001 64s-136.667 -22.667 -174 -68s-56 -98.333 -56 -159v-72h620v-1065h-210v913h-410v-913h-211v913h-162v152h162v88c4 111.333 44.667 199.666 122 264.999s174 98 290 98
z" />
    <glyph glyph-name="f_l" unicode="fl" horiz-adv-x="1271" 
d="M1038 -16c-69.333 0 -121.331 17.001 -155.998 51.001s-52.334 92.667 -53.001 176v915c0 76.667 -20.667 134 -62 172c-40.667 38.667 -90.334 58 -149.001 58s-107.667 -18.667 -147 -56s-59 -93 -59 -167v-68h225v-152h-225v-913h-211v913h-162v152h162v59
c0 118.667 37.667 213.667 113 285c76 71.333 176 107 300 107s226 -32.667 306 -98s120 -162 120 -290v-899c0 -32.667 6.66699 -54.334 20 -65.001s36.333 -16 69 -16c32 0 59 1.33301 81 4l7 -154c-50 -9.33301 -109.667 -14 -179 -14z" />
    <glyph glyph-name="f_f_i" unicode="ffi" horiz-adv-x="1748" 
d="M784 1149c0 120.667 37.002 214.332 111.002 280.999s171 100 291 100s232.667 -28 338 -84l-56 -133c-78 36.667 -159.667 55 -245 55c-84.667 0 -143.667 -20.667 -177 -62s-50.333 -92.333 -51 -153v-88h598v-1065h-211v913h-387v-913h-211v913h-372v-913h-211v913
h-162v152h162v106c0 116 23.667 202.667 71 260c48 56.667 130.667 85 248 85c49.333 0 98.666 -6.33301 147.999 -19l-21 -154c-36.667 7.33301 -74.334 11 -113.001 11s-68.667 -13.667 -90 -41c-22 -27.333 -32.667 -69.666 -32 -126.999v-121h372v84z" />
    <glyph glyph-name="f_f_l" unicode="ffl" horiz-adv-x="1853" 
d="M1618 -16c-69.333 0 -120.998 16.9971 -154.998 50.9971c-34.667 34 -52 92.667 -52 176v928c0 78 -20 135.667 -60 173c-40.667 37.333 -90.334 56 -149.001 56s-107.334 -19 -146.001 -57s-58.334 -95.333 -59.001 -172v-74h224v-152h-224v-913h-211v913h-374v-913
h-211v913h-162v152h162v106c0 116 23.333 202.667 70 260c47.333 56.667 129 85 245 85c50.667 0 100.667 -6.33301 150 -19l-21 -151c-54.667 6.66699 -86 10 -94 10c-49.333 0 -85 -13.667 -107 -41s-32.667 -69.666 -32 -126.999v-123h374v74
c0 118.667 38 213.334 114 284.001c76 71.333 175.667 107 299 107s224.666 -32.667 303.999 -98s119 -162.333 119 -291v-912c0 -31.333 7.33301 -52.666 22 -63.999s37.334 -17 68.001 -17s57.334 1.33301 80.001 4l6 -154c-50.667 -9.33301 -110.667 -14 -180 -14z" />
    <glyph glyph-name=".notdef" horiz-adv-x="1318" 
d="M1028 1192l-297 -567l297 -566v1133zM291 1192v-1133l297 566zM981 1372h-641l319 -612zM981 -123l-322 612l-319 -612h641zM1153 1499v-1747h-983v1747h983z" />
    <glyph glyph-name=".null" horiz-adv-x="516" 
 />
    <glyph glyph-name=".null" horiz-adv-x="516" 
 />
    <glyph glyph-name="CR" unicode="&#xd;" horiz-adv-x="606" 
 />
    <glyph glyph-name="space" unicode=" " horiz-adv-x="542" 
 />
    <glyph glyph-name="exclam" unicode="!" horiz-adv-x="589" 
d="M292 203c81.333 0 122 -37.333 122 -112c0 -74 -40.667 -111 -122 -111s-122 37.333 -122 112s40.667 111.667 122 111zM416 1438l-33 -1024h-174l-33 1024h240z" />
    <glyph glyph-name="quotedbl" unicode="&#x22;" horiz-adv-x="913" 
d="M389 1434l-104 -560h-123l12 560h215zM768 1434l-104 -560h-123l12 560h215z" />
    <glyph glyph-name="numbersign" unicode="#" horiz-adv-x="1607" 
d="M651 915l-73 -411h393l73 411h-393zM1413 504l-33 -178h-260l-57 -326h-180l57 326h-393l-58 -326h-188l59 326h-260l35 178h256l76 411h-262l31 179h264l61 342h182l-61 -342h393l62 342h180l-62 -342h261l-33 -179h-258l-74 -411h262z" />
    <glyph glyph-name="dollar" unicode="$" horiz-adv-x="1200" 
d="M668 1630l-0.00390625 -174.001c132.667 -8 264.334 -41.333 395.001 -100l-64 -170c-131.333 62.667 -249.666 94 -354.999 94c-200 0 -300 -69 -300 -207c0 -89.333 47 -155.666 141 -198.999c34 -16 63.667 -27.333 89 -34l82 -22l55 -15
c131.333 -36.667 231.666 -85 300.999 -145s104 -150.333 104 -271s-40 -215.667 -120 -285s-189.333 -111 -328 -125v-178h-121v181c-161.333 13.333 -304.666 48 -429.999 104l57 170c46.667 -22 109.334 -44.333 188.001 -67c78.667 -22 160.667 -33 246 -33
c86 0 153 18.333 201 55s72 88.667 72 156c-0.666992 40 -7 68.667 -19 86l-29 41c-7.33301 10.667 -20 20.667 -38 30s-32 17.333 -42 24s-27.667 13.667 -53 21c-25.333 8.66699 -43 15 -53 19c-10.667 4 -45.667 14.333 -105 31c-218 61.333 -351.333 146.333 -400 255
c-21.333 48 -31.666 104.667 -30.999 170c0 122.667 37.667 219.667 113 291c76 70.667 183.667 111.667 323 123v174h121z" />
    <glyph glyph-name="percent" unicode="%" horiz-adv-x="1683" 
d="M938 322c0 104 30.667 188 92 252s141.333 96 240 96s177.667 -31.333 237 -94c60 -62.667 90 -146.667 90 -252c0 -104 -30 -187.333 -90 -250s-139.333 -94 -238 -94s-178.667 31 -240 93c-60.667 62 -91 145 -91 249zM1268 532c-49.333 0 -89.668 -19 -121.001 -57
s-47 -89 -47 -153s16 -114.667 48 -152s72.333 -55.666 121 -54.999c48.667 0 88.667 18.333 120 55c31.333 36 47 86.667 47 152s-15.667 116.666 -47 153.999s-71.666 56 -120.999 56zM417.998 1456c98.667 0 178.333 -31 239 -93s91 -145.667 91 -251
s-30.667 -189.333 -92 -252s-141 -94 -239 -94c-98.667 0 -178.334 31 -239.001 93c-60 62 -90 145.667 -90 251s30.333 189.333 91 252s140.334 94 239.001 94zM583.997 1110c0 65.333 -15.333 116.667 -46 154s-71 55.666 -121 54.999c-50 0 -90.667 -19 -122 -57
c-31.333 -37.333 -47 -88 -47 -152s16 -114.667 48 -152s72.333 -55.666 121 -54.999c48.667 0 88.667 18.333 120 55c31.333 36 47 86.667 47 152zM1333 1436l-821 -1436h-172l825 1436h168z" />
    <glyph glyph-name="ampersand" unicode="&#x26;" horiz-adv-x="1382" 
d="M412 1132c0 -42.667 9.33203 -79.6689 27.999 -111.002c18.667 -30.667 54.334 -76 107.001 -136c64 40.667 112.667 80.334 146 119.001s50 82.334 50 131.001c0 50 -15.667 88.333 -47 115c-32 26.667 -71.333 40 -118 40s-86 -15.667 -118 -47s-48 -68.333 -48 -111z
M294.999 383.998c-0.666992 -68 25.668 -122.999 79.001 -164.999s124.666 -63 213.999 -63s178 36.667 266 110l-356 414c-64 -40.667 -114 -83.334 -150 -128.001c-36 -44 -53.667 -100 -53 -168zM577.001 1454c97.333 0 179.334 -27.667 246.001 -83
c67.333 -55.333 101 -128.333 101 -219s-24.333 -163.667 -73 -219s-116.667 -109.666 -204 -162.999l324 -377c60 82 112.333 173.667 157 275l152 -76c-58.667 -132.667 -123 -243.334 -193 -332.001l226 -260h-230l-116 135
c-121.333 -104 -258.666 -155.667 -411.999 -155c-130 0 -238 33 -324 99s-129 162 -129 288c0 95.333 25.667 175.333 77 240s124 127.334 218 188.001c-58.667 68 -101.334 125.333 -128.001 172s-40 101 -40 163c0 101.333 33.667 180.666 101 237.999
s149.666 86 246.999 86z" />
    <glyph glyph-name="quotesingle" unicode="'" horiz-adv-x="540" 
d="M389 1434l-104 -560h-123l12 560h215z" />
    <glyph glyph-name="parenleft" unicode="(" horiz-adv-x="706" 
d="M313 545c0 -374 121.667 -692.333 365 -955h-225c-92.667 91.333 -175 218.333 -247 381s-108 354 -108 574c0 219.333 36 410.333 108 573s154.333 289.667 247 381h225c-243.333 -262 -365 -580 -365 -954z" />
    <glyph glyph-name="parenright" unicode=")" horiz-adv-x="706" 
d="M254 -410h-225c243.333 261.333 365 579.333 365 954s-121.667 693 -365 955h225c92.667 -91.333 175 -218.333 247 -381c71.333 -162.667 107 -354 107 -574s-36 -411 -108 -573c-72 -162.667 -154 -289.667 -246 -381z" />
    <glyph glyph-name="asterisk" unicode="*" horiz-adv-x="903" 
d="M518 1538l-22 -254l209 150l67 -117l-233 -107l235 -106l-69 -121l-209 152l22 -254h-133l27 254l-211 -152l-70 121l234 106l-232 107l68 117l211 -150l-27 254h133z" />
    <glyph glyph-name="plus" unicode="+" horiz-adv-x="1157" 
d="M653 1155v-391h387v-158h-387v-377h-159v377h-377v158h377v391h159z" />
    <glyph glyph-name="comma" unicode="," horiz-adv-x="536" 
d="M143 81c0 32.667 10.666 59.002 31.999 79.002s51.333 30 90 30c38 0 71 -16.333 99 -49s42 -77 42 -133c0 -125.333 -71 -222.333 -213 -291l-43 70c100 53.333 149.667 121.666 149 204.999c0 5.33301 -1.33301 14.666 -4 27.999c-8 -26.667 -26.667 -40 -56 -40
s-52.666 8.66699 -69.999 26s-26 42.333 -26 75z" />
    <glyph glyph-name="hyphen" unicode="-" horiz-adv-x="1036" 
d="M891 627v-160h-746v160h746z" />
    <glyph glyph-name="period" unicode="." horiz-adv-x="507" 
d="M253 201c34.667 0 63 -10 85 -30s33 -47.667 33 -83s-11 -62.666 -33 -81.999s-50.667 -29 -86 -29s-63.333 9.66699 -84 29s-31 46.666 -31 81.999s10.667 63 32 83s49.333 30 84 30z" />
    <glyph glyph-name="slash" unicode="/" horiz-adv-x="974" 
d="M938 1501l-811 -1849h-174l809 1849h176z" />
    <glyph glyph-name="zero" unicode="0" horiz-adv-x="1431" 
d="M718 160c119.333 0 210 47.668 272 143.001s93 232.333 93 411s-31.667 316.667 -95 414s-154 146 -272 146c-117.333 0 -208 -48 -272 -144s-96 -233.667 -96 -413c0 -178.667 31.667 -316.334 95 -413.001c64 -96 155.667 -144 275 -144zM1315 718.001
c0 -225.333 -53.999 -404.667 -161.999 -538s-253.667 -200 -437 -200s-329 66 -437 198s-162 311 -162 537s54.333 405.667 163 539s254.667 200 438 200s328.666 -66.333 435.999 -199s161 -311.667 161 -537z" />
    <glyph glyph-name="one" unicode="1" horiz-adv-x="796" 
d="M598 1436v-1436h-215v1217l-256 -130l-76 156l381 193h166z" />
    <glyph glyph-name="two" unicode="2" horiz-adv-x="1173" 
d="M562 1454c158.667 0 283.332 -39.001 373.999 -117.001c91.333 -78 137 -185.667 137 -323c0 -101.333 -26.333 -190.666 -79 -267.999s-137 -165.666 -253 -264.999l-340 -297h670v-184h-962v168l503 446c79.333 70.667 138 134.667 176 192
c38.667 57.333 58 125.333 58 204c0 77.333 -26.333 140.666 -79 189.999s-133.667 74 -243 74s-226.666 -35.667 -351.999 -107l-70 160c148 84.667 301.333 127 460 127z" />
    <glyph glyph-name="three" unicode="3" horiz-adv-x="1202" 
d="M831 1055c-0.666992 143.333 -108.335 215.002 -323.002 215.002c-98.667 0 -203.667 -24.667 -315 -74l-56 162c46.667 21.333 110.667 42.666 192 63.999s164.333 32 249 32c139.333 0 253 -32.333 341 -97s132 -155.334 132 -272.001
c0.666992 -75.333 -19.666 -142.333 -60.999 -201s-103.666 -102 -186.999 -130c88.667 -19.333 161.334 -61.666 218.001 -126.999s85 -146 85 -242c0 -130 -52.333 -230 -157 -300s-241 -105 -409 -105s-315.333 34.667 -442 104l66 162c117.333 -57.333 232 -86 344 -86
s202 21 270 63s102 107 102 195s-36 154 -108 198c-72.667 44 -158 66 -256 66h-133v160h133c87.333 0 161.666 16.667 222.999 50s92 87.666 92 162.999z" />
    <glyph glyph-name="four" unicode="4" horiz-adv-x="1255" 
d="M803 494v649l-518 -649h518zM1020 1436v-942h166v-166h-166v-328h-215v328h-733v159l749 949h199z" />
    <glyph glyph-name="five" unicode="5" horiz-adv-x="1206" 
d="M1044 1434l-0.000976562 -179.001h-671l-25 -424c77.333 49.333 184 74 320 74s245.667 -41 329 -123c83.333 -81.333 125 -191.333 125 -330s-48.333 -252 -145 -340s-231.667 -132 -405 -132s-332.666 39.333 -477.999 118l74 164c130 -70.667 251 -106 363 -106
s200 25.333 264 76s96 123.334 96 218.001c0 93.333 -26 166 -78 218s-126 78 -222 78s-192 -33.667 -288 -101l-139 88l47 701h833z" />
    <glyph glyph-name="six" unicode="6" horiz-adv-x="1341" 
d="M694 750c-98.667 0 -177.667 -30 -237 -90c-58.667 -60 -88 -133.333 -88 -220c0 -86 29.667 -156 89 -210c59.333 -53.333 137.333 -80 234 -80s174 27 232 81c57.333 54 86 127.667 86 221s-28 166.333 -84 219s-133.333 79 -232 79zM734 1454
c186.667 0 344.002 -37.667 472.002 -113l-78 -151c-114.667 57.333 -233.334 86 -356.001 86c-146 0 -256 -52 -330 -156c-64 -87.333 -100 -208 -108 -362v-58c38 64 94 115.333 168 154s160.667 57.667 260 57c143.333 0.666992 259 -38.333 347 -117
s132 -191.667 132 -339s-50 -263.666 -150 -348.999c-100.667 -84.667 -230.334 -126.667 -389.001 -126c-240 0 -405.667 90.667 -497 272c-62.667 117.333 -94 262.666 -94 435.999c0 236 58.667 423 176 561c111.333 136.667 260.333 205 447 205z" />
    <glyph glyph-name="seven" unicode="7" horiz-adv-x="1083" 
d="M1028 1434v-177l-549 -1257h-252l568 1243h-740v191h973z" />
    <glyph glyph-name="eight" unicode="8" horiz-adv-x="1292" 
d="M645 1284c-86 0 -155.002 -19.333 -207.002 -58s-78 -92 -78 -160s25.333 -122.667 76 -164c50.667 -42.667 120.334 -64 209.001 -64s158.334 21 209.001 63s76 97 76 165s-26 121.333 -78 160s-121 58 -207 58zM645.998 666c-100.667 0 -181.667 -24 -243 -72
s-92 -113.333 -92 -196c-0.666992 -82.667 31 -146 95 -190s143.667 -65.667 239 -65c95.333 0 175.333 22 240 66c64 43.333 96 106.333 96 189s-30.667 148 -92 196s-142.333 72 -243 72zM645.998 1454c146.667 0 265.331 -32.6699 355.998 -98.0029
s136.334 -156.333 137.001 -273c0 -82 -23.333 -150.333 -70 -205s-106.667 -94 -180 -118c92.667 -27.333 167.667 -71.666 225 -132.999s86 -141.333 86 -240c0 -132.667 -50.667 -233.667 -152 -303s-235 -104 -401 -104s-300.333 34.667 -403 104s-154 171 -154 305
c0 96.667 28 176.334 84 239.001s131.667 106.667 227 132c-74 23.333 -133.667 62.333 -179 117s-68 123.334 -68 206.001c0 116.667 45.333 207.667 136 273s209.334 98 356.001 98z" />
    <glyph glyph-name="nine" unicode="9" horiz-adv-x="1384" 
d="M668 1284c-96 0 -173.333 -27.333 -232 -82s-88 -127.667 -88 -219s28.333 -164 85 -218s134.667 -81 234 -81s178.333 30 237 90s87.667 132.667 87 218c0 85.333 -29.667 155.333 -89 210s-137.333 82 -234 82zM584 158c279.333 0 426.001 172.667 440.001 518v55
c-80.667 -139.333 -224 -209 -430 -209c-142 0 -257 39.333 -345 118s-132 191.667 -132 339s50.667 263.333 152 348c102 84.667 233 127 393 127c252.667 0 424 -102.333 514 -307c48 -108 71.667 -242 71 -402c0 -244.667 -56.667 -432.334 -170 -563.001
c-110.667 -135.333 -266.334 -202.666 -467.001 -201.999c-178.667 0 -332 37.333 -460 112l77 152c114.667 -57.333 233.667 -86 357 -86z" />
    <glyph glyph-name="colon" unicode=":" horiz-adv-x="526" 
d="M263 201c34.667 0 63 -10.333 85 -31s33 -48.334 33 -83.001s-11 -61.667 -33 -81s-50.667 -29 -86 -29s-63.333 9.66699 -84 29s-31 46.333 -31 81s10.667 62.334 32 83.001s49.333 31 84 31zM263 932c34.667 0 63 -10.335 85 -31.002s33 -48 33 -82s-11 -61 -33 -81
s-50.667 -30 -86 -30s-63.333 10 -84 30c-20.667 18.667 -31 45.334 -31 80.001s10.667 62.334 32 83.001s49.333 31 84 31z" />
    <glyph glyph-name="semicolon" unicode=";" horiz-adv-x="591" 
d="M289 930c35.333 0 64 -10 86 -30s33 -47.333 33 -82s-11 -62 -33 -82s-50.333 -30 -85 -30s-62.667 10 -84 30s-32 47.333 -32 82s10.333 62 31 82s48.667 30 84 30zM172 81c0 32.667 10.668 59 32.001 79s51.666 30 90.999 30s72.333 -16.333 99 -49s40 -77 40 -133
c0 -126.667 -71 -225.667 -213 -297l-43 74c42 20.667 77.333 49 106 85c28 36 42.667 77.333 44 124c0 2.66699 -0.333008 6.66699 -1 12s-1 10 -1 14c-8 -26.667 -27.333 -40 -58 -40s-54 8.66699 -70 26c-17.333 17.333 -26 42.333 -26 75z" />
    <glyph glyph-name="less" unicode="&#x3c;" horiz-adv-x="1202" 
d="M53 778l1053 369v-182l-834 -277l834 -276v-183l-1053 369v180z" />
    <glyph glyph-name="equal" unicode="=" horiz-adv-x="1105" 
d="M950 565v-145h-796v145h796zM950 932v-146h-796v146h796z" />
    <glyph glyph-name="greater" unicode="&#x3e;" horiz-adv-x="1202" 
d="M1151 778v-180l-1053 -369v183l834 276l-834 277v182z" />
    <glyph glyph-name="question" unicode="?" horiz-adv-x="1007" 
d="M448 205c82 0 123 -37.667 123 -113c0 -74.667 -41 -112 -123 -112s-122.667 37.333 -122 112c-0.666992 75.333 40 113 122 113zM462 1454c130.667 0 238.668 -29.666 324.001 -88.999c86 -59.333 129 -148.333 129 -267c0.666992 -61.333 -12.333 -115.333 -39 -162
s-58.667 -84 -96 -112l-111 -80c-91.333 -62 -137 -130.333 -137 -205v-125h-178v131c0 89.333 30 161.666 90 216.999c42.667 38.667 97 83.334 163 134.001c65.333 51.333 98 110.666 98 177.999c0 66.667 -22.667 116.667 -68 150s-102 50 -170 50
c-96.667 0 -198.334 -32 -305.001 -96l-70 157c116 79.333 239.333 119 370 119z" />
    <glyph glyph-name="at" unicode="@" horiz-adv-x="1939" 
d="M956 870c-134 0 -218.333 -70.667 -253 -212c-8.66699 -34.667 -13 -69.667 -13 -105c-1.33301 -79.333 18 -141 58 -185s89.333 -66.333 148 -67c108 0 182 37.667 222 113c34 64 51 135.667 51 215c0 160.667 -71 241 -213 241zM1042 1419
c241.333 0 436 -60.333 584 -181s222.333 -293 223 -517c-0.666992 -163.333 -41 -295.666 -121 -396.999s-187.667 -152 -323 -152s-210.333 52 -225 156c-60 -102.667 -162 -154 -306 -154c-109.333 0 -195 34.667 -257 104s-92 162.666 -90 279.999
c2 118 37 220.333 105 307s168.333 130 301 130c132 0 224.333 -49.667 277 -149l33 139h154l-97 -545c-16.667 -102.667 25 -153.667 125 -153c92.667 0 163 42.333 211 127s72 187.667 72 309c0 198 -62 344 -186 438s-285.333 141.333 -484 142
c-249.333 0 -446 -70.667 -590 -212c-144 -140.667 -216 -323.667 -216 -549s62 -392 186 -500s289.667 -161.667 497 -161c161.333 0 322 31.333 482 94l16 -112c-173.333 -62.667 -338.333 -94 -495 -94c-262 0 -465.667 66.667 -611 200
c-144.667 134 -217 319.667 -217 557c0 264.667 86.333 479.667 259 645s403.667 248 693 248z" />
    <glyph glyph-name="A" unicode="A" horiz-adv-x="1447" 
d="M719 1243l-277 -713h553l-274 713h-2zM868 1438l568 -1438h-236l-137 354h-688l-135 -354h-228l568 1438h288z" />
    <glyph glyph-name="B" unicode="B" horiz-adv-x="1409" 
d="M821 1257l-405.001 -0.00195312v-448h407c70.667 0 126.334 20 167.001 60c40 40.667 60 94.334 60 161.001s-21.667 121.334 -65 164.001c-44 42.667 -98.667 63.667 -164 63zM845.999 644.998h-429.999v-469h444c69.333 0 126.666 22 171.999 66s68 99.333 68 166
s-22 122.667 -66 168s-106.667 68.333 -188 69zM188 1434l646 -0.00292969c137.333 0 244 -32.667 320 -98s114 -157.666 114 -276.999c0 -53.333 -9.66699 -101.666 -29 -144.999s-48.333 -80.666 -87 -111.999s-81.334 -54.333 -128.001 -69
c72.667 -8 140.334 -41.333 203.001 -100s94 -144.667 94 -258c0 -114 -39.333 -205 -118 -273s-180 -102 -304 -102h-711v1434z" />
    <glyph glyph-name="C" unicode="C" horiz-adv-x="1398" 
d="M874 1454c164 0 305.999 -27.332 425.999 -81.999l-57 -168c-102.667 45.333 -211 68 -325 68c-184 0 -326.667 -51.333 -428 -154s-152 -237.334 -152 -404.001s50 -300.334 150 -401.001c100 -101.333 240.333 -151.666 421 -150.999c118.667 0 236.334 23 353.001 69
l45 -170c-130 -54.667 -277.667 -81.667 -443 -81c-226.667 0 -411 66 -553 198s-213 311.667 -213 539s72.333 407 217 539s331 198 559 198z" />
    <glyph glyph-name="D" unicode="D" horiz-adv-x="1546" 
d="M725 1257h-309v-1081h309c138 0 249.333 42.333 334 127c96.667 92.667 145 238 145 436s-64.667 343 -194 435c-80.667 55.333 -175.667 83 -285 83zM188 1434h600.001c120 0 232.667 -31.333 338 -94s184.666 -148 237.999 -256s80 -229.333 80 -364s-27 -258 -81 -370
s-133.333 -198.333 -238 -259s-217 -91 -337 -91h-600v1434z" />
    <glyph glyph-name="E" unicode="E" horiz-adv-x="1337" 
d="M1214 1434v-177h-798v-469h688v-176h-688v-436h821v-176h-1049v1434h1026z" />
    <glyph glyph-name="F" unicode="F" horiz-adv-x="1251" 
d="M1194 1434v-177h-778v-489h667v-176h-667v-592h-228v1434h1006z" />
    <glyph glyph-name="G" unicode="G" horiz-adv-x="1529" 
d="M868 1454c182.667 0 340.334 -34.6689 473.001 -104.002l-61 -168c-135.333 61.333 -261 92 -377 92c-179.333 0 -318.333 -50.667 -417 -152s-148 -234.666 -148 -399.999s48 -300.666 144 -405.999c96 -104 221.333 -156 376 -156s279 40.333 373 121v286h-369v168h553
v-540c-147.333 -143.333 -332.333 -215 -555 -215s-405.334 66 -548.001 198s-214 312 -214 540c0 229.333 71 409.333 213 540s327.667 196 557 196z" />
    <glyph glyph-name="H" unicode="H" horiz-adv-x="1585" 
d="M1397 1434v-1434h-228v623h-753v-623h-228v1434h228v-635h753v635h228z" />
    <glyph glyph-name="I" unicode="I" horiz-adv-x="600" 
d="M414 1434v-1434h-228v1434h228z" />
    <glyph glyph-name="J" unicode="J" horiz-adv-x="1105" 
d="M940 1434l-0.00292969 -965c0 -158.667 -43.667 -280 -131 -364s-204.666 -125.667 -351.999 -125c-62.667 0 -122 10 -178 30s-108.667 51 -158 93c-49.333 41.333 -83.666 83.333 -102.999 126l132 123c72.667 -126.667 171.334 -190 296.001 -190c82 0 147 26 195 78
s72 127.667 72 227v967h227z" />
    <glyph glyph-name="K" unicode="K" horiz-adv-x="1429" 
d="M416 0h-228v1434h228v-746l684 746h266l-508 -551l541 -883h-277l-426 707l-280 -306v-401z" />
    <glyph glyph-name="L" unicode="L" horiz-adv-x="1183" 
d="M416 1434v-1254h731v-180h-959v1434h228z" />
    <glyph glyph-name="M" unicode="M" horiz-adv-x="1925" 
d="M1739 1434v-1434h-228v850l15 321h-4l-457 -1026h-203l-459 1026h-2l15 -321v-850h-228v1434h326l457 -1053l446 1053h322z" />
    <glyph glyph-name="N" unicode="N" horiz-adv-x="1556" 
d="M1370 1434v-1434h-237l-717 1083v-1083h-228v1434h238l717 -1067v1067h227z" />
    <glyph glyph-name="O" unicode="O" horiz-adv-x="1644" 
d="M823 1272c-150 0 -269.669 -49.335 -359.002 -148.002s-134 -235.334 -134 -410.001c0 -173.333 44.667 -308.666 134 -405.999s209.333 -146 360 -146s270.334 48.333 359.001 145c88 96.667 132 232.334 132 407.001
c0.666992 174.667 -43.666 311.334 -132.999 410.001s-209 148 -359 148zM822.998 1454c222.667 0 400.333 -67.6699 533 -203.003c132 -135.333 198 -313.666 198 -534.999s-66 -399.666 -198 -534.999c-132 -134 -309.667 -201 -533 -201c-224.667 0 -403 67.333 -535 202
s-198 312.667 -198 534c0 222.667 66.667 401.334 200 536.001s311 202 533 202z" />
    <glyph glyph-name="P" unicode="P" horiz-adv-x="1409" 
d="M817 1257l-401 0.000976562v-577h401c90 0 161.333 26.667 214 80s79 121.666 79 204.999s-26.667 153 -80 209s-124.333 83.667 -213 83zM188 1434h688.999c142 0 256.333 -46 343 -138s130 -202.667 130 -332c0 -128 -42.667 -236.667 -128 -326
s-199.666 -134 -342.999 -134h-463v-504h-228v1434z" />
    <glyph glyph-name="Q" unicode="Q" horiz-adv-x="1662" 
d="M1327 714c0 174.667 -44.333 311.332 -133 409.999s-208.334 148 -359.001 148c-150 0 -269.667 -49.333 -359 -148s-134 -235.334 -134 -410.001c0 -173.333 44.333 -308.666 133 -405.999s208.334 -146 359.001 -146s270.667 48.333 360 145
c88.667 96.667 133 232.334 133 407.001zM836 1454c222.667 0 400.003 -67.668 532.003 -203.001s198.333 -314 199 -536c0 -168 -39.333 -312.333 -118 -433s-188.334 -205.667 -329.001 -255c124 -56 262.667 -101.333 416 -136l-57 -180
c-98.667 22 -196.334 56.333 -293.001 103s-201.334 102.667 -314.001 168c-10.667 -1.33301 -27.667 -2 -51 -2c-218 1.33301 -392.333 69.333 -523 204s-196 312.334 -196 533.001c0 222 66.667 400.333 200 535s311.333 202 534 202z" />
    <glyph glyph-name="R" unicode="R" horiz-adv-x="1431" 
d="M856 1257h-440v-503h440c77.333 0 138.666 24 183.999 72s68 108 68 180c0 70.667 -22.667 130 -68 178s-106.666 72.333 -183.999 73zM188 1434h711c136.667 0 245.667 -41.333 327 -124s122 -185.667 122 -309c0 -96.667 -27 -181 -81 -253
s-128.333 -123.333 -223 -154l283 -594h-240l-256 578h-415v-578h-228v1434z" />
    <glyph glyph-name="S" unicode="S" horiz-adv-x="1271" 
d="M106 1044c0 134.667 48.6689 236.665 146.002 305.998s230.666 104 399.999 104s330.333 -37.667 483 -113l-64 -172c-46 27.333 -111.333 51.333 -196 72s-169 31 -253 31s-151.333 -17.667 -202 -53s-76 -83 -76 -143s22.667 -109.667 68 -149
c16.667 -15.333 44 -30.333 82 -45s94.333 -32 169 -52s134 -37 178 -51c117.333 -37.333 200.666 -81.333 249.999 -132c63.333 -64.667 95 -148 95 -250c0 -138 -49.333 -242 -148 -312s-233 -105 -403 -105c-100.667 0 -201 12.667 -301 38s-181.333 54.666 -244 87.999
l60 175c170.667 -78 331 -117 481 -117c214.667 0 321.667 69 321 207c0 54.667 -19.333 99.334 -58 134.001s-134.667 71.667 -288 111c-61.333 16.667 -110 30.334 -146 41.001c-36 10 -79.667 27 -131 51s-91 49.333 -119 76s-52.333 62.667 -73 108
c-20.667 44.667 -31 95.334 -31 152.001z" />
    <glyph glyph-name="T" unicode="T" horiz-adv-x="1251" 
d="M1223 1434v-177h-484v-1257h-227v1257h-479v177h1190z" />
    <glyph glyph-name="U" unicode="U" horiz-adv-x="1480" 
d="M1325 1434l0.00195312 -920.001c0 -168 -54 -299 -162 -393s-250 -141 -426 -141s-317 48.333 -423 145s-158.667 226.334 -158 389.001v920h227v-928c0 -106.667 33.667 -190.667 101 -252s152.666 -92 255.999 -92s188.666 30.333 255.999 91s101.333 145 102 253v928
h227z" />
    <glyph glyph-name="V" unicode="V" horiz-adv-x="1382" 
d="M1356 1434l-535 -1434h-260l-534 1434h245l420 -1180l420 1180h244z" />
    <glyph glyph-name="W" unicode="W" horiz-adv-x="2029" 
d="M1980 1434l-403.002 -1434h-279l-284 1085l-283 -1085h-278l-404 1434h248l188 -703c16.667 -61.333 38.334 -150.333 65.001 -267s42.667 -184.667 48 -204h2l295 1159h238l297 -1159h2c6.66699 23.333 23.334 93.666 50.001 210.999s48 205.333 64 264l189 699h245z
" />
    <glyph glyph-name="X" unicode="X" horiz-adv-x="1396" 
d="M1356 1434l-512 -701l524 -733h-293l-379 551l-387 -551h-270l516 696l-526 738h282l387 -560l398 560h260z" />
    <glyph glyph-name="Y" unicode="Y" horiz-adv-x="1310" 
d="M770 0h-227v561l-516 873h235l393 -682l394 682h235l-514 -871v-563z" />
    <glyph glyph-name="Z" unicode="Z" horiz-adv-x="1277" 
d="M1188 1434v-150l-840 -1114l410 6h430v-176h-1116v150l837 1112l-413 -5h-392v177h1084z" />
    <glyph glyph-name="bracketleft" unicode="[" horiz-adv-x="641" 
d="M547 1454v-164h-197v-1499h197v-164h-371v1827h371z" />
    <glyph glyph-name="backslash" unicode="\" horiz-adv-x="1009" 
d="M74 1501h176l690 -1575h-176z" />
    <glyph glyph-name="bracketright" unicode="]" horiz-adv-x="641" 
d="M465 1454v-1827h-371v164h197v1499h-197v164h371z" />
    <glyph glyph-name="underscore" unicode="_" horiz-adv-x="1193" 
d="M1049 -141v-148h-906v148h906z" />
    <glyph glyph-name="grave" unicode="`" horiz-adv-x="651" 
d="M190 1466h199l133 -303h-160z" />
    <glyph glyph-name="a" unicode="a" horiz-adv-x="1208" 
d="M510 141c91.333 0 166.667 22.333 226 67s89 105 89 181v94c-94 9.33301 -177.333 14.333 -250 15c-192.667 0 -288.667 -61.667 -288 -185c0 -114.667 74.333 -172 223 -172zM459.001 -16c-259.333 0 -388.999 110.665 -388.999 331.998
c0 113.333 42.333 195.333 127 246c84.667 50 206 75 364 75c61.333 0 149.333 -4.66699 264 -14v102c0 74 -22 124.667 -66 152c-44.667 27.333 -119 41 -223 41s-222 -18.667 -354 -56l-30 160c138.667 39.333 284 59 436 59c152 0.666992 265 -25 339 -77
c73.333 -52 109.666 -143.667 108.999 -275v-500c0 -45.333 22 -67.666 66 -66.999c13.333 0 32.333 2 57 6l12 -150c-70 -17.333 -128.333 -26 -175 -26s-85.667 13.667 -117 41s-49.333 63.333 -54 108c-69.333 -105.333 -191.333 -157.666 -366 -156.999z" />
    <glyph glyph-name="b" unicode="b" horiz-adv-x="1306" 
d="M694 918c-97.333 0 -177.666 -33.999 -240.999 -101.999s-95 -162.667 -95 -284c0 -122.667 31.333 -217.334 94 -284.001s142.667 -100 240 -100s174.666 33.333 231.999 100c57.333 68 86 162.667 86 284s-28.333 216 -85 284s-133.667 102 -231 102zM360 1499
l0.00195312 -596c77.333 120 198.666 180 363.999 180s290.666 -52 375.999 -156c84.667 -104.667 127 -236.667 127 -396s-41.667 -291 -125 -395s-203.666 -155.333 -360.999 -154c-182.667 0 -312.334 62.667 -389.001 188l-20 -170h-182v1499h210z" />
    <glyph glyph-name="c" unicode="c" horiz-adv-x="1062" 
d="M664 1083c128.667 0 237.668 -23.002 327.001 -69.002l-49 -146c-83.333 32.667 -166 49.334 -248 50.001c-128.667 0 -226.667 -35.333 -294 -106s-101 -164 -101 -280s34 -209 102 -279s168.333 -105.333 301 -106c70.667 0 154.667 18.667 252 56l37 -154
c-104 -45.333 -212.333 -67.666 -325 -66.999c-173.333 0 -314 48.667 -422 146s-162 232 -162 404s53.667 306.667 161 404s247.666 146.333 420.999 147z" />
    <glyph glyph-name="d" unicode="d" horiz-adv-x="1304" 
d="M616 918c-97.333 0 -175 -34.001 -233 -102.001c-57.333 -68 -86 -162.667 -86 -284s28.667 -215.666 86 -282.999c58 -67.333 135.667 -101 233 -101s177.333 33.333 240 100s94 161 94 283s-31.333 217 -94 285s-142.667 102 -240 102zM1157 1499l0.000976562 -1499
h-180l-21 172c-78 -126.667 -207.667 -190 -389 -190c-156.667 0 -277 52 -361 156s-126 235.333 -126 394s42.667 290.334 128 395.001s205 156.667 359 156c173.333 0 299.666 -60 378.999 -180v596h211z" />
    <glyph glyph-name="e" unicode="e" horiz-adv-x="1206" 
d="M631 915c-188.667 0 -296 -102.333 -322 -307h611c0 92.667 -23.667 167 -71 223s-120 84 -218 84zM659 -16c-186 0 -329.003 47.667 -429.003 143s-149.333 227.333 -148 396c0 168.667 48.667 304 146 406s227.333 153 390 153s287.334 -46.333 374.001 -139
c86.667 -92 130 -217.333 130 -376c0 -61.333 -2 -98 -6 -110h-813c2 -100 37 -176 105 -228c68 -51.333 160.333 -77 277 -77s234.334 27 353.001 81l39 -157c-135.333 -61.333 -274.666 -92 -417.999 -92z" />
    <glyph glyph-name="f" unicode="f" horiz-adv-x="753" 
d="M520 1516c60 0 131 -7.66797 213 -23.001l-18 -154c-54.667 10.667 -103.334 16.334 -146.001 17.001c-105.333 0 -157.666 -58.667 -156.999 -176v-115h295v-152h-295v-913h-211v913h-162v152h162v106c0 116 23.667 202.667 71 260c48 56.667 130.667 85 248 85z" />
    <glyph glyph-name="g" unicode="g" horiz-adv-x="1191" 
d="M299 -68c0.666992 -85.333 87.001 -127.667 259.001 -127c173.333 0 277.666 21.667 312.999 65c16 18.667 24 44.667 24 78c0 63.333 -58.667 95 -176 95h-125c-95.333 0 -168.333 4 -219 12c-50.667 -32.667 -76 -73.667 -76 -123zM600.001 538.999
c78.667 0 139.333 16 182 48c44 32 66 78.333 66 139s-22.667 107 -68 139s-106.333 48 -183 48c-78 0 -139.667 -16 -185 -48s-68 -79 -68 -141s23 -108.333 69 -139s108.333 -46 187 -46zM602 1081c65.333 0 121.999 -5.33398 169.999 -16.001h361v-143l-168 -2
c66.667 -52 100 -127 100 -225s-40 -176.333 -120 -235s-195.667 -88.334 -347 -89.001c-94 0 -174 10.667 -240 32c-38 -26 -56.333 -58 -55 -96s24.333 -63.667 69 -77s113.334 -20.333 206.001 -21h161c247.333 0 371 -86.667 371 -260
c0 -207.333 -169.667 -311 -509 -311s-509 88.667 -509 266c0 84.667 39.667 154.334 119 209.001c-60 38 -90 96.333 -90 175s36 141 108 187c-66.667 58.667 -100 144.334 -100 257.001s41 199 123 259s198.667 90 350 90z" />
    <glyph glyph-name="h" unicode="h" horiz-adv-x="1257" 
d="M360 1499l-0.000976562 -606.001c80.667 125.333 202.334 188 365.001 188c259.333 0 389 -136.333 389 -409v-672h-211v651c0 88.667 -21 155.334 -63 200.001s-106.667 67 -194 67c-86.667 0 -156 -34 -208 -102s-78 -149 -78 -243v-573h-210v1499h210z" />
    <glyph glyph-name="i" unicode="i" horiz-adv-x="550" 
d="M385 1065v-1065h-211v913h-131v152h342zM275 1442c80 0 120 -34.667 120 -104s-40 -104.333 -120 -105c-80 0 -119.667 34.667 -119 104c-0.666992 70 39 105 119 105z" />
    <glyph glyph-name="j" unicode="j" horiz-adv-x="559" 
d="M280 1233c-80 0.666992 -120 35.667 -120 105s40 104 120 104s119.667 -35 119 -105c0.666992 -69.333 -39 -104 -119 -104zM406 1065l-0.000976562 -1159c0 -101.333 -22.667 -171.333 -68 -210s-115.666 -58 -210.999 -58h-98v169h53c44 0 74 9 90 27
s23.667 50.667 23 98v981h-142v152h353z" />
    <glyph glyph-name="k" unicode="k" horiz-adv-x="1110" 
d="M360 1499v-948l498 514h234l-398 -410l400 -655h-238l-303 508l-193 -199v-309h-210v1499h210z" />
    <glyph glyph-name="l" unicode="l" horiz-adv-x="587" 
d="M356 1499l0.000976562 -1270c0 -31.333 7.33301 -52.666 22 -63.999c25.333 -20 74.666 -24.333 147.999 -13l6 -154c-50.667 -9.33301 -110 -14 -178 -14c-138 0 -207.667 69.667 -209 209v1306h211z" />
    <glyph glyph-name="m" unicode="m" horiz-adv-x="1857" 
d="M1503 668c0 166.667 -75.998 250.001 -227.998 250.001c-77.333 0 -135.666 -29.333 -174.999 -88s-59.333 -128.334 -60 -209.001v-621h-211v676c0 73.333 -20.333 132 -61 176s-97.334 66 -170.001 66c-73.333 0 -131.333 -26 -174 -78s-64 -119 -64 -201v-639h-210
v1065h184l10 -139c65.333 104 175 156 329 156s255.333 -73.333 304 -220c75.333 146 199.666 219 372.999 219c243.333 0 364.666 -137 363.999 -411v-670h-211v668z" />
    <glyph glyph-name="n" unicode="n" horiz-adv-x="1255" 
d="M901 651c0.666992 178 -85.001 267 -257.001 267c-88 0 -157.667 -34 -209 -102s-77 -149 -77 -243v-573h-211v1065h185l14 -180c80.667 130.667 206.334 196 377.001 196c259.333 0 389 -136.333 389 -409v-672h-211v651z" />
    <glyph glyph-name="o" unicode="o" horiz-adv-x="1275" 
d="M977 532c0 121.333 -30 215.333 -90 282s-142.667 100.334 -248 101.001c-105.333 0 -188.333 -33 -249 -99c-60.667 -65.333 -91 -159.333 -91 -282s30.333 -217.334 91 -284.001s143.667 -100 249 -100s188 33.333 248 100s90 160.667 90 282zM638 1083
c168 0 302.668 -49 404.001 -147c101.333 -98.667 152 -233.334 152 -404.001s-51 -305 -153 -403s-236.333 -147 -403 -147s-301.334 49 -404.001 147c-102 98 -152.667 232.333 -152 403c0 170.667 50.667 305.334 152 404.001c102 98 236.667 147 404 147z" />
    <glyph glyph-name="p" unicode="p" horiz-adv-x="1306" 
d="M690 918c-97.333 0 -177.002 -33.332 -239.002 -99.999c-63.333 -66.667 -95 -161.334 -95 -284.001c0 -121.333 31.333 -216 94 -284s143.334 -102 242.001 -102c97.333 0 174.333 33.333 231 100c56.667 68 85 162.667 85 284s-28.667 216 -86 284
s-134.666 102 -231.999 102zM738.998 1083c157.333 0.666992 277.666 -51 360.999 -155s125 -235.333 125 -394s-42.333 -290.667 -127 -396c-84.667 -104.667 -205 -156.667 -361 -156c-176 0 -302.333 60 -379 180v-510h-211v1413h183l20 -170
c76.667 125.333 206.334 188 389.001 188z" />
    <glyph glyph-name="q" unicode="q" horiz-adv-x="1306" 
d="M620 918c-97.333 0 -175.333 -34.001 -234 -102.001c-58 -68 -87 -162 -87 -282c0 -121.333 29 -216 87 -284c58.667 -68 136.667 -102 234 -102s177.333 33.333 240 100c62.667 68 94 163.333 94 286s-31.333 217.334 -94 284.001s-142.667 100 -240 100zM569 1083
c180 0 309.667 -64.666 389 -193.999l21 176h180v-1413h-211v510c-78.667 -120 -200 -180 -364 -180s-288.667 52 -374 156s-128 236 -128 396c0 159.333 42 290.666 126 393.999s204.333 155 361 155z" />
    <glyph glyph-name="r" unicode="r" horiz-adv-x="755" 
d="M360 0h-209.999v1065h174l18 -225c26 69.333 70.333 127.666 133 174.999c63.333 46.667 140.666 63.334 231.999 50.001l-9 -205c-108 14.667 -191.333 -13.333 -250 -84s-88 -164.667 -88 -282v-494z" />
    <glyph glyph-name="s" unicode="s" horiz-adv-x="995" 
d="M506 1081c130.667 0 257.664 -24.333 380.997 -73l-37 -142c-113.333 42 -220.666 63.333 -321.999 64c-151.333 0 -227 -47.333 -227 -142c0 -48.667 20 -83.667 60 -105c25.333 -13.333 64.333 -27 117 -41c52.667 -13.333 93.334 -24 122.001 -32
s56.334 -16.333 83.001 -25c80.667 -26 142.667 -61.333 186 -106s65 -105.334 65 -182.001c0 -104 -39.667 -182.333 -119 -235c-79.333 -52 -186.333 -78 -321 -78s-272.667 30.667 -414 92l45 143c122.667 -54.667 242 -82 358 -82c154 0 231.333 48 232 144
c0.666992 36 -7 60 -23 72c-16 12.667 -28.667 22.334 -38 29.001s-24.333 13.667 -45 21c-21.333 6 -37.666 11 -48.999 15s-31.666 9.33301 -60.999 16c-176.667 40 -290.334 87.333 -341.001 142c-50.667 54 -75.334 118.667 -74.001 194c0 104 37.667 182 113 234
s178.333 77.667 309 77z" />
    <glyph glyph-name="t" unicode="t" horiz-adv-x="751" 
d="M399 1372v-307h295v-152h-295v-598c0 -65.333 11.333 -111 34 -137c22 -26 56.333 -39 103 -39s98.667 8.33301 156 25l8 -146c-61.333 -22.667 -138 -34 -230 -34s-162 24.667 -210 74s-72 133 -72 251v604h-151v152h151l31 307h180z" />
    <glyph glyph-name="u" unicode="u" horiz-adv-x="1241" 
d="M340 414c0 -178 86 -267.001 258 -267.001c88 -0.666992 157.333 33 208 101c51.333 68 77 149.333 77 244v573h211v-1065h-185l-16 180c-80.667 -131.333 -205.667 -196.666 -375 -195.999c-259.333 0 -389 136.333 -389 409v672h211v-651z" />
    <glyph glyph-name="v" unicode="v" horiz-adv-x="1103" 
d="M1075 1065l-401 -1065h-246l-399 1065h217l309 -875l309 875h211z" />
    <glyph glyph-name="w" unicode="w" horiz-adv-x="1691" 
d="M1640 1065l-311 -1065h-239l-246 762l-244 -762h-240l-309 1065h219l224 -836l258 820h188l256 -824l225 840h219z" />
    <glyph glyph-name="x" unicode="x" horiz-adv-x="1138" 
d="M1077 1065l-379 -516l389 -549h-233l-289 412l-295 -412h-219l385 526l-381 539h238l278 -389l289 389h217z" />
    <glyph glyph-name="y" unicode="y" horiz-adv-x="1202" 
d="M366 -356c-74.667 0 -149 6.00098 -223 18.001l7 162c68 -10.667 120.333 -16.334 157 -17.001c83.333 0 145 50.667 185 152l16 41l-451 1065h236l328 -829l303 829h219l-432 -1131c-45.333 -116 -95.333 -193.333 -150 -232c-55.333 -38.667 -120.333 -58 -195 -58z
" />
    <glyph glyph-name="z" unicode="z" horiz-adv-x="1058" 
d="M975 1065v-168l-660 -752l351 7h309v-152h-893v164l666 756l-375 -7h-277v152h879z" />
    <glyph glyph-name="braceleft" unicode="{" horiz-adv-x="690" 
d="M598 1454v-156.001h-80c-53.333 0 -90 -12 -110 -36s-30.333 -57.667 -31 -101v-452c0 -92.667 -44.333 -146.667 -133 -162c88.667 -10.667 133 -64 133 -160v-453c0 -45.333 10.333 -79.333 31 -102s57.334 -34.334 110.001 -35.001h80v-159h-96
c-114.667 0 -193 26 -235 78c-41.333 52.667 -62 127 -62 223v432c0 70.667 -42.333 108 -127 112v131c44 1.33301 76 10.333 96 27s30.333 45.334 31 86.001v424c0 96.667 20.667 171.334 62 224.001s119.666 79 234.999 79h96z" />
    <glyph glyph-name="bar" unicode="|" horiz-adv-x="518" 
d="M346 1624v-1943h-172v1943h172z" />
    <glyph glyph-name="braceright" unicode="}" horiz-adv-x="690" 
d="M92 1454l98 0.00292969c113.333 0 191.333 -26.333 234 -79s63.667 -127.334 63 -224.001v-424c0 -40.667 10 -69.334 30 -86.001s51.667 -25.667 95 -27v-131c-44 -2 -76 -11.667 -96 -29s-29.667 -45 -29 -83v-432c0 -94 -21 -167.667 -63 -221s-120 -80 -234 -80h-98
v159h82c53.333 0 90 11.667 110 35s29.667 57.333 29 102v453c0 95.333 44.333 148.666 133 159.999c-88.667 15.333 -133 69.333 -133 162v452c0 44 -9.66699 78 -29 102c-20 24 -56.667 35.667 -110 35h-82v156z" />
    <glyph glyph-name="exclamdown" unicode="&#xa1;" horiz-adv-x="569" 
d="M285 1081c82 -0.666992 123 -38.334 123 -113.001s-41 -112 -123 -112s-123 37.333 -123 112s41 112.334 123 113.001zM375 645l31 -1024h-240l33 1024h176z" />
    <glyph glyph-name="cent" unicode="&#xa2;" horiz-adv-x="1163" 
d="M700 1411v-166.001c101.333 -5.33301 196.333 -27.666 285 -66.999l-43 -146c-80.667 32.667 -161.334 49 -242.001 49c-130.667 0 -228.667 -35 -294 -105c-65.333 -70.667 -98 -164 -98 -280s32.667 -209 98 -279c66.667 -70 165.334 -105.333 296.001 -106
c83.333 0 166.666 16.333 249.999 49l37 -145c-90 -40.667 -186.333 -63.334 -289 -68.001v-163h-118v168c-151.333 15.333 -271.333 70 -360 164c-88 94.667 -132 221 -132 379s44.333 284.333 133 379s208.334 150.334 359.001 167.001v170h118z" />
    <glyph glyph-name="sterling" unicode="&#xa3;" horiz-adv-x="1241" 
d="M975 741l-0.000976562 -116h-490c10 -55.333 15 -115 15 -179s-15.667 -122.333 -47 -175s-66.333 -87.667 -105 -105h764v-166h-1012v154c17.333 4 37 14 59 30c22 15.333 41 32.666 57 51.999c60 74 75.333 203.667 46 389h-131v116h109
c-18 88.667 -27 175.334 -27 260.001c0 134 46.333 243 139 327c92 84 212 126 360 126s272.333 -37.667 373 -113l-84 -147c-87.333 57.333 -177.666 86 -270.999 86s-166.333 -26 -219 -78s-79 -118.667 -79 -200s10.333 -168.333 31 -261h512z" />
    <glyph glyph-name="yen" unicode="&#xa5;" horiz-adv-x="1372" 
d="M801 516h252v-100h-252v-101h252v-100h-252v-215h-228v215h-249v100h249v101h-249v100h249v64l-503 856h233l385 -664l383 664h234l-504 -856v-64z" />
    <glyph glyph-name="section" unicode="&#xa7;" horiz-adv-x="1236" 
d="M932 494c0 66.667 -40.667 118.999 -122 156.999c-55.333 26.667 -128 53.334 -218 80.001c-90 26 -153 46 -189 60c-72.667 -64 -109 -130.333 -109 -199s41 -122.667 123 -162c55.333 -26.667 128 -53.334 218 -80.001c90 -26 152.667 -45.667 188 -59
c72.667 68.667 109 136.334 109 203.001zM616 1436c153.333 0 305.001 -32.332 455.001 -96.999l-65 -163c-34.667 14.667 -87.334 31.334 -158.001 50.001s-144.667 28 -222 28s-139.666 -15.667 -186.999 -47c-47.333 -30.667 -71 -68.334 -71 -113.001
s15 -78.334 45 -101.001c29.333 -22.667 61.666 -40 96.999 -52c36 -12 91.333 -28.667 166 -50c142 -39.333 248 -80.333 318 -123c85.333 -53.333 127.333 -134.666 126 -243.999c0 -56 -17 -112 -51 -168s-71 -99.667 -111 -131c93.333 -60.667 140 -143 140 -247
s-43 -184.667 -129 -242s-206.333 -86 -361 -86s-305.334 31.333 -452.001 94l65 162c122.667 -50.667 235.667 -76 339 -76c102.667 0 178 15.333 226 46s72 73.334 72 128.001s-39 98 -117 130c-34 13.333 -90.667 30.666 -170 51.999s-138.666 38.666 -177.999 51.999
c-96.667 32 -169 72.667 -217 122s-72 115.666 -72 198.999c0 57.333 17 113.333 51 168c33.333 54.667 70.333 97.667 111 129c-92.667 58.667 -139 141.334 -139 248.001s43 188.667 129 246c86.667 57.333 206.667 86 360 86z" />
    <glyph glyph-name="dieresis" unicode="&#xa8;" horiz-adv-x="991" 
d="M608 1294c0 70 37 105 111 105s110.667 -35 110 -105c-0.666992 -66.667 -37.667 -100 -111 -100s-110 33.333 -110 100zM268 1399c76.667 0 115 -35 115 -105c0 -66.667 -38.333 -100 -115 -100c-34 0 -60.667 9 -80 27c-18.667 18 -28 43 -28 75s9.33301 57 28 75
c19.333 18.667 46 28 80 28z" />
    <glyph glyph-name="copyright" unicode="&#xa9;" horiz-adv-x="1662" 
d="M836 1350c-177.333 0 -326.667 -59.3311 -448 -177.998s-181.666 -269.334 -180.999 -452.001c0 -182.667 60.333 -333.334 181 -452.001c121.333 -118.667 270.666 -178 447.999 -178s326.666 59 447.999 177s182 268.333 182 451s-60.667 334 -182 454
c-121.333 118.667 -270.666 178 -447.999 178zM871.999 1100c86 0 160.666 -15.6689 223.999 -47.002l-31 -107c-62.667 22 -118.667 33 -168 33c-86 0 -151.333 -23.667 -196 -71c-44.667 -48 -67 -110 -67 -186s22.667 -138 68 -186c44 -48 109.667 -71.667 197 -71
c57.333 0 115.333 12.333 174 37l25 -111c-66.667 -31.333 -142.667 -47 -228 -47c-117.333 0 -212.666 33.333 -285.999 100s-109.666 159.334 -108.999 278.001s37.667 211.334 111 278.001s168.666 100 285.999 100zM835.998 1440
c204.667 0 376.666 -67.667 515.999 -203s209 -307 209 -515s-70.333 -380.333 -211 -517s-312 -205 -514 -205s-373 68 -513 204s-210 308.333 -210 517s69.333 380.667 208 516s310.334 203 515.001 203z" />
    <glyph glyph-name="ordfeminine" unicode="&#xaa;" horiz-adv-x="1011" 
d="M502 1081c-140.667 0 -211.001 -44.333 -211.001 -133c0 -40.667 13.667 -71.667 41 -93c28 -21.333 66.667 -32 116 -32s93 16 131 48c37.333 32 56 74.667 56 128v74c-43.333 5.33301 -87.666 8 -132.999 8zM853.999 565v-129h-698v129h698zM757.999 723
c-82 0 -121.665 32.668 -118.998 98.001v8c-48 -74 -125 -110.667 -231 -110c-75.333 0 -136.666 18.333 -183.999 55c-46.667 36.667 -70 93.667 -70 171s28.667 135 86 173s135.666 57.333 234.999 58c53.333 0 106.666 -3.66699 159.999 -11v47
c0 53.333 -13 91.666 -39 114.999s-71.667 35 -137 35s-138.333 -13 -219 -39l-29 121c100 30 197.667 45 293 45c187.333 0 280.666 -82.667 279.999 -248v-356c0 -24.667 11.667 -37 35 -37s36.333 1.33301 39 4v-115c-28.667 -9.33301 -62 -14 -100 -14z" />
    <glyph glyph-name="guillemotleft" unicode="&#xab;" horiz-adv-x="1263" 
d="M522 1034l111 -112l-307 -390l307 -389l-111 -112l-426 481v41zM1038 1034l111 -112l-307 -390l307 -389l-111 -112l-426 481v41z" />
    <glyph glyph-name="registered" unicode="&#xae;" horiz-adv-x="1212" 
d="M641 1221h-128.999v-162h133c26 -0.666992 46.667 7 62 23s22.666 35 21.999 57c0 54.667 -29.333 82 -88 82zM428.001 1290l225 0.000976562c45.333 0 82 -14.333 110 -43s42 -64.667 42 -108c0 -70.667 -30 -117.334 -90 -140.001l84 -190h-90l-70 178h-129v-178h-82
v481zM606.001 1442c-118.667 0 -214.333 -37.999 -287 -113.999s-109 -171.333 -109 -286s36.667 -209.334 110 -284.001c72 -74.667 167.333 -112.334 286 -113.001c118.667 0 214 37.667 286 113c72 74.667 108 169.334 108 284.001s-36 210 -108 286
s-167.333 114 -286 114zM606.002 1505c135.333 0 246.334 -43.668 333.001 -131.001s130 -197.666 130 -330.999c0 -134 -43.667 -244.333 -131 -331s-198.333 -130 -333 -130s-245.667 43.333 -333 130s-131 196.667 -131 330s43.667 244 131 332
c87.333 87.333 198.666 131 333.999 131z" />
    <glyph glyph-name="macron" unicode="&#xaf;" horiz-adv-x="960" 
d="M791 1360v-125h-623v125h623z" />
    <glyph glyph-name="degree" unicode="&#xb0;" horiz-adv-x="628" 
d="M313 1360c-44.667 0 -82.334 -13.668 -113.001 -41.001s-46 -68 -46 -122s15.333 -95 46 -123s68.667 -42 114 -42s83.333 14.333 114 43c31.333 28.667 47 69.334 47 122.001s-15.667 93 -47 121s-69.666 42 -114.999 42zM315 1456
c78 0 142.998 -22.001 194.998 -66.001s78 -108.333 78 -193c0 -83.333 -26 -147.666 -78 -192.999s-116.667 -68 -194 -68s-142.666 22.667 -195.999 68s-79.666 110 -78.999 194s27 148 79 192s117 66 195 66z" />
    <glyph glyph-name="plusminus" unicode="&#xb1;" horiz-adv-x="1089" 
d="M618 1143v-328h388v-158h-388v-315h-159v315h-377v158h377v328h159zM1008 244v-140h-926v140h926z" />
    <glyph glyph-name="acute" unicode="&#xb4;" horiz-adv-x="632" 
d="M512 1466l-186 -303h-158l145 303h199z" />
    <glyph glyph-name="mu" unicode="&#xb5;" horiz-adv-x="1263" 
d="M1116 1065l0.000976562 -1065h-153l-31 180c-23.333 -57.333 -61.333 -105 -114 -143s-114.334 -57 -185.001 -57c-135.333 0 -227 43.667 -275 131v-461h-211v1415h211v-631c0 -87.333 24 -157 72 -209s115.333 -78 202 -78s154 27.333 202 82
s71.667 120.334 71 197.001v639h211z" />
    <glyph glyph-name="paragraph" unicode="&#xb6;" horiz-adv-x="1232" 
d="M877 -176v1454h-205v-1454h-160v741h-51c-120 1.33301 -213.333 43.333 -280 126c-66 82.667 -99 190 -99 322c0 132.667 40.667 236.334 122 311.001s178 112 290 112h538v-1612h-155z" />
    <glyph glyph-name="periodcentered" unicode="&#xb7;" horiz-adv-x="559" 
d="M282 764c44 0 78.667 -14 104 -42s38 -62.667 38 -104s-13 -76.333 -39 -105c-26 -28 -61 -42 -105 -42s-79.333 14 -106 42c-26 28 -39 62.667 -39 104s13.333 76.333 40 105c27.333 28 63 42 107 42z" />
    <glyph glyph-name="cedilla" unicode="&#xb8;" horiz-adv-x="665" 
d="M524 -260c0 -102.667 -70.332 -154 -210.999 -154c-64 0 -119.333 11 -166 33l17 86c35.333 -16.667 81.666 -25 138.999 -25s86 19.333 86 58c0 50.667 -43.667 69.667 -131 57l-35 47l62 176h114l-45 -139c113.333 4 170 -42.333 170 -139z" />
    <glyph glyph-name="ordmasculine" unicode="&#xba;" horiz-adv-x="1087" 
d="M545 1352c-70 0 -125.667 -22.333 -167 -67s-62 -104.334 -62 -179.001s19.333 -134 58 -178c40 -44 97 -66 171 -66s130 22.333 168 67s57 104.334 57 179.001s-20 134 -60 178s-95 66 -165 66zM934 565v-129h-776v129h776zM544 1489
c119.333 -0.666992 213.667 -35.666 283 -104.999c70 -69.333 105 -163 105 -281s-35.333 -210.333 -106 -277s-164.334 -100.334 -281.001 -101.001c-117.333 0 -212 33.333 -284 100c-71.333 66 -107 158.333 -107 277s35.333 212.667 106 282
s165.334 104.333 284.001 105z" />
    <glyph glyph-name="guillemotright" unicode="&#xbb;" horiz-adv-x="1263" 
d="M223 1034l426 -481v-41l-424 -481l-112 112l307 389l-307 390zM737 1034l426 -481v-41l-424 -481l-112 112l307 389l-307 390z" />
    <glyph glyph-name="questiondown" unicode="&#xbf;" horiz-adv-x="1007" 
d="M559 854c-80.667 0 -121 38 -121 114s41 113.667 123 113c82 0 123 -37.333 123 -112c0 -38 -11.333 -66.667 -34 -86s-53 -29 -91 -29zM653 645v-129.001c0.666992 -91.333 -32.333 -166 -99 -224s-117 -100 -151 -126c-68 -52 -102 -111.667 -102 -179
s23 -117.666 69 -150.999c45.333 -33.333 108.666 -49.666 189.999 -48.999c81.333 0 176.666 31.333 285.999 94l69 -155c-118 -80.667 -241.667 -121 -371 -121s-237 30 -323 90s-129 149.333 -129 268c0 60 13.333 113.333 40 160c26.667 46 58.334 83 95.001 111
s73.667 54.667 111 80c90.667 61.333 136.334 130.666 137.001 207.999v123h178z" />
    <glyph glyph-name="Agrave" unicode="&#xc0;" horiz-adv-x="1447" 
d="M723 1763l133 -231h-160l-172 231h199zM719 1243l-277 -713h553l-274 713h-2zM868 1438l568 -1438h-236l-137 354h-688l-135 -354h-228l568 1438h288z" />
    <glyph glyph-name="Aacute" unicode="&#xc1;" horiz-adv-x="1447" 
d="M993 1765l-186 -233h-158l146 233h198zM719 1243l-277 -713h553l-274 713h-2zM868 1438l568 -1438h-236l-137 354h-688l-135 -354h-228l568 1438h288z" />
    <glyph glyph-name="Acircumflex" unicode="&#xc2;" horiz-adv-x="1447" 
d="M1055 1532h-181l-143 156l-145 -156h-180l227 233h194zM719 1243l-277 -713h553l-274 713h-2zM868 1438l568 -1438h-236l-137 354h-688l-135 -354h-228l568 1438h288z" />
    <glyph glyph-name="Atilde" unicode="&#xc3;" horiz-adv-x="1447" 
d="M844 1563c-27.333 0 -73.6689 14.334 -139.002 43.001c-62.667 31.333 -106 47 -130 47c-39.333 0 -72 -24.667 -98 -74l-74 31c36.667 116 101.667 174 195 174c32.667 0 78.334 -14.667 137.001 -44s102.334 -44 131.001 -44c41.333 -0.666992 75 23.666 101 72.999
l73 -32c-36.667 -116 -102 -174 -196 -174zM718.997 1243l-277 -713h553l-274 713h-2zM867.997 1438l568 -1438h-236l-137 354h-688l-135 -354h-228l568 1438h288z" />
    <glyph glyph-name="Adieresis" unicode="&#xc4;" horiz-adv-x="1447" 
d="M942 1759c70.667 0 106.333 -33.333 107 -100c0 -65.333 -35.667 -98 -107 -98c-32.667 0.666992 -58 9.66699 -76 27c-17.333 17.333 -26 41.333 -26 72s8.66699 55 26 73c18 17.333 43.333 26 76 26zM494.999 1759c70 0 105 -33 105 -99s-35 -99 -105 -99
s-105.333 32.667 -106 98c0.666992 66.667 36 100 106 100zM718.999 1243l-277 -713h553l-274 713h-2zM867.999 1438l568 -1438h-236l-137 354h-688l-135 -354h-228l568 1438h288z" />
    <glyph glyph-name="Aring" unicode="&#xc5;" horiz-adv-x="1447" 
d="M718 1837c-29.333 0 -54 -9 -74 -27s-30 -46 -30 -84c0 -37.333 10 -64.666 30 -81.999s44.667 -26 74 -26s54.333 8.66699 75 26s31 44.666 31 81.999s-10.333 65.333 -31 84c-20.667 18 -45.667 27 -75 27zM718 1929c62 0 113.667 -17.332 155 -51.999
c42 -34.667 63 -84.334 63 -149.001c0 -65.333 -20.667 -115.333 -62 -150s-93 -52 -155 -52c-62.667 0 -114.667 17.333 -156 52c-40.667 34.667 -61 84.667 -61 150s20.333 115 61 149c41.333 34.667 93 52 155 52zM719 1243l-277 -713h553l-274 713h-2zM868 1438
l568 -1438h-236l-137 354h-688l-135 -354h-228l568 1438h288z" />
    <glyph glyph-name="AE" unicode="&#xc6;" horiz-adv-x="2121" 
d="M977 557v700h-21l-399 -700h420zM2001 1434v-177h-797v-471h686v-176h-686v-434h817v-176h-1044v381h-520l-215 -381h-234l815 1434h1178z" />
    <glyph glyph-name="Ccedilla" unicode="&#xc7;" horiz-adv-x="1398" 
d="M874 1454c164 0 306 -27.3311 426 -81.998l-57 -168c-102.667 45.333 -211 68 -325 68c-184 0 -326.667 -51.333 -428 -154s-152 -237.334 -152 -404.001s50 -300.334 150 -401.001c100 -101.333 240.333 -151.666 421 -150.999c118.667 0 236.334 23 353.001 69l45 -170
c-130 -54.667 -277.667 -81.667 -443 -81h-10l-33 -101c113.333 4 170 -42.333 170 -139c0 -102.667 -70.333 -154 -211 -154c-64 0 -119.333 11 -166 33l17 86c35.333 -16.667 81.666 -25 138.999 -25s86 19.333 86 58c0 50.667 -43.667 69.667 -131 57l-35 47l49 146
c-192.667 23.333 -347.667 98.666 -465 225.999s-176 300 -176 518c0 217.333 72.333 392 217 524s331 198 559 198z" />
    <glyph glyph-name="Egrave" unicode="&#xc8;" horiz-adv-x="1337" 
d="M705 1763l133 -231h-160l-172 231h199zM1214 1434v-177h-798v-469h688v-176h-688v-436h821v-176h-1049v1434h1026z" />
    <glyph glyph-name="Eacute" unicode="&#xc9;" horiz-adv-x="1337" 
d="M975 1765l-187 -233h-157l145 233h199zM1214 1434v-177h-798v-469h688v-176h-688v-436h821v-176h-1049v1434h1026z" />
    <glyph glyph-name="Ecircumflex" unicode="&#xca;" horiz-adv-x="1337" 
d="M1036 1532h-180l-143 156l-146 -156h-180l227 233h195zM1214 1434v-177h-798v-469h688v-176h-688v-436h821v-176h-1049v1434h1026z" />
    <glyph glyph-name="Edieresis" unicode="&#xcb;" horiz-adv-x="1335" 
d="M928 1757c70.667 0 106 -33 106 -99s-35.333 -99 -106 -99c-32.667 0.666992 -58 9.66699 -76 27s-27 41.333 -27 72s9 54.667 27 72s43.333 26.333 76 27zM480 1559c-70.667 0 -105.667 33 -105 99c0 66 35 99 105 99s105.333 -33.333 106 -100
c0 -65.333 -35.333 -98 -106 -98zM1214 1434v-177h-798v-469h688v-176h-688v-436h821v-176h-1049v1434h1026z" />
    <glyph glyph-name="Igrave" unicode="&#xcc;" horiz-adv-x="600" 
d="M305 1763l133 -231h-159l-173 231h199zM414 1434v-1434h-228v1434h228z" />
    <glyph glyph-name="Iacute" unicode="&#xcd;" horiz-adv-x="600" 
d="M575 1765l-186 -233h-158l146 233h198zM414 1434v-1434h-228v1434h228z" />
    <glyph glyph-name="Icircumflex" unicode="&#xce;" horiz-adv-x="600" 
d="M637 1532h-180l-144 156l-145 -156h-180l227 233h195zM414 1434v-1434h-228v1434h228z" />
    <glyph glyph-name="Idieresis" unicode="&#xcf;" horiz-adv-x="600" 
d="M524 1759c70.667 0 106.333 -33.333 107 -100c0 -65.333 -35.667 -98 -107 -98c-33.333 0.666992 -58.666 9.66699 -75.999 27s-26 41.333 -26 72s8.66699 54.667 26 72s42.666 26.333 75.999 27zM76.999 1759c70 0 105 -33 105 -99s-35 -99 -105 -99
s-105.333 32.667 -106 98c0.666992 66.667 36 100 106 100zM413.999 1434v-1434h-228v1434h228z" />
    <glyph glyph-name="Eth" unicode="&#xd0;" horiz-adv-x="1523" 
d="M725 1257h-309v-485h291v-139h-291v-457h309c138 0 249.333 42.333 334 127c96.667 92.667 145 238 145 436s-64.667 343 -194 435c-80.667 55.333 -175.667 83 -285 83zM188 1434h600.001c120 0 232.667 -31.333 338 -94s184.666 -148 237.999 -256s80 -229.333 80 -364
s-27 -258 -81 -370s-133.333 -198.333 -238 -259s-217 -91 -337 -91h-600v633h-178v139h178v662z" />
    <glyph glyph-name="Ntilde" unicode="&#xd1;" horiz-adv-x="1556" 
d="M913 1563c-27.333 0 -73.668 14.334 -139.001 43.001c-62.667 31.333 -105.667 47 -129 47c-39.333 0 -72 -24.667 -98 -74l-74 31c36.667 116 101.667 174 195 174c32.667 0 78.334 -14.667 137.001 -44s102.334 -44 131.001 -44c40.667 -0.666992 74 23.666 100 72.999
l74 -32c-36.667 -116 -102.334 -174 -197.001 -174zM1370 1434v-1434h-237l-717 1083v-1083h-228v1434h238l717 -1067v1067h227z" />
    <glyph glyph-name="Ograve" unicode="&#xd2;" horiz-adv-x="1644" 
d="M827 1763l134 -231h-160l-172 231h198zM823 1272c-150 0 -269.669 -49.335 -359.002 -148.002s-134 -235.334 -134 -410.001c0 -173.333 44.667 -308.666 134 -405.999s209.333 -146 360 -146s270.334 48.333 359.001 145c88 96.667 132 232.334 132 407.001
c0.666992 174.667 -43.666 311.334 -132.999 410.001s-209 148 -359 148zM822.998 1454c222.667 0 400.333 -67.6699 533 -203.003c132 -135.333 198 -313.666 198 -534.999s-66 -399.666 -198 -534.999c-132 -134 -309.667 -201 -533 -201c-224.667 0 -403 67.333 -535 202
s-198 312.667 -198 534c0 222.667 66.667 401.334 200 536.001s311 202 533 202z" />
    <glyph glyph-name="Oacute" unicode="&#xd3;" horiz-adv-x="1642" 
d="M1044 1765l-186 -233h-158l146 233h198zM823 1272c-150 0 -269.669 -49.335 -359.002 -148.002s-134 -235.334 -134 -410.001c0 -173.333 44.667 -308.666 134 -405.999s209.333 -146 360 -146s270.334 48.333 359.001 145c88 96.667 132 232.334 132 407.001
c0.666992 174.667 -43.666 311.334 -132.999 410.001s-209 148 -359 148zM822.998 1454c222.667 0 400.333 -67.6699 533 -203.003c132 -135.333 198 -313.666 198 -534.999s-66 -399.666 -198 -534.999c-132 -134 -309.667 -201 -533 -201c-224.667 0 -403 67.333 -535 202
s-198 312.667 -198 534c0 222.667 66.667 401.334 200 536.001s311 202 533 202z" />
    <glyph glyph-name="Ocircumflex" unicode="&#xd4;" horiz-adv-x="1644" 
d="M1159 1532h-180l-143 156l-146 -156h-180l227 233h195zM823 1272c-150 0 -269.669 -49.335 -359.002 -148.002s-134 -235.334 -134 -410.001c0 -173.333 44.667 -308.666 134 -405.999s209.333 -146 360 -146s270.334 48.333 359.001 145
c88 96.667 132 232.334 132 407.001c0.666992 174.667 -43.666 311.334 -132.999 410.001s-209 148 -359 148zM822.998 1454c222.667 0 400.333 -67.6699 533 -203.003c132 -135.333 198 -313.666 198 -534.999s-66 -399.666 -198 -534.999
c-132 -134 -309.667 -201 -533 -201c-224.667 0 -403 67.333 -535 202s-198 312.667 -198 534c0 222.667 66.667 401.334 200 536.001s311 202 533 202z" />
    <glyph glyph-name="Otilde" unicode="&#xd5;" horiz-adv-x="1644" 
d="M948 1563c-27.333 0 -73.668 14.334 -139.001 43.001c-62.667 31.333 -105.667 47 -129 47c-39.333 0 -72 -24.667 -98 -74l-74 31c36.667 116 101.334 174 194.001 174c32.667 0 79.334 -14.333 140.001 -43c57.333 -30 100.333 -45 129 -45
c40.667 -0.666992 74 23.666 100 72.999l74 -32c-36.667 -116 -102.334 -174 -197.001 -174zM822.998 1272c-150 0 -269.669 -49.335 -359.002 -148.002s-134 -235.334 -134 -410.001c0 -173.333 44.667 -308.666 134 -405.999s209.333 -146 360 -146
s270.334 48.333 359.001 145c88 96.667 132 232.334 132 407.001c0.666992 174.667 -43.666 311.334 -132.999 410.001s-209 148 -359 148zM822.996 1454c222.667 0 400.333 -67.6699 533 -203.003c132 -135.333 198 -313.666 198 -534.999s-66 -399.666 -198 -534.999
c-132 -134 -309.667 -201 -533 -201c-224.667 0 -403 67.333 -535 202s-198 312.667 -198 534c0 222.667 66.667 401.334 200 536.001s311 202 533 202z" />
    <glyph glyph-name="Odieresis" unicode="&#xd6;" horiz-adv-x="1644" 
d="M1047 1759c70.667 0 106 -33 106 -99s-35.333 -99 -106 -99c-32.667 0.666992 -58 9.66699 -76 27s-27 41.333 -27 72s9 54.667 27 72s43.333 26.333 76 27zM600 1561c-70.667 0 -106 33 -106 99s35 99 105 99s105.333 -33.333 106 -100
c0.666992 -65.333 -34.333 -98 -105 -98zM823 1272c-150 0 -269.669 -49.335 -359.002 -148.002s-134 -235.334 -134 -410.001c0 -173.333 44.667 -308.666 134 -405.999s209.333 -146 360 -146s270.334 48.333 359.001 145c88 96.667 132 232.334 132 407.001
c0.666992 174.667 -43.666 311.334 -132.999 410.001s-209 148 -359 148zM822.998 1454c222.667 0 400.333 -67.6699 533 -203.003c132 -135.333 198 -313.666 198 -534.999s-66 -399.666 -198 -534.999c-132 -134 -309.667 -201 -533 -201c-224.667 0 -403 67.333 -535 202
s-198 312.667 -198 534c0 222.667 66.667 401.334 200 536.001s311 202 533 202z" />
    <glyph glyph-name="multiply" unicode="&#xd7;" horiz-adv-x="1067" 
d="M92 1018l109 112l329 -333l332 333l111 -112l-332 -332l332 -330l-111 -110l-332 329l-329 -329l-109 110l330 330z" />
    <glyph glyph-name="Oslash" unicode="&#xd8;" horiz-adv-x="1642" 
d="M1315 720c0 178 -49.333 317.667 -148 419l-594 -918c72.667 -39.333 156 -59 250 -59c151.333 0 271.333 48.333 360 145c88 97.333 132 235 132 413zM823 1272c-150 0 -269.667 -49.332 -359 -147.999s-134 -237.334 -134 -416.001c0 -178 49 -316.333 147 -415
l596 917c-74 41.333 -157.333 62 -250 62zM823 1454c131.333 0 251 -26 359 -78l80 123h141l-121 -184c181.333 -135.333 272 -335.333 272 -600c0 -221.333 -66 -399.333 -198 -534s-309.667 -201.667 -533 -201c-134 0 -253.333 25 -358 75l-78 -121h-141l116 183
c-181.333 132.667 -272 332 -272 598c0 223.333 66.667 402.333 200 537s311 202 533 202z" />
    <glyph glyph-name="Ugrave" unicode="&#xd9;" horiz-adv-x="1480" 
d="M743 1763l134 -231h-160l-172 231h198zM1325 1434l0.00195312 -920.001c0 -168 -54 -299 -162 -393s-250 -141 -426 -141s-317 48.333 -423 145s-158.667 226.334 -158 389.001v920h227v-928c0 -106.667 33.667 -190.667 101 -252s152.666 -92 255.999 -92
s188.666 30.333 255.999 91s101.333 145 102 253v928h227z" />
    <glyph glyph-name="Uacute" unicode="&#xda;" horiz-adv-x="1480" 
d="M1014 1765l-187 -233h-157l145 233h199zM1325 1434l0.00195312 -920.001c0 -168 -54 -299 -162 -393s-250 -141 -426 -141s-317 48.333 -423 145s-158.667 226.334 -158 389.001v920h227v-928c0 -106.667 33.667 -190.667 101 -252s152.666 -92 255.999 -92
s188.666 30.333 255.999 91s101.333 145 102 253v928h227z" />
    <glyph glyph-name="Ucircumflex" unicode="&#xdb;" horiz-adv-x="1480" 
d="M1075 1532h-180l-143 156l-146 -156h-180l227 233h195zM1325 1434l0.00195312 -920.001c0 -168 -54 -299 -162 -393s-250 -141 -426 -141s-317 48.333 -423 145s-158.667 226.334 -158 389.001v920h227v-928c0 -106.667 33.667 -190.667 101 -252
s152.666 -92 255.999 -92s188.666 30.333 255.999 91s101.333 145 102 253v928h227z" />
    <glyph glyph-name="Udieresis" unicode="&#xdc;" horiz-adv-x="1480" 
d="M963 1759c70.667 0 106 -33 106 -99s-35.333 -99 -106 -99c-32.667 0.666992 -58 9.66699 -76 27s-27 41.333 -27 72s9 54.667 27 72s43.333 26.333 76 27zM516 1561c-70.667 0 -106 33 -106 99s35 99 105 99s105.333 -33.333 106 -100
c0.666992 -65.333 -34.333 -98 -105 -98zM1325 1434l0.00195312 -920.001c0 -168 -54 -299 -162 -393s-250 -141 -426 -141s-317 48.333 -423 145s-158.667 226.334 -158 389.001v920h227v-928c0 -106.667 33.667 -190.667 101 -252s152.666 -92 255.999 -92
s188.666 30.333 255.999 91s101.333 145 102 253v928h227z" />
    <glyph glyph-name="Yacute" unicode="&#xdd;" horiz-adv-x="1310" 
d="M911 1765l-186 -233h-158l146 233h198zM770 0h-227v561l-516 873h235l393 -682l394 682h235l-514 -871v-563z" />
    <glyph glyph-name="Thorn" unicode="&#xde;" horiz-adv-x="1409" 
d="M416 459l444 0.000976562c74.667 0 134 25 178 75c44 49.333 66 113.333 66 192s-22.667 143.667 -68 195s-104 76.666 -176 75.999h-444v-538zM416 1174h488.999c135.333 0 242.333 -43.333 321 -130s118 -192 118 -316c0 -124.667 -39.333 -230 -118 -316
c-77.333 -86 -183.666 -129 -318.999 -129h-491v-283h-228v1434h228v-260z" />
    <glyph glyph-name="germandbls" unicode="&#xdf;" horiz-adv-x="1230" 
d="M602 1454c133.333 0 236.001 -30.668 308.001 -92.001s108 -142 108 -242c0 -54.667 -11.333 -101.667 -34 -141s-45.334 -75 -68.001 -107s-34 -65.667 -34 -101c0 -36 10.667 -69 32 -99s47 -56.333 77 -79s60 -47 90 -73c30 -25.333 55.667 -60 77 -104
s32 -94 32 -150c0 -98 -31.667 -176 -95 -234s-152.333 -87 -267 -87s-218.667 17 -312 51l27 164c76.667 -32.667 150.667 -49 222 -49s124.333 15.667 159 47c34 32 51 71.333 51 118s-10 85.667 -30 117s-44 58 -72 80l-83 67c-68 55.333 -102 125.333 -102 210
c0 50.667 23 108 69 172s69 124 69 180s-19 101 -57 135c-36.667 34 -89 51 -157 51s-127 -26.333 -177 -79s-75 -124.667 -75 -216v-993h-210v1001c0 144.667 41.667 256.334 125 335.001c84 78.667 193 118 327 118z" />
    <glyph glyph-name="agrave" unicode="&#xe0;" horiz-adv-x="1208" 
d="M397 1497h199l133 -303h-160zM510 141c91.333 0 166.667 22.333 226 67s89 105 89 181v94c-94 9.33301 -177.333 14.333 -250 15c-192.667 0 -288.667 -61.667 -288 -185c0 -114.667 74.333 -172 223 -172zM459.001 -16c-259.333 0 -388.999 110.665 -388.999 331.998
c0 113.333 42.333 195.333 127 246c84.667 50 206 75 364 75c61.333 0 149.333 -4.66699 264 -14v102c0 74 -22 124.667 -66 152c-44.667 27.333 -119 41 -223 41s-222 -18.667 -354 -56l-30 160c138.667 39.333 284 59 436 59c152 0.666992 265 -25 339 -77
c73.333 -52 109.666 -143.667 108.999 -275v-500c0 -45.333 22 -67.666 66 -66.999c13.333 0 32.333 2 57 6l12 -150c-70 -17.333 -128.333 -26 -175 -26s-85.667 13.667 -117 41s-49.333 63.333 -54 108c-69.333 -105.333 -191.333 -157.666 -366 -156.999z" />
    <glyph glyph-name="aacute" unicode="&#xe1;" horiz-adv-x="1208" 
d="M854 1497l-186 -303h-158l145 303h199zM510 141c91.333 0 166.667 22.333 226 67s89 105 89 181v94c-94 9.33301 -177.333 14.333 -250 15c-192.667 0 -288.667 -61.667 -288 -185c0 -114.667 74.333 -172 223 -172zM459.001 -16
c-259.333 0 -388.999 110.665 -388.999 331.998c0 113.333 42.333 195.333 127 246c84.667 50 206 75 364 75c61.333 0 149.333 -4.66699 264 -14v102c0 74 -22 124.667 -66 152c-44.667 27.333 -119 41 -223 41s-222 -18.667 -354 -56l-30 160
c138.667 39.333 284 59 436 59c152 0.666992 265 -25 339 -77c73.333 -52 109.666 -143.667 108.999 -275v-500c0 -45.333 22 -67.666 66 -66.999c13.333 0 32.333 2 57 6l12 -150c-70 -17.333 -128.333 -26 -175 -26s-85.667 13.667 -117 41s-49.333 63.333 -54 108
c-69.333 -105.333 -191.333 -157.666 -366 -156.999z" />
    <glyph glyph-name="acircumflex" unicode="&#xe2;" horiz-adv-x="1208" 
d="M938 1194h-180l-144 217l-145 -217h-180l227 305h195zM510 141c91.333 0 166.667 22.333 226 67s89 105 89 181v94c-94 9.33301 -177.333 14.333 -250 15c-192.667 0 -288.667 -61.667 -288 -185c0 -114.667 74.333 -172 223 -172zM459.001 -16
c-259.333 0 -388.999 110.665 -388.999 331.998c0 113.333 42.333 195.333 127 246c84.667 50 206 75 364 75c61.333 0 149.333 -4.66699 264 -14v102c0 74 -22 124.667 -66 152c-44.667 27.333 -119 41 -223 41s-222 -18.667 -354 -56l-30 160
c138.667 39.333 284 59 436 59c152 0.666992 265 -25 339 -77c73.333 -52 109.666 -143.667 108.999 -275v-500c0 -45.333 22 -67.666 66 -66.999c13.333 0 32.333 2 57 6l12 -150c-70 -17.333 -128.333 -26 -175 -26s-85.667 13.667 -117 41s-49.333 63.333 -54 108
c-69.333 -105.333 -191.333 -157.666 -366 -156.999z" />
    <glyph glyph-name="atilde" unicode="&#xe3;" horiz-adv-x="1208" 
d="M723 1225c-27.333 0 -73.6699 14.333 -139.003 43c-62.667 31.333 -105.667 47 -129 47c-39.333 0 -72.333 -24.667 -99 -74l-73 31c36.667 116 101.334 174 194.001 174c32.667 0 78.334 -14.667 137.001 -44s105.334 -44 140.001 -44s65.334 24.667 92.001 74l74 -33
c-36.667 -116 -102.334 -174 -197.001 -174zM509.996 141c91.333 0 166.667 22.333 226 67s89 105 89 181v94c-94 9.33301 -177.333 14.333 -250 15c-192.667 0 -288.667 -61.667 -288 -185c0 -114.667 74.333 -172 223 -172zM458.997 -16
c-259.333 0 -388.999 110.665 -388.999 331.998c0 113.333 42.333 195.333 127 246c84.667 50 206 75 364 75c61.333 0 149.333 -4.66699 264 -14v102c0 74 -22 124.667 -66 152c-44.667 27.333 -119 41 -223 41s-222 -18.667 -354 -56l-30 160
c138.667 39.333 284 59 436 59c152 0.666992 265 -25 339 -77c73.333 -52 109.666 -143.667 108.999 -275v-500c0 -45.333 22 -67.666 66 -66.999c13.333 0 32.333 2 57 6l12 -150c-70 -17.333 -128.333 -26 -175 -26s-85.667 13.667 -117 41s-49.333 63.333 -54 108
c-69.333 -105.333 -191.333 -157.666 -366 -156.999z" />
    <glyph glyph-name="adieresis" unicode="&#xe4;" horiz-adv-x="1208" 
d="M823 1430c74 0 111 -35 111 -105c0 -66.667 -37 -100 -111 -100s-110.667 33.333 -110 100c-0.666992 70 36 105 110 105zM373 1430c76.667 0 114.667 -35 114 -105c0 -66.667 -38 -100 -114 -100c-34 0.666992 -60.667 9.66699 -80 27s-29 42 -29 74
s9.66699 57.333 29 76s46 28 80 28zM510 141c91.333 0 166.667 22.333 226 67s89 105 89 181v94c-94 9.33301 -177.333 14.333 -250 15c-192.667 0 -288.667 -61.667 -288 -185c0 -114.667 74.333 -172 223 -172zM459.001 -16c-259.333 0 -388.999 110.665 -388.999 331.998
c0 113.333 42.333 195.333 127 246c84.667 50 206 75 364 75c61.333 0 149.333 -4.66699 264 -14v102c0 74 -22 124.667 -66 152c-44.667 27.333 -119 41 -223 41s-222 -18.667 -354 -56l-30 160c138.667 39.333 284 59 436 59c152 0.666992 265 -25 339 -77
c73.333 -52 109.666 -143.667 108.999 -275v-500c0 -45.333 22 -67.666 66 -66.999c13.333 0 32.333 2 57 6l12 -150c-70 -17.333 -128.333 -26 -175 -26s-85.667 13.667 -117 41s-49.333 63.333 -54 108c-69.333 -105.333 -191.333 -157.666 -366 -156.999z" />
    <glyph glyph-name="aring" unicode="&#xe5;" horiz-adv-x="1208" 
d="M711 1389c0 38 -10.333 65.667 -31 83s-45.667 26.333 -75 27c-29.333 -0.666992 -54 -9.66699 -74 -27c-19.333 -17.333 -29 -45 -29 -83s10 -65.667 30 -83s44.333 -26 73 -26c29.333 0 54.333 8.66699 75 26s31 45 31 83zM605 1591
c62 0 113.668 -17.332 155.001 -51.999s62.333 -84.334 63 -149.001c0 -65.333 -20.333 -115.333 -61 -150c-41.333 -34.667 -93.333 -52 -156 -52s-114.334 17.333 -155.001 52s-61 84.667 -61 150s20 115 60 149c41.333 34.667 93 52 155 52zM510.001 141.001
c91.333 0 166.667 22.333 226 67s89 105 89 181v94c-94 9.33301 -177.333 14.333 -250 15c-192.667 0 -288.667 -61.667 -288 -185c0 -114.667 74.333 -172 223 -172zM459.002 -15.999c-259.333 0 -388.999 110.665 -388.999 331.998c0 113.333 42.333 195.333 127 246
c84.667 50 206 75 364 75c61.333 0 149.333 -4.66699 264 -14v102c0 74 -22 124.667 -66 152c-44.667 27.333 -119 41 -223 41s-222 -18.667 -354 -56l-30 160c138.667 39.333 284 59 436 59c152 0.666992 265 -25 339 -77c73.333 -52 109.666 -143.667 108.999 -275v-500
c0 -45.333 22 -67.666 66 -66.999c13.333 0 32.333 2 57 6l12 -150c-70 -17.333 -128.333 -26 -175 -26s-85.667 13.667 -117 41s-49.333 63.333 -54 108c-69.333 -105.333 -191.333 -157.666 -366 -156.999z" />
    <glyph glyph-name="ae" unicode="&#xe6;" horiz-adv-x="1904" 
d="M1329 915c-191.333 0 -299 -102.333 -323 -307h612c0 92.667 -23.667 167 -71 223s-120 84 -218 84zM510 141c73.333 0 136.667 14.332 190 42.999s89.666 69 108.999 121c-18 57.333 -27.667 118 -29 182c-69.333 6.66699 -137.666 10.334 -204.999 11.001
c-192.667 0 -288.667 -61.667 -288 -185c0 -114.667 74.333 -172 223 -172zM614.001 1081c169.333 0 287 -38.666 353 -115.999c95.333 78 217.666 117 366.999 117s268 -46.333 356 -139c87.333 -92 131 -217.333 131 -376c0 -61.333 -2 -98 -6 -110h-814
c2 -96.667 37.667 -171.667 107 -225s161.666 -80 276.999 -80s232.666 27 351.999 81l39 -157c-135.333 -61.333 -274.666 -92 -417.999 -92c-233.333 0 -396 65.333 -488 196c-31.333 -53.333 -80.666 -99.333 -147.999 -138s-159 -58 -275 -58s-208 27 -276 81
c-67.333 54 -101 137.667 -101 251s42.333 195.333 127 246c84.667 50 206 75 364 75c60 0 135 -4 225 -12c9.33301 57.333 21 103.666 35 138.999c-8 58.667 -33.667 99 -77 121s-114.666 33 -213.999 33s-215.333 -18.667 -348 -56l-30 160
c138.667 39.333 292.667 59 462 59z" />
    <glyph glyph-name="ccedilla" unicode="&#xe7;" horiz-adv-x="1062" 
d="M664 1083c128.667 0 237.67 -23.001 327.003 -69.001l-49 -146c-83.333 32.667 -166 49.334 -248 50.001c-128.667 0 -226.667 -35.333 -294 -106s-101 -164 -101 -280s34 -209 102 -279s168.333 -105.333 301 -106c70.667 0 154.667 18.667 252 56l37 -154
c-96.667 -42 -202.334 -64.333 -317.001 -67l-33 -103c113.333 4 170 -42.333 170 -139c0 -102.667 -70.333 -154 -211 -154c-64 0 -119.333 11 -166 33l17 86c35.333 -16.667 81.666 -25 138.999 -25s86 19.333 86 58c0 50.667 -43.667 69.667 -131 57l-35 47l51 148
c-146 18 -262.333 74.333 -349 169c-86.667 95.333 -130 224.333 -130 387s53.667 292.667 161 390s247.666 146.333 420.999 147z" />
    <glyph glyph-name="egrave" unicode="&#xe8;" horiz-adv-x="1206" 
d="M414 1483h198l133 -303h-159zM631 915c-188.667 0 -296 -102.333 -322 -307h611c0 92.667 -23.667 167 -71 223s-120 84 -218 84zM659 -16c-186 0 -329.003 47.667 -429.003 143s-149.333 227.333 -148 396c0 168.667 48.667 304 146 406s227.333 153 390 153
s287.334 -46.333 374.001 -139c86.667 -92 130 -217.333 130 -376c0 -61.333 -2 -98 -6 -110h-813c2 -100 37 -176 105 -228c68 -51.333 160.333 -77 277 -77s234.334 27 353.001 81l39 -157c-135.333 -61.333 -274.666 -92 -417.999 -92z" />
    <glyph glyph-name="eacute" unicode="&#xe9;" horiz-adv-x="1206" 
d="M817 1497l-186 -303h-158l145 303h199zM631 915c-188.667 0 -296 -102.333 -322 -307h611c0 92.667 -23.667 167 -71 223s-120 84 -218 84zM659 -16c-186 0 -329.003 47.667 -429.003 143s-149.333 227.333 -148 396c0 168.667 48.667 304 146 406s227.333 153 390 153
s287.334 -46.333 374.001 -139c86.667 -92 130 -217.333 130 -376c0 -61.333 -2 -98 -6 -110h-813c2 -100 37 -176 105 -228c68 -51.333 160.333 -77 277 -77s234.334 27 353.001 81l39 -157c-135.333 -61.333 -274.666 -92 -417.999 -92z" />
    <glyph glyph-name="ecircumflex" unicode="&#xea;" horiz-adv-x="1206" 
d="M944 1180h-180l-143 217l-146 -217h-180l227 305h195zM631 915c-188.667 0 -296 -102.333 -322 -307h611c0 92.667 -23.667 167 -71 223s-120 84 -218 84zM659 -16c-186 0 -329.003 47.667 -429.003 143s-149.333 227.333 -148 396c0 168.667 48.667 304 146 406
s227.333 153 390 153s287.334 -46.333 374.001 -139c86.667 -92 130 -217.333 130 -376c0 -61.333 -2 -98 -6 -110h-813c2 -100 37 -176 105 -228c68 -51.333 160.333 -77 277 -77s234.334 27 353.001 81l39 -157c-135.333 -61.333 -274.666 -92 -417.999 -92z" />
    <glyph glyph-name="edieresis" unicode="&#xeb;" horiz-adv-x="1206" 
d="M831 1415c74 0 111 -34 111 -102c0 -68.667 -37 -103 -111 -103s-110.667 33.667 -110 101c-0.666992 69.333 36 104 110 104zM381 1415c76.667 0 115 -34 115 -102s-38.333 -102.333 -115 -103c-34 0 -60.667 9 -80 27s-29 43 -29 75s9.66699 57.333 29 76
s46 27.667 80 27zM631 915c-188.667 0 -296 -102.333 -322 -307h611c0 92.667 -23.667 167 -71 223s-120 84 -218 84zM659 -16c-186 0 -329.003 47.667 -429.003 143s-149.333 227.333 -148 396c0 168.667 48.667 304 146 406s227.333 153 390 153
s287.334 -46.333 374.001 -139c86.667 -92 130 -217.333 130 -376c0 -61.333 -2 -98 -6 -110h-813c2 -100 37 -176 105 -228c68 -51.333 160.333 -77 277 -77s234.334 27 353.001 81l39 -157c-135.333 -61.333 -274.666 -92 -417.999 -92z" />
    <glyph glyph-name="igrave" unicode="&#xec;" horiz-adv-x="550" 
d="M70 1497h198l133 -303h-159zM395 1065v-1065h-211v913h-131v152h342z" />
    <glyph glyph-name="iacute" unicode="&#xed;" horiz-adv-x="550" 
d="M537 1497l-187 -303h-157l145 303h199zM395 1065v-1065h-211v913h-131v152h342z" />
    <glyph glyph-name="icircumflex" unicode="&#xee;" horiz-adv-x="550" 
d="M598 1194h-180l-144 217l-145 -217h-180l227 305h195zM395 1065v-1065h-211v913h-131v152h342z" />
    <glyph glyph-name="idieresis" unicode="&#xef;" horiz-adv-x="550" 
d="M485 1430c74 0 111 -35 111 -105c0 -66.667 -37 -100 -111 -100s-110.667 33.333 -110 100c-0.666992 70 36 105 110 105zM35 1430c76.667 0 115 -35 115 -105c0 -66.667 -38.333 -100 -115 -100c-34 0.666992 -60.667 9.66699 -80 27s-29 42 -29 74
s9.66699 57.333 29 76s46 28 80 28zM395 1065v-1065h-211v913h-131v152h342z" />
    <glyph glyph-name="eth" unicode="&#xf0;" horiz-adv-x="1234" 
d="M922 493c0 104.667 -26.667 186.331 -80 244.998s-129.333 88.334 -228 89.001c-98.667 0 -174.667 -31 -228 -93c-52.667 -61.333 -79 -142 -79 -242s25.667 -182.333 77 -247c50.667 -64.667 126.667 -97 228 -97s178.333 31.333 231 94s79 146.334 79 251.001z
M1145 593.997c0 -203.333 -46.668 -356.001 -140.001 -458.001c-94 -101.333 -224.333 -152 -391 -152s-296 46.333 -388 139s-138 216.334 -138 371.001s45.667 276.334 137 365.001c91.333 89.333 210.333 134 357 134s261.334 -51 344.001 -153
c-33.333 169.333 -116.666 320.666 -249.999 453.999l-191 -129l-47 66l178 123c-69.333 62.667 -150.333 122 -243 178l133 86c87.333 -50.667 168.666 -108 243.999 -172l170 117l47 -70l-156 -107c222.667 -222.667 334 -486.667 334 -792z" />
    <glyph glyph-name="ntilde" unicode="&#xf1;" horiz-adv-x="1255" 
d="M741 1225c-27.333 0 -73.668 14.333 -139.001 43c-62.667 31.333 -105.667 47 -129 47c-39.333 0 -72 -24.667 -98 -74l-74 31c36.667 116 101.667 174 195 174c32.667 0 78.334 -14.667 137.001 -44s105.334 -44 140.001 -44s65 24.667 91 74l74 -33
c-36.667 -116 -102.334 -174 -197.001 -174zM900.998 651c0.666992 178 -85.001 267 -257.001 267c-88 0 -157.667 -34 -209 -102s-77 -149 -77 -243v-573h-211v1065h185l14 -180c80.667 130.667 206.334 196 377.001 196c259.333 0 389 -136.333 389 -409v-672h-211v651z
" />
    <glyph glyph-name="ograve" unicode="&#xf2;" horiz-adv-x="1275" 
d="M444 1497h199l133 -303h-160zM977 532c0 121.333 -30 215.333 -90 282s-142.667 100.334 -248 101.001c-105.333 0 -188.333 -33 -249 -99c-60.667 -65.333 -91 -159.333 -91 -282s30.333 -217.334 91 -284.001s143.667 -100 249 -100s188 33.333 248 100
s90 160.667 90 282zM638 1083c168 0 302.668 -49 404.001 -147c101.333 -98.667 152 -233.334 152 -404.001s-51 -305 -153 -403s-236.333 -147 -403 -147s-301.334 49 -404.001 147c-102 98 -152.667 232.333 -152 403c0 170.667 50.667 305.334 152 404.001
c102 98 236.667 147 404 147z" />
    <glyph glyph-name="oacute" unicode="&#xf3;" horiz-adv-x="1275" 
d="M823 1497l-186 -303h-158l146 303h198zM977 532c0 121.333 -30 215.333 -90 282s-142.667 100.334 -248 101.001c-105.333 0 -188.333 -33 -249 -99c-60.667 -65.333 -91 -159.333 -91 -282s30.333 -217.334 91 -284.001s143.667 -100 249 -100s188 33.333 248 100
s90 160.667 90 282zM638 1083c168 0 302.668 -49 404.001 -147c101.333 -98.667 152 -233.334 152 -404.001s-51 -305 -153 -403s-236.333 -147 -403 -147s-301.334 49 -404.001 147c-102 98 -152.667 232.333 -152 403c0 170.667 50.667 305.334 152 404.001
c102 98 236.667 147 404 147z" />
    <glyph glyph-name="ocircumflex" unicode="&#xf4;" horiz-adv-x="1275" 
d="M975 1194h-180l-144 217l-145 -217h-180l227 305h195zM977 532c0 121.333 -30 215.333 -90 282s-142.667 100.334 -248 101.001c-105.333 0 -188.333 -33 -249 -99c-60.667 -65.333 -91 -159.333 -91 -282s30.333 -217.334 91 -284.001s143.667 -100 249 -100
s188 33.333 248 100s90 160.667 90 282zM638 1083c168 0 302.668 -49 404.001 -147c101.333 -98.667 152 -233.334 152 -404.001s-51 -305 -153 -403s-236.333 -147 -403 -147s-301.334 49 -404.001 147c-102 98 -152.667 232.333 -152 403
c0 170.667 50.667 305.334 152 404.001c102 98 236.667 147 404 147z" />
    <glyph glyph-name="otilde" unicode="&#xf5;" horiz-adv-x="1275" 
d="M764 1225c-27.333 0 -73.668 14.333 -139.001 43c-62.667 31.333 -105.667 47 -129 47c-39.333 0 -72.333 -24.667 -99 -74l-73 31c36.667 116 101.334 174 194.001 174c32.667 0 78.334 -14.667 137.001 -44c59.333 -29.333 106.333 -44 141 -44s65 24.667 91 74l74 -33
c-36.667 -116 -102.334 -174 -197.001 -174zM976.998 532c0 121.333 -30 215.333 -90 282s-142.667 100.334 -248 101.001c-105.333 0 -188.333 -33 -249 -99c-60.667 -65.333 -91 -159.333 -91 -282s30.333 -217.334 91 -284.001s143.667 -100 249 -100s188 33.333 248 100
s90 160.667 90 282zM637.998 1083c168 0 302.668 -49 404.001 -147c101.333 -98.667 152 -233.334 152 -404.001s-51 -305 -153 -403s-236.333 -147 -403 -147s-301.334 49 -404.001 147c-102 98 -152.667 232.333 -152 403c0 170.667 50.667 305.334 152 404.001
c102 98 236.667 147 404 147z" />
    <glyph glyph-name="odieresis" unicode="&#xf6;" horiz-adv-x="1275" 
d="M862 1430c74 0 111 -35 111 -105c0 -66.667 -37 -100 -111 -100s-110.667 33.333 -110 100c-0.666992 70 36 105 110 105zM412 1430c76.667 0 114.667 -35 114 -105c0 -66.667 -38 -100 -114 -100c-34 0.666992 -60.667 9.66699 -80 27s-29 42 -29 74
s9.66699 57.333 29 76s46 28 80 28zM977 532c0 121.333 -30 215.333 -90 282s-142.667 100.334 -248 101.001c-105.333 0 -188.333 -33 -249 -99c-60.667 -65.333 -91 -159.333 -91 -282s30.333 -217.334 91 -284.001s143.667 -100 249 -100s188 33.333 248 100
s90 160.667 90 282zM638 1083c168 0 302.668 -49 404.001 -147c101.333 -98.667 152 -233.334 152 -404.001s-51 -305 -153 -403s-236.333 -147 -403 -147s-301.334 49 -404.001 147c-102 98 -152.667 232.333 -152 403c0 170.667 50.667 305.334 152 404.001
c102 98 236.667 147 404 147z" />
    <glyph glyph-name="divide" unicode="&#xf7;" horiz-adv-x="1196" 
d="M601 1137c32 0 58 -9 78 -27s30 -44 30 -78s-10 -60.333 -30 -79c-20 -18 -46 -27 -78 -27s-58.333 9.33301 -79 28c-20 18.667 -30 45 -30 79c0 33.333 10 59 30 77c20.667 18 47 27 79 27zM601 418c32 0 58 -9 78 -27s30 -43.667 30 -77s-10 -59.333 -30 -78
s-46.333 -27.667 -79 -27c-32.667 0 -59 9.33301 -79 28c-19.333 18 -29 43.667 -29 77s10 59 30 77c20.667 18 47 27 79 27zM1061 737v-139h-926v139h926z" />
    <glyph glyph-name="oslash" unicode="&#xf8;" horiz-adv-x="1275" 
d="M641 915c-106.667 0 -190.334 -33 -251.001 -99c-60.667 -66.667 -91 -160.667 -91 -282s28 -214 84 -278l412 629c-45.333 20 -96.666 30 -153.999 30zM977 542c0 128 -37 226 -111 294l-415 -637c52 -32.667 115.333 -49 190 -49c104 0 186 33.333 246 100
s90 164 90 292zM639 1083c92.667 0 177.333 -16.334 254 -49.001l65 103h103l-92 -144c150 -95.333 225 -249 225 -461c0 -170.667 -51 -305 -153 -403s-236 -147 -402 -147c-108 0 -204.333 21 -289 63l-69 -108h-105l100 155c-130 100 -194.667 246.667 -194 440
c0 170.667 50.667 305.334 152 404.001c102 98 237 147 405 147z" />
    <glyph glyph-name="ugrave" unicode="&#xf9;" horiz-adv-x="1241" 
d="M418 1497h198l134 -303h-160zM340 414c0 -178 86 -267.001 258 -267.001c88 -0.666992 157.333 33 208 101c51.333 68 77 149.333 77 244v573h211v-1065h-185l-16 180c-80.667 -131.333 -205.667 -196.666 -375 -195.999c-259.333 0 -389 136.333 -389 409v672h211v-651z
" />
    <glyph glyph-name="uacute" unicode="&#xfa;" horiz-adv-x="1241" 
d="M846 1497l-187 -303h-157l145 303h199zM340 414c0 -178 86 -267.001 258 -267.001c88 -0.666992 157.333 33 208 101c51.333 68 77 149.333 77 244v573h211v-1065h-185l-16 180c-80.667 -131.333 -205.667 -196.666 -375 -195.999c-259.333 0 -389 136.333 -389 409v672
h211v-651z" />
    <glyph glyph-name="ucircumflex" unicode="&#xfb;" horiz-adv-x="1241" 
d="M948 1194h-180l-143 217l-146 -217h-180l227 305h195zM340 414c0 -178 86 -267.001 258 -267.001c88 -0.666992 157.333 33 208 101c51.333 68 77 149.333 77 244v573h211v-1065h-185l-16 180c-80.667 -131.333 -205.667 -196.666 -375 -195.999
c-259.333 0 -389 136.333 -389 409v672h211v-651z" />
    <glyph glyph-name="udieresis" unicode="&#xfc;" horiz-adv-x="1241" 
d="M725 1325c0 70 37 105 111 105s110.667 -35 110 -105c0 -66.667 -36.667 -100 -110 -100s-110.333 33.333 -111 100zM385 1430c76.667 0 115 -35 115 -105c0 -66.667 -38.333 -100 -115 -100c-34 0.666992 -60.667 9.66699 -80 27s-29 42 -29 74s9.66699 57.333 29 76
s46 28 80 28zM340 414c0 -178 86 -267.001 258 -267.001c88 -0.666992 157.333 33 208 101c51.333 68 77 149.333 77 244v573h211v-1065h-185l-16 180c-80.667 -131.333 -205.667 -196.666 -375 -195.999c-259.333 0 -389 136.333 -389 409v672h211v-651z" />
    <glyph glyph-name="yacute" unicode="&#xfd;" horiz-adv-x="1202" 
d="M836 1497l-187 -303h-157l145 303h199zM366 -356c-74.667 0 -149 6.00098 -223 18.001l7 162c68 -10.667 120.333 -16.334 157 -17.001c83.333 0 145 50.667 185 152l16 41l-451 1065h236l328 -829l303 829h219l-432 -1131c-45.333 -116 -95.333 -193.333 -150 -232
c-55.333 -38.667 -120.333 -58 -195 -58z" />
    <glyph glyph-name="thorn" unicode="&#xfe;" horiz-adv-x="1308" 
d="M694 147c97.333 -0.666992 174.332 33.001 230.999 101.001s85 162.667 85 284s-28.667 216 -86 284s-134.666 102 -231.999 102s-177 -33.333 -239 -100c-63.333 -66.667 -95 -161.334 -95 -284.001c0 -122 31.333 -217 94 -285c64 -68 144.667 -102 242 -102z
M726.999 1083c166.667 0.666992 291.666 -51 374.999 -155s125 -235.333 125 -394s-42.333 -290.667 -127 -396c-84.667 -104.667 -205 -156.667 -361 -156c-177.333 0 -303.666 59.333 -378.999 178v-508h-210v1782h210v-527c78 117.333 200.333 176 367 176z" />
    <glyph glyph-name="ydieresis" unicode="&#xff;" horiz-adv-x="1202" 
d="M702 1325c0 70 37 105 111 105s111 -35 111 -105c0 -66.667 -37 -100 -111 -100s-111 33.333 -111 100zM362 1430c76.667 0 115 -35 115 -105c0 -66.667 -38.333 -100 -115 -100c-34.667 0.666992 -61.334 9.66699 -80.001 27s-28 42 -28 74s9.33301 57.333 28 76
s45.334 28 80.001 28zM366 -356c-74.667 0 -149 6.00098 -223 18.001l7 162c68 -10.667 120.333 -16.334 157 -17.001c83.333 0 145 50.667 185 152l16 41l-451 1065h236l328 -829l303 829h219l-432 -1131c-45.333 -116 -95.333 -193.333 -150 -232
c-55.333 -38.667 -120.333 -58 -195 -58z" />
    <glyph glyph-name="Amacron" unicode="&#x100;" horiz-adv-x="1447" 
d="M1030 1729v-125h-622v125h622zM719 1243l-277 -713h553l-274 713h-2zM868 1438l568 -1438h-236l-137 354h-688l-135 -354h-228l568 1438h288z" />
    <glyph glyph-name="amacron" unicode="&#x101;" horiz-adv-x="1208" 
d="M911 1391v-125h-622v125h622zM510 141c91.333 0 166.667 22.333 226 67s89 105 89 181v94c-94 9.33301 -177.333 14.333 -250 15c-192.667 0 -288.667 -61.667 -288 -185c0 -114.667 74.333 -172 223 -172zM459.001 -16c-259.333 0 -388.999 110.665 -388.999 331.998
c0 113.333 42.333 195.333 127 246c84.667 50 206 75 364 75c61.333 0 149.333 -4.66699 264 -14v102c0 74 -22 124.667 -66 152c-44.667 27.333 -119 41 -223 41s-222 -18.667 -354 -56l-30 160c138.667 39.333 284 59 436 59c152 0.666992 265 -25 339 -77
c73.333 -52 109.666 -143.667 108.999 -275v-500c0 -45.333 22 -67.666 66 -66.999c13.333 0 32.333 2 57 6l12 -150c-70 -17.333 -128.333 -26 -175 -26s-85.667 13.667 -117 41s-49.333 63.333 -54 108c-69.333 -105.333 -191.333 -157.666 -366 -156.999z" />
    <glyph glyph-name="Abreve" unicode="&#x102;" horiz-adv-x="1447" 
d="M716 1548c-172 0 -266.667 73.667 -284 221l127 9c18 -80.667 71 -121 159 -121s140 40.333 156 121l127 -9c-18 -147.333 -113 -221 -285 -221zM719 1243l-277 -713h553l-274 713h-2zM868 1438l568 -1438h-236l-137 354h-688l-135 -354h-228l568 1438h288z" />
    <glyph glyph-name="abreve" unicode="&#x103;" horiz-adv-x="1208" 
d="M598 1319c46.667 0.666992 81.668 12.333 105.001 35s41 59.334 53 110.001l127 -14c-12 -83.333 -41.333 -144 -88 -182c-46.667 -38.667 -112.334 -58 -197.001 -58s-150.334 19.333 -197.001 58s-76 99.334 -88 182.001l127 14c12 -50.667 30 -87.334 54 -110.001
c22.667 -22.667 57.334 -34.334 104.001 -35.001zM510.001 140.999c91.333 0 166.667 22.333 226 67s89 105 89 181v94c-94 9.33301 -177.333 14.333 -250 15c-192.667 0 -288.667 -61.667 -288 -185c0 -114.667 74.333 -172 223 -172zM459.002 -16.001
c-259.333 0 -388.999 110.665 -388.999 331.998c0 113.333 42.333 195.333 127 246c84.667 50 206 75 364 75c61.333 0 149.333 -4.66699 264 -14v102c0 74 -22 124.667 -66 152c-44.667 27.333 -119 41 -223 41s-222 -18.667 -354 -56l-30 160
c138.667 39.333 284 59 436 59c152 0.666992 265 -25 339 -77c73.333 -52 109.666 -143.667 108.999 -275v-500c0 -45.333 22 -67.666 66 -66.999c13.333 0 32.333 2 57 6l12 -150c-70 -17.333 -128.333 -26 -175 -26s-85.667 13.667 -117 41s-49.333 63.333 -54 108
c-69.333 -105.333 -191.333 -157.666 -366 -156.999z" />
    <glyph glyph-name="Aogonek" unicode="&#x104;" horiz-adv-x="1447" 
d="M719 1243l-277 -713h553l-274 713h-2zM1288 -164c0 -25.333 7.33398 -45.333 22.001 -60s32.667 -22 54 -22s46 4.33301 74 13l12 -109c-35.333 -16.667 -77.333 -25 -126 -25s-89.334 13.667 -122.001 41s-49 68.333 -49 123c0 78 37 145.667 111 203h-64l-137 354h-688
l-135 -354h-228l568 1438h288l568 -1438h-39c-72.667 -45.333 -109 -100 -109 -164z" />
    <glyph glyph-name="aogonek" unicode="&#x105;" horiz-adv-x="1208" 
d="M510 141c91.333 0 166.667 22.333 226 67s89 105 89 181v94c-94 9.33301 -177.333 14.333 -250 15c-192.667 0 -288.667 -61.667 -288 -185c0 -114.667 74.333 -172 223 -172zM459.001 -16c-259.333 0 -388.997 110.666 -388.997 331.999
c0 113.333 42.333 195.333 127 246c84.667 50 206 75 364 75c61.333 0 149.333 -4.66699 264 -14v102c0 74 -22 124.667 -66 152c-44.667 27.333 -119 41 -223 41s-222 -18.667 -354 -56l-30 160c138.667 39.333 284 59 436 59c152 0.666992 265 -25 339 -77
c73.333 -52 109.666 -143.667 108.999 -275v-500c0 -45.333 22 -67.666 66 -66.999c13.333 0 32.333 2 57 6l12 -150c-2 0 -12.333 -2.33301 -31 -7s-34.667 -8.33398 -48 -11.001c-72.667 -45.333 -109 -100 -109 -164c0 -25.333 7.33301 -45.333 22 -60
c14 -14.667 31.667 -22 53 -22s46.333 4.33301 75 13l12 -109c-35.333 -16.667 -77.333 -25 -126 -25s-89.334 13.667 -122.001 41s-49 68.333 -49 123c0 76.667 36 143.667 108 201c-80.667 15.333 -124.334 63 -131.001 143
c-69.333 -105.333 -191.333 -157.666 -366 -156.999z" />
    <glyph glyph-name="Cacute" unicode="&#x106;" horiz-adv-x="1398" 
d="M1079 1765l-186 -233h-158l146 233h198zM874 1454c164 0 305.999 -27.332 425.999 -81.999l-57 -168c-102.667 45.333 -211 68 -325 68c-184 0 -326.667 -51.333 -428 -154s-152 -237.334 -152 -404.001s50 -300.334 150 -401.001
c100 -101.333 240.333 -151.666 421 -150.999c118.667 0 236.334 23 353.001 69l45 -170c-130 -54.667 -277.667 -81.667 -443 -81c-226.667 0 -411 66 -553 198s-213 311.667 -213 539s72.333 407 217 539s331 198 559 198z" />
    <glyph glyph-name="cacute" unicode="&#x107;" horiz-adv-x="1062" 
d="M813 1485l-186 -303h-158l145 303h199zM664 1083c128.667 0 237.668 -23.002 327.001 -69.002l-49 -146c-83.333 32.667 -166 49.334 -248 50.001c-128.667 0 -226.667 -35.333 -294 -106s-101 -164 -101 -280s34 -209 102 -279s168.333 -105.333 301 -106
c70.667 0 154.667 18.667 252 56l37 -154c-104 -45.333 -212.333 -67.666 -325 -66.999c-173.333 0 -314 48.667 -422 146s-162 232 -162 404s53.667 306.667 161 404s247.666 146.333 420.999 147z" />
    <glyph glyph-name="Ccircumflex" unicode="&#x108;" horiz-adv-x="1398" 
d="M1141 1532h-180l-144 156l-145 -156h-180l227 233h194zM874 1454c164 0 305.999 -27.332 425.999 -81.999l-57 -168c-102.667 45.333 -211 68 -325 68c-184 0 -326.667 -51.333 -428 -154s-152 -237.334 -152 -404.001s50 -300.334 150 -401.001
c100 -101.333 240.333 -151.666 421 -150.999c118.667 0 236.334 23 353.001 69l45 -170c-130 -54.667 -277.667 -81.667 -443 -81c-226.667 0 -411 66 -553 198s-213 311.667 -213 539s72.333 407 217 539s331 198 559 198z" />
    <glyph glyph-name="ccircumflex" unicode="&#x109;" horiz-adv-x="1062" 
d="M936 1194h-180l-144 217l-145 -217h-180l227 305h195zM664 1083c128.667 0 237.668 -23.002 327.001 -69.002l-49 -146c-83.333 32.667 -166 49.334 -248 50.001c-128.667 0 -226.667 -35.333 -294 -106s-101 -164 -101 -280s34 -209 102 -279s168.333 -105.333 301 -106
c70.667 0 154.667 18.667 252 56l37 -154c-104 -45.333 -212.333 -67.666 -325 -66.999c-173.333 0 -314 48.667 -422 146s-162 232 -162 404s53.667 306.667 161 404s247.666 146.333 420.999 147z" />
    <glyph glyph-name="Cdotaccent" unicode="&#x10a;" horiz-adv-x="1398" 
d="M863 1759c70 0 105.334 -32.665 106.001 -97.998c0 -65.333 -35.667 -98 -107 -98c-32.667 -0.666992 -58.334 7.66602 -77.001 24.999s-27.667 41.666 -27 72.999c0 65.333 35 98 105 98zM874.001 1454c164 0 305.999 -27.332 425.999 -81.999l-57 -168
c-102.667 45.333 -211 68 -325 68c-184 0 -326.667 -51.333 -428 -154s-152 -237.334 -152 -404.001s50 -300.334 150 -401.001c100 -101.333 240.333 -151.666 421 -150.999c118.667 0 236.334 23 353.001 69l45 -170c-130 -54.667 -277.667 -81.667 -443 -81
c-226.667 0 -411 66 -553 198s-213 311.667 -213 539s72.333 407 217 539s331 198 559 198z" />
    <glyph glyph-name="cdotaccent" unicode="&#x10b;" horiz-adv-x="1062" 
d="M624 1225c-77.333 -0.666992 -116 33.667 -116 103s39 104 117 104s116.667 -34.333 116 -103c-0.666992 -69.333 -39.667 -104 -117 -104zM664 1083c128.667 0 237.668 -23.002 327.001 -69.002l-49 -146c-83.333 32.667 -166 49.334 -248 50.001
c-128.667 0 -226.667 -35.333 -294 -106s-101 -164 -101 -280s34 -209 102 -279s168.333 -105.333 301 -106c70.667 0 154.667 18.667 252 56l37 -154c-104 -45.333 -212.333 -67.666 -325 -66.999c-173.333 0 -314 48.667 -422 146s-162 232 -162 404
s53.667 306.667 161 404s247.666 146.333 420.999 147z" />
    <glyph glyph-name="Ccaron" unicode="&#x10c;" horiz-adv-x="1398" 
d="M1128 1765l-227 -233h-194l-228 233h180l146 -155l143 155h180zM874 1454c164 0 305.999 -27.332 425.999 -81.999l-57 -168c-102.667 45.333 -211 68 -325 68c-184 0 -326.667 -51.333 -428 -154s-152 -237.334 -152 -404.001s50 -300.334 150 -401.001
c100 -101.333 240.333 -151.666 421 -150.999c118.667 0 236.334 23 353.001 69l45 -170c-130 -54.667 -277.667 -81.667 -443 -81c-226.667 0 -411 66 -553 198s-213 311.667 -213 539s72.333 407 217 539s331 198 559 198z" />
    <glyph glyph-name="ccaron" unicode="&#x10d;" horiz-adv-x="1062" 
d="M944 1499l-227 -305h-195l-227 305h180l146 -217l143 217h180zM664 1083c128.667 0 237.668 -23.002 327.001 -69.002l-49 -146c-83.333 32.667 -166 49.334 -248 50.001c-128.667 0 -226.667 -35.333 -294 -106s-101 -164 -101 -280s34 -209 102 -279
s168.333 -105.333 301 -106c70.667 0 154.667 18.667 252 56l37 -154c-104 -45.333 -212.333 -67.666 -325 -66.999c-173.333 0 -314 48.667 -422 146s-162 232 -162 404s53.667 306.667 161 404s247.666 146.333 420.999 147z" />
    <glyph glyph-name="Dcaron" unicode="&#x10e;" horiz-adv-x="1546" 
d="M1073 1765l-227 -233h-195l-227 233h180l146 -155l143 155h180zM725 1257h-309v-1081h309c138 0 249.333 42.333 334 127c96.667 92.667 145 238 145 436s-64.667 343 -194 435c-80.667 55.333 -175.667 83 -285 83zM188 1434h600.001c120 0 232.667 -31.333 338 -94
s184.666 -148 237.999 -256s80 -229.333 80 -364s-27 -258 -81 -370s-133.333 -198.333 -238 -259s-217 -91 -337 -91h-600v1434z" />
    <glyph glyph-name="dcaron" unicode="&#x10f;" horiz-adv-x="1288" 
d="M616 918c-97.333 0 -175 -34.001 -233 -102.001c-57.333 -68 -86 -162.667 -86 -284s28.667 -215.666 86 -282.999c58 -67.333 135.667 -101 233 -101s177.333 33.333 240 100s94 161 94 283s-31.333 217 -94 285s-142.667 102 -240 102zM1157 1499l0.000976562 -1499
h-180l-21 172c-78 -126.667 -207.667 -190 -389 -190c-156.667 0 -277 52 -361 156s-126 235.333 -126 394s42.667 290.334 128 395.001s205 156.667 359 156c173.333 0 299.666 -60 378.999 -180v596h211zM1247 1499l150 -0.000976562
c0 -75.333 -14.333 -173.666 -43 -294.999h-107v295z" />
    <glyph glyph-name="Dcroat" unicode="&#x110;" horiz-adv-x="1546" 
d="M725 1257h-309v-485h291v-139h-291v-457h309c138 0 249.333 42.333 334 127c96.667 92.667 145 238 145 436s-64.667 343 -194 435c-80.667 55.333 -175.667 83 -285 83zM188 1434h600.001c120 0 232.667 -31.333 338 -94s184.666 -148 237.999 -256s80 -229.333 80 -364
s-27 -258 -81 -370s-133.333 -198.333 -238 -259s-217 -91 -337 -91h-600v633h-178v139h178v662z" />
    <glyph glyph-name="dcroat" unicode="&#x111;" horiz-adv-x="1296" 
d="M616 918c-97.333 0 -175 -34.001 -233 -102.001c-57.333 -68 -86 -162.667 -86 -284s28.667 -215.666 86 -282.999c58 -67.333 135.667 -101 233 -101s177.333 33.333 240 100s94 161 94 283s-31.333 217 -94 285s-142.667 102 -240 102zM1157 1499l0.000976562 -190.001
h141v-76h-141v-1233h-180l-21 172c-78 -126.667 -207.667 -190 -389 -190c-156.667 0 -277 52 -361 156s-126 235.333 -126 394s42.667 290.334 128 395.001s205 156.667 359 156c173.333 0 299.666 -60 378.999 -180v330h-301v76h301v190h211z" />
    <glyph glyph-name="Emacron" unicode="&#x112;" horiz-adv-x="1339" 
d="M1020 1729v-125h-623v125h623zM1214 1434v-177h-798v-469h688v-176h-688v-436h821v-176h-1049v1434h1026z" />
    <glyph glyph-name="emacron" unicode="&#x113;" horiz-adv-x="1206" 
d="M920 1376v-125h-623v125h623zM631 915c-188.667 0 -296 -102.333 -322 -307h611c0 92.667 -23.667 167 -71 223s-120 84 -218 84zM659 -16c-186 0 -329.003 47.667 -429.003 143s-149.333 227.333 -148 396c0 168.667 48.667 304 146 406s227.333 153 390 153
s287.334 -46.333 374.001 -139c86.667 -92 130 -217.333 130 -376c0 -61.333 -2 -98 -6 -110h-813c2 -100 37 -176 105 -228c68 -51.333 160.333 -77 277 -77s234.334 27 353.001 81l39 -157c-135.333 -61.333 -274.666 -92 -417.999 -92z" />
    <glyph glyph-name="Ebreve" unicode="&#x114;" horiz-adv-x="1337" 
d="M698 1548c-172 0 -266.667 73.667 -284 221l127 9c18 -80.667 71 -121 159 -121s140 40.333 156 121l127 -9c-18 -147.333 -113 -221 -285 -221zM1214 1434v-177h-798v-469h688v-176h-688v-436h821v-176h-1049v1434h1026z" />
    <glyph glyph-name="ebreve" unicode="&#x115;" horiz-adv-x="1206" 
d="M606 1196c-84 0 -149.333 19 -196 57s-76 99 -88 183l127 14c12 -50.667 29.667 -87.667 53 -111c22.667 -23.333 57.334 -35 104.001 -35s81.667 12 105 36c23.333 22.667 41 59.334 53 110.001l127 -14c-12 -82.667 -41.333 -143.334 -88 -182.001
s-112.334 -58 -197.001 -58zM631 915c-188.667 0 -296 -102.333 -322 -307h611c0 92.667 -23.667 167 -71 223s-120 84 -218 84zM659 -16c-186 0 -329.003 47.667 -429.003 143s-149.333 227.333 -148 396c0 168.667 48.667 304 146 406s227.333 153 390 153
s287.334 -46.333 374.001 -139c86.667 -92 130 -217.333 130 -376c0 -61.333 -2 -98 -6 -110h-813c2 -100 37 -176 105 -228c68 -51.333 160.333 -77 277 -77s234.334 27 353.001 81l39 -157c-135.333 -61.333 -274.666 -92 -417.999 -92z" />
    <glyph glyph-name="Edotaccent" unicode="&#x116;" horiz-adv-x="1335" 
d="M705 1759c70.667 0 106 -32.6631 106 -97.9961s-35.333 -98 -106 -98c-32.667 -0.666992 -58.334 7.66602 -77.001 24.999s-28 41.666 -28 72.999s9.33301 55.666 28 72.999s44.334 25.666 77.001 24.999zM1214 1434v-177h-798v-469h688v-176h-688v-436h821v-176h-1049
v1434h1026z" />
    <glyph glyph-name="edotaccent" unicode="&#x117;" horiz-adv-x="1206" 
d="M608 1417c78 0 117 -34.333 117 -103c0 -69.333 -39 -104 -117 -104s-116.667 35 -116 105c-0.666992 68 38 102 116 102zM631 915c-188.667 0 -296 -102.333 -322 -307h611c0 92.667 -23.667 167 -71 223s-120 84 -218 84zM659 -16c-186 0 -329.003 47.667 -429.003 143
s-149.333 227.333 -148 396c0 168.667 48.667 304 146 406s227.333 153 390 153s287.334 -46.333 374.001 -139c86.667 -92 130 -217.333 130 -376c0 -61.333 -2 -98 -6 -110h-813c2 -100 37 -176 105 -228c68 -51.333 160.333 -77 277 -77s234.334 27 353.001 81l39 -157
c-135.333 -61.333 -274.666 -92 -417.999 -92z" />
    <glyph glyph-name="Eogonek" unicode="&#x118;" horiz-adv-x="1337" 
d="M1214 1434l0.000976562 -177h-798v-469h688v-176h-688v-436h821v-176h-49c-72.667 -45.333 -109 -100 -109 -164c0 -25.333 7.33301 -45.333 22 -60c14 -14.667 31.667 -22 53 -22s46.333 4.33301 75 13l12 -109c-35.333 -16.667 -77.333 -25 -126 -25
s-89.334 13.667 -122.001 41s-49 68.333 -49 123c0 78 37 145.667 111 203h-867v1434h1026z" />
    <glyph glyph-name="eogonek" unicode="&#x119;" horiz-adv-x="1206" 
d="M631 915c-188.667 0 -296 -102.333 -322 -307h611c0 92.667 -23.667 167 -71 223s-120 84 -218 84zM825 -164c0 -25.333 7.33008 -45.333 21.9971 -60c15.333 -14.667 34.333 -22 57 -22s47 4.33301 73 13l12 -109c-35.333 -16.667 -77.333 -25 -126 -25
s-89.667 13.667 -123 41c-33.333 26.667 -50 72.667 -50 138s28.667 125.333 86 180c-49.333 -5.33301 -88.333 -8 -117 -8c-186 0 -329 47.667 -429 143s-149.333 227.333 -148 396c0 168.667 48.667 304 146 406s227.333 153 390 153s287.334 -46.333 374.001 -139
c86.667 -92 130 -217.333 130 -376c0 -61.333 -2 -98 -6 -110h-813c2 -100 37 -176 105 -228c68 -51.333 160.333 -77 277 -77s234.334 27 353.001 81l39 -157c-49.333 -22 -93.666 -39 -132.999 -51c-79.333 -46.667 -119 -109.667 -119 -189z" />
    <glyph glyph-name="Ecaron" unicode="&#x11a;" horiz-adv-x="1337" 
d="M1024 1765l-227 -233h-195l-227 233h180l145 -155l144 155h180zM1214 1434v-177h-798v-469h688v-176h-688v-436h821v-176h-1049v1434h1026z" />
    <glyph glyph-name="ecaron" unicode="&#x11b;" horiz-adv-x="1206" 
d="M932 1485l-227 -305h-195l-227 305h180l145 -217l144 217h180zM631 915c-188.667 0 -296 -102.333 -322 -307h611c0 92.667 -23.667 167 -71 223s-120 84 -218 84zM659 -16c-186 0 -329.003 47.667 -429.003 143s-149.333 227.333 -148 396c0 168.667 48.667 304 146 406
s227.333 153 390 153s287.334 -46.333 374.001 -139c86.667 -92 130 -217.333 130 -376c0 -61.333 -2 -98 -6 -110h-813c2 -100 37 -176 105 -228c68 -51.333 160.333 -77 277 -77s234.334 27 353.001 81l39 -157c-135.333 -61.333 -274.666 -92 -417.999 -92z" />
    <glyph glyph-name="Gcircumflex" unicode="&#x11c;" horiz-adv-x="1529" 
d="M1124 1532h-180l-143 156l-146 -156h-180l227 233h195zM868 1454c182.667 0 340.334 -34.6689 473.001 -104.002l-61 -168c-135.333 61.333 -261 92 -377 92c-179.333 0 -318.333 -50.667 -417 -152s-148 -234.666 -148 -399.999s48 -300.666 144 -405.999
c96 -104 221.333 -156 376 -156s279 40.333 373 121v286h-369v168h553v-540c-147.333 -143.333 -332.333 -215 -555 -215s-405.334 66 -548.001 198s-214 312 -214 540c0 229.333 71 409.333 213 540s327.667 196 557 196z" />
    <glyph glyph-name="gcircumflex" unicode="&#x11d;" horiz-adv-x="1191" 
d="M928 1194h-180l-144 217l-145 -217h-180l227 305h194zM299 -68c0.666992 -85.333 87.001 -127.667 259.001 -127c173.333 0 277.666 21.667 312.999 65c16 18.667 24 44.667 24 78c0 63.333 -58.667 95 -176 95h-125c-95.333 0 -168.333 4 -219 12
c-50.667 -32.667 -76 -73.667 -76 -123zM600.001 538.999c78.667 0 139.333 16 182 48c44 32 66 78.333 66 139s-22.667 107 -68 139s-106.333 48 -183 48c-78 0 -139.667 -16 -185 -48s-68 -79 -68 -141s23 -108.333 69 -139s108.333 -46 187 -46zM602 1081
c65.333 0 121.999 -5.33398 169.999 -16.001h361v-143l-168 -2c66.667 -52 100 -127 100 -225s-40 -176.333 -120 -235s-195.667 -88.334 -347 -89.001c-94 0 -174 10.667 -240 32c-38 -26 -56.333 -58 -55 -96s24.333 -63.667 69 -77s113.334 -20.333 206.001 -21h161
c247.333 0 371 -86.667 371 -260c0 -207.333 -169.667 -311 -509 -311s-509 88.667 -509 266c0 84.667 39.667 154.334 119 209.001c-60 38 -90 96.333 -90 175s36 141 108 187c-66.667 58.667 -100 144.334 -100 257.001s41 199 123 259s198.667 90 350 90z" />
    <glyph glyph-name="Gbreve" unicode="&#x11e;" horiz-adv-x="1529" 
d="M786 1548c-172 0 -266.667 73.667 -284 221l127 9c18 -80.667 71 -121 159 -121s140 40.333 156 121l127 -9c-18 -147.333 -113 -221 -285 -221zM868 1454c182.667 0 340.334 -34.6689 473.001 -104.002l-61 -168c-135.333 61.333 -261 92 -377 92
c-179.333 0 -318.333 -50.667 -417 -152s-148 -234.666 -148 -399.999s48 -300.666 144 -405.999c96 -104 221.333 -156 376 -156s279 40.333 373 121v286h-369v168h553v-540c-147.333 -143.333 -332.333 -215 -555 -215s-405.334 66 -548.001 198s-214 312 -214 540
c0 229.333 71 409.333 213 540s327.667 196 557 196z" />
    <glyph glyph-name="gbreve" unicode="&#x11f;" horiz-adv-x="1191" 
d="M299 -68c0.666992 -85.333 87.001 -127.667 259.001 -127c173.333 0 277.666 21.667 312.999 65c16 18.667 24 44.667 24 78c0 63.333 -58.667 95 -176 95h-125c-95.333 0 -168.333 4 -219 12c-50.667 -32.667 -76 -73.667 -76 -123zM600.001 538.999
c78.667 0 139.333 16 182 48c44 32 66 78.333 66 139s-22.667 107 -68 139s-106.333 48 -183 48c-78 0 -139.667 -16 -185 -48s-68 -79 -68 -141s23 -108.333 69 -139s108.333 -46 187 -46zM602 1081c65.333 0 121.999 -5.33398 169.999 -16.001h361v-143l-168 -2
c66.667 -52 100 -127 100 -225s-40 -176.333 -120 -235s-195.667 -88.334 -347 -89.001c-94 0 -174 10.667 -240 32c-38 -26 -56.333 -58 -55 -96s24.333 -63.667 69 -77s113.334 -20.333 206.001 -21h161c247.333 0 371 -86.667 371 -260
c0 -207.333 -169.667 -311 -509 -311s-509 88.667 -509 266c0 84.667 39.667 154.334 119 209.001c-60 38 -90 96.333 -90 175s36 141 108 187c-66.667 58.667 -100 144.334 -100 257.001s41 199 123 259s198.667 90 350 90zM591.999 1319
c46.667 0.666992 81.668 12.333 105.001 35s41 59.334 53 110.001l127 -14c-12.667 -83.333 -42.334 -144 -89.001 -182c-46.667 -38.667 -112 -58 -196 -58s-149.667 19.333 -197 58c-46.667 38.667 -76 99.334 -88 182.001l127 14c12 -50.667 29.667 -87.334 53 -110.001
s58.333 -34.334 105 -35.001z" />
    <glyph glyph-name="Gdotaccent" unicode="&#x120;" horiz-adv-x="1529" 
d="M838 1759c70.667 0 106 -32.6631 106 -97.9961s-35.333 -98 -106 -98c-32.667 -0.666992 -58.334 7.66602 -77.001 24.999s-28 41.666 -28 72.999s9.33301 55.666 28 72.999s44.334 25.666 77.001 24.999zM868 1454c182.667 0 340.334 -34.6689 473.001 -104.002
l-61 -168c-135.333 61.333 -261 92 -377 92c-179.333 0 -318.333 -50.667 -417 -152s-148 -234.666 -148 -399.999s48 -300.666 144 -405.999c96 -104 221.333 -156 376 -156s279 40.333 373 121v286h-369v168h553v-540c-147.333 -143.333 -332.333 -215 -555 -215
s-405.334 66 -548.001 198s-214 312 -214 540c0 229.333 71 409.333 213 540s327.667 196 557 196z" />
    <glyph glyph-name="gdotaccent" unicode="&#x121;" horiz-adv-x="1191" 
d="M586 1225c-77.333 -0.666992 -116.333 33.667 -117 103c0 69.333 39 104 117 104s116.667 -34.333 116 -103c0 -69.333 -38.667 -104 -116 -104zM299 -67.999c0.666992 -85.333 87.001 -127.667 259.001 -127c173.333 0 277.666 21.667 312.999 65
c16 18.667 24 44.667 24 78c0 63.333 -58.667 95 -176 95h-125c-95.333 0 -168.333 4 -219 12c-50.667 -32.667 -76 -73.667 -76 -123zM600.001 539c78.667 0 139.333 16 182 48c44 32 66 78.333 66 139s-22.667 107 -68 139s-106.333 48 -183 48
c-78 0 -139.667 -16 -185 -48s-68 -79 -68 -141s23 -108.333 69 -139s108.333 -46 187 -46zM602 1081c65.333 0 121.999 -5.33398 169.999 -16.001h361v-143l-168 -2c66.667 -52 100 -127 100 -225s-40 -176.333 -120 -235s-195.667 -88.334 -347 -89.001
c-94 0 -174 10.667 -240 32c-38 -26 -56.333 -58 -55 -96s24.333 -63.667 69 -77s113.334 -20.333 206.001 -21h161c247.333 0 371 -86.667 371 -260c0 -207.333 -169.667 -311 -509 -311s-509 88.667 -509 266c0 84.667 39.667 154.334 119 209.001
c-60 38 -90 96.333 -90 175s36 141 108 187c-66.667 58.667 -100 144.334 -100 257.001s41 199 123 259s198.667 90 350 90z" />
    <glyph glyph-name="Gcommaaccent" unicode="&#x122;" horiz-adv-x="1529" 
d="M909 -96c0.666992 -65.333 -8.33203 -124.332 -26.999 -176.999s-29.334 -83.334 -32.001 -92.001h-131c26 105.333 38.333 195 37 269h153zM868.001 1454c182.667 0 340.334 -34.6689 473.001 -104.002l-61 -168c-135.333 61.333 -261 92 -377 92
c-179.333 0 -318.333 -50.667 -417 -152s-148 -234.666 -148 -399.999s48 -300.666 144 -405.999c96 -104 221.333 -156 376 -156s279 40.333 373 121v286h-369v168h553v-540c-147.333 -143.333 -332.333 -215 -555 -215s-405.334 66 -548.001 198s-214 312 -214 540
c0 229.333 71 409.333 213 540s327.667 196 557 196z" />
    <glyph glyph-name="gcommaaccent" unicode="&#x123;" horiz-adv-x="1191" 
d="M299 -68c0.666992 -85.333 87.001 -127.667 259.001 -127c173.333 0 277.666 21.667 312.999 65c16 18.667 24 44.667 24 78c0 63.333 -58.667 95 -176 95h-125c-95.333 0 -168.333 4 -219 12c-50.667 -32.667 -76 -73.667 -76 -123zM600.001 538.999
c78.667 0 139.333 16 182 48c44 32 66 78.333 66 139s-22.667 107 -68 139s-106.333 48 -183 48c-78 0 -139.667 -16 -185 -48s-68 -79 -68 -141s23 -108.333 69 -139s108.333 -46 187 -46zM602 1081c65.333 0 121.999 -5.33398 169.999 -16.001h361v-143l-168 -2
c66.667 -52 100 -127 100 -225s-40 -176.333 -120 -235s-195.667 -88.334 -347 -89.001c-94 0 -174 10.667 -240 32c-38 -26 -56.333 -58 -55 -96s24.333 -63.667 69 -77s113.334 -20.333 206.001 -21h161c247.333 0 371 -86.667 371 -260
c0 -207.333 -169.667 -311 -509 -311s-509 88.667 -509 266c0 84.667 39.667 154.334 119 209.001c-60 38 -90 96.333 -90 175s36 141 108 187c-66.667 58.667 -100 144.334 -100 257.001s41 199 123 259s198.667 90 350 90zM525.999 1196c0 82.667 20 172 60 268h131
c-26 -104.667 -38.333 -194 -37 -268h-154z" />
    <glyph glyph-name="Hcircumflex" unicode="&#x124;" horiz-adv-x="1585" 
d="M1118 1532h-180l-143 156l-146 -156h-180l227 233h195zM1397 1434v-1434h-228v623h-753v-623h-228v1434h228v-635h753v635h228z" />
    <glyph glyph-name="hcircumflex" unicode="&#x125;" horiz-adv-x="1257" 
d="M573 1561h-180l-143 155l-146 -155h-180l228 233h194zM360 1499l-0.000976562 -606.001c80.667 125.333 202.334 188 365.001 188c259.333 0 389 -136.333 389 -409v-672h-211v651c0 88.667 -21 155.334 -63 200.001s-106.667 67 -194 67c-86.667 0 -156 -34 -208 -102
s-78 -149 -78 -243v-573h-210v1499h210z" />
    <glyph glyph-name="Hbar" unicode="&#x126;" horiz-adv-x="1574" 
d="M416 799h753v286h-753v-286zM1397 1434v-246h102v-103h-102v-1085h-228v623h-753v-623h-228v1085h-114v103h114v246h228v-246h753v246h228z" />
    <glyph glyph-name="hbar" unicode="&#x127;" horiz-adv-x="1255" 
d="M901 651c0.666992 178 -85.001 267 -257.001 267c-88 0 -157.667 -34 -209 -102s-77 -149 -77 -243v-573h-211v1233h-149v76h149v190h211v-190h297v-76h-297v-340c80.667 125.333 202.334 188 365.001 188c259.333 0 389 -136.333 389 -409v-672h-211v651z" />
    <glyph glyph-name="Itilde" unicode="&#x128;" horiz-adv-x="600" 
d="M426 1563c-27.333 0 -73.668 14.333 -139.001 43c-62.667 31.333 -105.667 47 -129 47c-39.333 0 -72.333 -24.667 -99 -74l-73 31c36.667 116 101.334 174 194.001 174c32.667 0 78.334 -14.667 137.001 -44c59.333 -29.333 106.333 -44 141 -44s65 24.333 91 73l74 -32
c-36.667 -116 -102.334 -174 -197.001 -174zM413.998 1434v-1434h-228v1434h228z" />
    <glyph glyph-name="itilde" unicode="&#x129;" horiz-adv-x="550" 
d="M387 1225c-27.333 0 -73.668 14.333 -139.001 43c-62.667 31.333 -105.667 47 -129 47c-39.333 0 -72.333 -24.667 -99 -74l-73 31c36.667 116 101.334 174 194.001 174c32.667 0 79.334 -14.333 140.001 -43c57.333 -30 103.333 -45 138 -45s65 24.667 91 74l74 -33
c-36.667 -116 -102.334 -174 -197.001 -174zM394.998 1065v-1065h-211v913h-131v152h342z" />
    <glyph glyph-name="Imacron" unicode="&#x12a;" horiz-adv-x="600" 
d="M612 1729v-125h-622v125h622zM414 1434v-1434h-228v1434h228z" />
    <glyph glyph-name="imacron" unicode="&#x12b;" horiz-adv-x="550" 
d="M573 1391v-125h-622v125h622zM395 1065v-1065h-211v913h-131v152h342z" />
    <glyph glyph-name="Ibreve" unicode="&#x12c;" horiz-adv-x="600" 
d="M299 1548c-172 0 -267 73.667 -285 221l127 9c18 -80.667 71.333 -121 160 -121s140.667 40.333 156 121l127 -9c-18 -147.333 -113 -221 -285 -221zM414 1434v-1434h-228v1434h228z" />
    <glyph glyph-name="ibreve" unicode="&#x12d;" horiz-adv-x="550" 
d="M260 1319c46.667 0.666992 81.668 12.333 105.001 35s41 59.334 53 110.001l127 -14c-12 -83.333 -41.333 -144 -88 -182c-46.667 -38.667 -112.334 -58 -197.001 -58s-150.334 19.333 -197.001 58s-76 99.334 -88 182.001l127 14c12 -50.667 30 -87.334 54 -110.001
c22.667 -22.667 57.334 -34.334 104.001 -35.001zM395.001 1065v-1065h-211v913h-131v152h342z" />
    <glyph glyph-name="Iogonek" unicode="&#x12e;" horiz-adv-x="600" 
d="M414 1434l0.000976562 -1434h-37c-72.667 -45.333 -109 -100 -109 -164c0 -25.333 7.33301 -45.333 22 -60s32.667 -22 54 -22s46 4.33301 74 13l12 -109c-35.333 -16.667 -77.333 -25 -126 -25s-89.334 13.667 -122.001 41s-49 68.333 -49 123c0 78 37 145.667 111 203
h-58v1434h228z" />
    <glyph glyph-name="iogonek" unicode="&#x12f;" horiz-adv-x="550" 
d="M280 1237c-80 0.666992 -120 37.667 -120 111s40 110 120 110s119.667 -36.667 119 -110c0.666992 -74 -39 -111 -119 -111zM395 1065l0.000976562 -1065h-18c-72.667 -45.333 -109 -100 -109 -164c0 -25.333 7.33301 -45.333 22 -60s32.667 -22 54 -22s46 4.33301 74 13
l12 -109c-35.333 -16.667 -77.333 -25 -126 -25s-89.334 13.667 -122.001 41s-49 68.333 -49 123c0 78 37 145.667 111 203h-60v913h-131v152h342z" />
    <glyph glyph-name="Idotaccent" unicode="&#x130;" horiz-adv-x="600" 
d="M300 1759c70 0 105.334 -32.665 106.001 -97.998c0 -65.333 -35.667 -98 -107 -98c-32.667 -0.666992 -58.334 7.66602 -77.001 24.999s-27.667 41.666 -27 72.999c0 65.333 35 98 105 98zM414.001 1434v-1434h-228v1434h228z" />
    <glyph glyph-name="dotlessi" unicode="&#x131;" horiz-adv-x="550" 
d="M395 1065v-1065h-211v913h-131v152h342z" />
    <glyph glyph-name="Jcircumflex" unicode="&#x134;" horiz-adv-x="1105" 
d="M1151 1532h-180l-144 156l-145 -156h-180l227 233h195zM940 1434l-0.00292969 -965c0 -158.667 -43.667 -280 -131 -364s-204.666 -125.667 -351.999 -125c-62.667 0 -122 10 -178 30s-108.667 51 -158 93c-49.333 41.333 -83.666 83.333 -102.999 126l132 123
c72.667 -126.667 171.334 -190 296.001 -190c82 0 147 26 195 78s72 127.667 72 227v967h227z" />
    <glyph glyph-name="jcircumflex" unicode="&#x135;" horiz-adv-x="559" 
d="M596 1194h-180l-144 217l-145 -217h-180l227 305h195zM406 1065l-0.000976562 -1159c0 -101.333 -22.667 -171.333 -68 -210s-115.666 -58 -210.999 -58h-98v169h53c44 0 74 9 90 27s23.667 50.667 23 98v981h-142v152h353z" />
    <glyph glyph-name="Kcommaaccent" unicode="&#x136;" horiz-adv-x="1429" 
d="M827 -92c0.666992 -65.333 -8.33203 -124.333 -26.999 -177s-29.334 -83 -32.001 -91h-131c26 104.667 38.333 194 37 268h153zM416.001 0h-228v1434h228v-746l684 746h266l-508 -551l541 -883h-277l-426 707l-280 -306v-401z" />
    <glyph glyph-name="kcommaaccent" unicode="&#x137;" horiz-adv-x="1110" 
d="M655 -92c0.666992 -65.333 -8.33203 -124.333 -26.999 -177s-29.334 -83 -32.001 -91h-131c26 104.667 38.333 194 37 268h153zM360.001 1499v-948l498 514h234l-398 -410l400 -655h-238l-303 508l-193 -199v-309h-210v1499h210z" />
    <glyph glyph-name="kgreenlandic" unicode="&#x138;" horiz-adv-x="1105" 
d="M367 0h-211v1065h211v-514l499 514h234l-393 -406l393 -659h-238l-297 514l-198 -205v-309z" />
    <glyph glyph-name="Lacute" unicode="&#x139;" horiz-adv-x="1183" 
d="M575 1765l-186 -233h-158l146 233h198zM416 1434v-1254h731v-180h-959v1434h228z" />
    <glyph glyph-name="lacute" unicode="&#x13a;" horiz-adv-x="587" 
d="M520 1780l-186 -234h-158l146 234h198zM356 1499l0.000976562 -1270c0 -31.333 7.33301 -52.666 22 -63.999c25.333 -20 74.666 -24.333 147.999 -13l6 -154c-50.667 -9.33301 -110 -14 -178 -14c-138 0 -207.667 69.667 -209 209v1306h211z" />
    <glyph glyph-name="Lcommaaccent" unicode="&#x13b;" horiz-adv-x="1146" 
d="M733 -92c0.666992 -65.333 -8.33203 -124.333 -26.999 -177s-29.334 -83 -32.001 -91h-131c26 104.667 38.333 194 37 268h153zM416.001 1434v-1254h731v-180h-959v1434h228z" />
    <glyph glyph-name="lcommaaccent" unicode="&#x13c;" horiz-adv-x="587" 
d="M401 -92c0.666992 -65.333 -8.33203 -124.333 -26.999 -177s-29.334 -83 -32.001 -91h-131c26 104.667 38.333 194 37 268h153zM356.001 1499l0.000976562 -1270c0 -31.333 7.33301 -52.666 22 -63.999c25.333 -20 74.666 -24.333 147.999 -13l6 -154
c-50.667 -9.33301 -110 -14 -178 -14c-138 0 -207.667 69.667 -209 209v1306h211z" />
    <glyph glyph-name="Lcaron" unicode="&#x13d;" horiz-adv-x="1136" 
d="M416 1434v-1254h731v-180h-959v1434h228zM735 1434l150 -0.000976562c0 -75.333 -14.333 -173.666 -43 -294.999h-107v295z" />
    <glyph glyph-name="lcaron" unicode="&#x13e;" horiz-adv-x="618" 
d="M356 1499l0.000976562 -1270c0 -31.333 7.33301 -52.666 22 -63.999c25.333 -20 74.666 -24.333 147.999 -13l6 -154c-50.667 -9.33301 -110 -14 -178 -14c-138 0 -207.667 69.667 -209 209v1306h211zM467.001 1499l149 -0.000976562
c0 -75.333 -14.333 -173.666 -43 -294.999h-106v295z" />
    <glyph glyph-name="Lslash" unicode="&#x141;" horiz-adv-x="1202" 
d="M416 1434v-664l352 213v-111l-352 -213v-479h731v-180h-959v520l-153 -92v111l153 92v803h228z" />
    <glyph glyph-name="lslash" unicode="&#x142;" horiz-adv-x="638" 
d="M381 1499v-719.001l240 144v-109l-240 -143v-443c-0.666992 -31.333 6.33301 -52.666 21 -63.999c25.333 -20 75 -24.333 149 -13l6 -154c-51.333 -9.33301 -111 -14 -179 -14c-138.667 0 -208 69.667 -208 209v354l-150 -88v108l150 88v844h211z" />
    <glyph glyph-name="Nacute" unicode="&#x143;" horiz-adv-x="1556" 
d="M1063 1765l-186 -233h-158l145 233h199zM1370 1434v-1434h-237l-717 1083v-1083h-228v1434h238l717 -1067v1067h227z" />
    <glyph glyph-name="nacute" unicode="&#x144;" horiz-adv-x="1255" 
d="M901 651c0.666992 178 -85.001 267 -257.001 267c-88 0 -157.667 -34 -209 -102s-77 -149 -77 -243v-573h-211v1065h185l14 -180c80.667 130.667 206.334 196 377.001 196c259.333 0 389 -136.333 389 -409v-672h-211v651zM884.999 1497l-187 -303h-157l145 303h199z" />
    <glyph glyph-name="Ncommaaccent" unicode="&#x145;" horiz-adv-x="1556" 
d="M860 -92c0 -65.333 -9.33301 -124.333 -28 -177s-29 -83 -31 -91h-131c26 104.667 38.333 194 37 268h153zM1370 1434v-1434h-237l-717 1083v-1083h-228v1434h238l717 -1067v1067h227z" />
    <glyph glyph-name="ncommaaccent" unicode="&#x146;" horiz-adv-x="1255" 
d="M709 -92c0 -82.667 -20 -172 -60 -268h-131c26 104.667 38.333 194 37 268h154zM901 651c0.666992 178 -85.001 267 -257.001 267c-88 0 -157.667 -34 -209 -102s-77 -149 -77 -243v-573h-211v1065h185l14 -180c80.667 130.667 206.334 196 377.001 196
c259.333 0 389 -136.333 389 -409v-672h-211v651z" />
    <glyph glyph-name="Ncaron" unicode="&#x147;" horiz-adv-x="1556" 
d="M1112 1765l-227 -233h-195l-227 233h180l145 -155l144 155h180zM1370 1434v-1434h-237l-717 1083v-1083h-228v1434h238l717 -1067v1067h227z" />
    <glyph glyph-name="ncaron" unicode="&#x148;" horiz-adv-x="1255" 
d="M940 1499l-227 -305h-195l-227 305h180l145 -217l144 217h180zM901 651c0.666992 178 -85.001 267 -257.001 267c-88 0 -157.667 -34 -209 -102s-77 -149 -77 -243v-573h-211v1065h185l14 -180c80.667 130.667 206.334 196 377.001 196c259.333 0 389 -136.333 389 -409
v-672h-211v651z" />
    <glyph glyph-name="Eng" unicode="&#x14a;" horiz-adv-x="1556" 
d="M1370 1434v-1411c0 -202 -127.667 -325 -383 -369l-45 153c50.667 13.333 89.667 28.333 117 45c50.667 31.333 76.667 75.333 78 132v16l-721 1085v-1085h-228v1434h238l717 -1065v1065h227z" />
    <glyph glyph-name="eng" unicode="&#x14b;" horiz-adv-x="1255" 
d="M901 651c0.666992 178 -85.001 267.001 -257.001 267.001c-88 0 -157.667 -34 -209 -102s-77 -149 -77 -243v-573h-211v1065h185l14 -184c80.667 133.333 206.334 200 377.001 200c259.333 0 389 -136.333 389 -409v-686c0 -178.667 -116 -296.334 -348 -353.001l-41 138
c118.667 44 178 110 178 198v682z" />
    <glyph glyph-name="Omacron" unicode="&#x14c;" horiz-adv-x="1644" 
d="M1135 1729v-125h-623v125h623zM823 1272c-150 0 -269.669 -49.335 -359.002 -148.002s-134 -235.334 -134 -410.001c0 -173.333 44.667 -308.666 134 -405.999s209.333 -146 360 -146s270.334 48.333 359.001 145c88 96.667 132 232.334 132 407.001
c0.666992 174.667 -43.666 311.334 -132.999 410.001s-209 148 -359 148zM822.998 1454c222.667 0 400.333 -67.6699 533 -203.003c132 -135.333 198 -313.666 198 -534.999s-66 -399.666 -198 -534.999c-132 -134 -309.667 -201 -533 -201c-224.667 0 -403 67.333 -535 202
s-198 312.667 -198 534c0 222.667 66.667 401.334 200 536.001s311 202 533 202z" />
    <glyph glyph-name="omacron" unicode="&#x14d;" horiz-adv-x="1275" 
d="M950 1391v-125h-622v125h622zM977 532c0 121.333 -30 215.333 -90 282s-142.667 100.334 -248 101.001c-105.333 0 -188.333 -33 -249 -99c-60.667 -65.333 -91 -159.333 -91 -282s30.333 -217.334 91 -284.001s143.667 -100 249 -100s188 33.333 248 100
s90 160.667 90 282zM638 1083c168 0 302.668 -49 404.001 -147c101.333 -98.667 152 -233.334 152 -404.001s-51 -305 -153 -403s-236.333 -147 -403 -147s-301.334 49 -404.001 147c-102 98 -152.667 232.333 -152 403c0 170.667 50.667 305.334 152 404.001
c102 98 236.667 147 404 147z" />
    <glyph glyph-name="Obreve" unicode="&#x14e;" horiz-adv-x="1644" 
d="M821 1548c-172 0 -266.667 73.667 -284 221l127 9c18.667 -80.667 72 -121 160 -121s139.667 40.333 155 121l127 -9c-18 -147.333 -113 -221 -285 -221zM823 1272c-150 0 -269.669 -49.335 -359.002 -148.002s-134 -235.334 -134 -410.001
c0 -173.333 44.667 -308.666 134 -405.999s209.333 -146 360 -146s270.334 48.333 359.001 145c88 96.667 132 232.334 132 407.001c0.666992 174.667 -43.666 311.334 -132.999 410.001s-209 148 -359 148zM822.998 1454c222.667 0 400.333 -67.6699 533 -203.003
c132 -135.333 198 -313.666 198 -534.999s-66 -399.666 -198 -534.999c-132 -134 -309.667 -201 -533 -201c-224.667 0 -403 67.333 -535 202s-198 312.667 -198 534c0 222.667 66.667 401.334 200 536.001s311 202 533 202z" />
    <glyph glyph-name="obreve" unicode="&#x14f;" horiz-adv-x="1275" 
d="M637 1319c46.667 0.666992 81.6689 12.333 105.002 35s41 59.334 53 110.001l127 -14c-12 -83.333 -41.333 -144 -88 -182c-46.667 -38.667 -112.334 -58 -197.001 -58s-150.334 19.333 -197.001 58s-76 99.334 -88 182.001l127 14
c12 -50.667 29.667 -87.334 53 -110.001s58.333 -34.334 105 -35.001zM977.002 531.999c0 121.333 -30 215.333 -90 282s-142.667 100.334 -248 101.001c-105.333 0 -188.333 -33 -249 -99c-60.667 -65.333 -91 -159.333 -91 -282s30.333 -217.334 91 -284.001
s143.667 -100 249 -100s188 33.333 248 100s90 160.667 90 282zM638.002 1083c168 0 302.668 -49 404.001 -147c101.333 -98.667 152 -233.334 152 -404.001s-51 -305 -153 -403s-236.333 -147 -403 -147s-301.334 49 -404.001 147c-102 98 -152.667 232.333 -152 403
c0 170.667 50.667 305.334 152 404.001c102 98 236.667 147 404 147z" />
    <glyph glyph-name="Ohungarumlaut" unicode="&#x150;" horiz-adv-x="1644" 
d="M887 1765l-174 -233h-158l133 233h199zM1214 1765l-174 -233h-157l133 233h198zM823 1272c-150 0 -269.669 -49.335 -359.002 -148.002s-134 -235.334 -134 -410.001c0 -173.333 44.667 -308.666 134 -405.999s209.333 -146 360 -146s270.334 48.333 359.001 145
c88 96.667 132 232.334 132 407.001c0.666992 174.667 -43.666 311.334 -132.999 410.001s-209 148 -359 148zM822.998 1454c222.667 0 400.333 -67.6699 533 -203.003c132 -135.333 198 -313.666 198 -534.999s-66 -399.666 -198 -534.999
c-132 -134 -309.667 -201 -533 -201c-224.667 0 -403 67.333 -535 202s-198 312.667 -198 534c0 222.667 66.667 401.334 200 536.001s311 202 533 202z" />
    <glyph glyph-name="ohungarumlaut" unicode="&#x151;" horiz-adv-x="1275" 
d="M1022 1499l-174 -305h-158l133 305h199zM694 1499l-174 -305h-158l134 305h198zM977 532c0 121.333 -30 215.333 -90 282s-142.667 100.334 -248 101.001c-105.333 0 -188.333 -33 -249 -99c-60.667 -65.333 -91 -159.333 -91 -282s30.333 -217.334 91 -284.001
s143.667 -100 249 -100s188 33.333 248 100s90 160.667 90 282zM638 1083c168 0 302.668 -49 404.001 -147c101.333 -98.667 152 -233.334 152 -404.001s-51 -305 -153 -403s-236.333 -147 -403 -147s-301.334 49 -404.001 147c-102 98 -152.667 232.333 -152 403
c0 170.667 50.667 305.334 152 404.001c102 98 236.667 147 404 147z" />
    <glyph glyph-name="OE" unicode="&#x152;" horiz-adv-x="2486" 
d="M1311 714c-0.666992 174.667 -45.002 311.332 -133.002 409.999s-206.667 148 -356 148s-268.666 -49.333 -357.999 -148s-134 -235.334 -134 -410.001c0 -173.333 44.333 -308.666 133 -405.999s208.334 -146 359.001 -146s270 48.333 358 145
c87.333 96.667 131 232.334 131 407.001zM2363 1434v-177.001h-796v-469h686v-176h-686v-436h819v-176h-1047v193c-135.333 -142 -311 -213 -527 -213s-390.667 67.333 -524 202c-132 134.667 -198 312.667 -198 534c0 222.667 66.667 401.334 200 536.001s308 202 524 202
s391 -70.333 525 -211v191h1024z" />
    <glyph glyph-name="oe" unicode="&#x153;" horiz-adv-x="2107" 
d="M1532 915c-188.667 0 -296 -102.333 -322 -307h611c0 92.667 -23.667 167 -71 223s-120 84 -218 84zM977 532c0 121.333 -30 215.333 -90 282s-142.667 100.334 -248 101.001c-105.333 0 -188.333 -33 -249 -99c-60.667 -65.333 -91 -159.333 -91 -282
s30.333 -217.334 91 -284.001s143.667 -100 249 -100s188 33.333 248 100s90 160.667 90 282zM1561 -16c-217.333 0 -376.001 64.665 -476.001 193.998c-100 -131.333 -248.667 -196.666 -446 -195.999c-168 0 -303 49 -405 147s-152.667 232.333 -152 403
c0 170.667 50.667 305.334 152 404.001c102 98 237 147 405 147c199.333 0 349.666 -67.333 450.999 -202c96.667 134 242 200.667 436 200c157.333 0 279.333 -46 366 -138s130.334 -217.333 131.001 -376c0 -61.333 -2 -98 -6 -110h-813c1.33301 -100 36 -176 104 -228
c68 -51.333 160.667 -77 278 -77c116.667 0 234.334 27 353.001 81l39 -157c-135.333 -61.333 -274.333 -92 -417 -92z" />
    <glyph glyph-name="Racute" unicode="&#x154;" horiz-adv-x="1431" 
d="M918 1765l-187 -233h-158l146 233h199zM856 1257h-440v-503h440c77.333 0 138.666 24 183.999 72s68 108 68 180c0 70.667 -22.667 130 -68 178s-106.666 72.333 -183.999 73zM188 1434h711c136.667 0 245.667 -41.333 327 -124s122 -185.667 122 -309
c0 -96.667 -27 -181 -81 -253s-128.333 -123.333 -223 -154l283 -594h-240l-256 578h-415v-578h-228v1434z" />
    <glyph glyph-name="racute" unicode="&#x155;" horiz-adv-x="757" 
d="M631 1497l-187 -303h-157l145 303h199zM360 0h-209.999v1065h174l18 -225c26 69.333 70.333 127.666 133 174.999c63.333 46.667 140.666 63.334 231.999 50.001l-9 -205c-108 14.667 -191.333 -13.333 -250 -84s-88 -164.667 -88 -282v-494z" />
    <glyph glyph-name="Rcommaaccent" unicode="&#x156;" horiz-adv-x="1431" 
d="M811 -92c0.666992 -65.333 -8.33203 -124.333 -26.999 -177s-29.334 -83 -32.001 -91h-131c25.333 104.667 37.333 194 36 268h154zM856.001 1257h-440v-503h440c77.333 0 138.666 24 183.999 72s68 108 68 180c0 70.667 -22.667 130 -68 178
s-106.666 72.333 -183.999 73zM188.001 1434h711c136.667 0 245.667 -41.333 327 -124s122 -185.667 122 -309c0 -96.667 -27 -181 -81 -253s-128.333 -123.333 -223 -154l283 -594h-240l-256 578h-415v-578h-228v1434z" />
    <glyph glyph-name="rcommaaccent" unicode="&#x157;" horiz-adv-x="755" 
d="M340 -92c0 -65.333 -9.33301 -124.333 -28 -177s-29 -83 -31 -91h-131c25.333 104.667 37.333 194 36 268h154zM360 0h-209.999v1065h174l18 -225c26 69.333 70.333 127.666 133 174.999c63.333 46.667 140.666 63.334 231.999 50.001l-9 -205
c-108 14.667 -191.333 -13.333 -250 -84s-88 -164.667 -88 -282v-494z" />
    <glyph glyph-name="Rcaron" unicode="&#x158;" horiz-adv-x="1413" 
d="M1012 1765l-228 -233h-194l-228 233h181l145 -155l143 155h181zM856 1257h-440v-503h440c77.333 0 138.666 24 183.999 72s68 108 68 180c0 70.667 -22.667 130 -68 178s-106.666 72.333 -183.999 73zM188 1434h711c136.667 0 245.667 -41.333 327 -124
s122 -185.667 122 -309c0 -96.667 -27 -181 -81 -253s-128.333 -123.333 -223 -154l283 -594h-240l-256 578h-415v-578h-228v1434z" />
    <glyph glyph-name="rcaron" unicode="&#x159;" horiz-adv-x="755" 
d="M702 1499l-227 -305h-194l-228 305h180l146 -217l143 217h180zM360 0h-209.999v1065h174l18 -225c26 69.333 70.333 127.666 133 174.999c63.333 46.667 140.666 63.334 231.999 50.001l-9 -205c-108 14.667 -191.333 -13.333 -250 -84s-88 -164.667 -88 -282v-494z" />
    <glyph glyph-name="Sacute" unicode="&#x15a;" horiz-adv-x="1267" 
d="M891 1765l-186 -233h-158l145 233h199zM106 1044c0 134.667 48.6689 236.665 146.002 305.998s230.666 104 399.999 104s330.333 -37.667 483 -113l-64 -172c-46 27.333 -111.333 51.333 -196 72s-169 31 -253 31s-151.333 -17.667 -202 -53s-76 -83 -76 -143
s22.667 -109.667 68 -149c16.667 -15.333 44 -30.333 82 -45s94.333 -32 169 -52s134 -37 178 -51c117.333 -37.333 200.666 -81.333 249.999 -132c63.333 -64.667 95 -148 95 -250c0 -138 -49.333 -242 -148 -312s-233 -105 -403 -105c-100.667 0 -201 12.667 -301 38
s-181.333 54.666 -244 87.999l60 175c170.667 -78 331 -117 481 -117c214.667 0 321.667 69 321 207c0 54.667 -19.333 99.334 -58 134.001s-134.667 71.667 -288 111c-61.333 16.667 -110 30.334 -146 41.001c-36 10 -79.667 27 -131 51s-91 49.333 -119 76
s-52.333 62.667 -73 108c-20.667 44.667 -31 95.334 -31 152.001z" />
    <glyph glyph-name="sacute" unicode="&#x15b;" horiz-adv-x="995" 
d="M715 1497l-187 -303h-157l145 303h199zM506 1081c130.667 0 257.664 -24.333 380.997 -73l-37 -142c-113.333 42 -220.666 63.333 -321.999 64c-151.333 0 -227 -47.333 -227 -142c0 -48.667 20 -83.667 60 -105c25.333 -13.333 64.333 -27 117 -41
c52.667 -13.333 93.334 -24 122.001 -32s56.334 -16.333 83.001 -25c80.667 -26 142.667 -61.333 186 -106s65 -105.334 65 -182.001c0 -104 -39.667 -182.333 -119 -235c-79.333 -52 -186.333 -78 -321 -78s-272.667 30.667 -414 92l45 143
c122.667 -54.667 242 -82 358 -82c154 0 231.333 48 232 144c0.666992 36 -7 60 -23 72c-16 12.667 -28.667 22.334 -38 29.001s-24.333 13.667 -45 21c-21.333 6 -37.666 11 -48.999 15s-31.666 9.33301 -60.999 16c-176.667 40 -290.334 87.333 -341.001 142
c-50.667 54 -75.334 118.667 -74.001 194c0 104 37.667 182 113 234s178.333 77.667 309 77z" />
    <glyph glyph-name="Scircumflex" unicode="&#x15c;" horiz-adv-x="1259" 
d="M977 1532h-180l-144 156l-145 -156h-180l227 233h195zM106 1044c0 134.667 48.6689 236.665 146.002 305.998s230.666 104 399.999 104s330.333 -37.667 483 -113l-64 -172c-46 27.333 -111.333 51.333 -196 72s-169 31 -253 31s-151.333 -17.667 -202 -53
s-76 -83 -76 -143s22.667 -109.667 68 -149c16.667 -15.333 44 -30.333 82 -45s94.333 -32 169 -52s134 -37 178 -51c117.333 -37.333 200.666 -81.333 249.999 -132c63.333 -64.667 95 -148 95 -250c0 -138 -49.333 -242 -148 -312s-233 -105 -403 -105
c-100.667 0 -201 12.667 -301 38s-181.333 54.666 -244 87.999l60 175c170.667 -78 331 -117 481 -117c214.667 0 321.667 69 321 207c0 54.667 -19.333 99.334 -58 134.001s-134.667 71.667 -288 111c-61.333 16.667 -110 30.334 -146 41.001c-36 10 -79.667 27 -131 51
s-91 49.333 -119 76s-52.333 62.667 -73 108c-20.667 44.667 -31 95.334 -31 152.001z" />
    <glyph glyph-name="scircumflex" unicode="&#x15d;" horiz-adv-x="995" 
d="M844 1194h-180l-144 217l-145 -217h-180l227 305h194zM506 1081c130.667 0 257.664 -24.333 380.997 -73l-37 -142c-113.333 42 -220.666 63.333 -321.999 64c-151.333 0 -227 -47.333 -227 -142c0 -48.667 20 -83.667 60 -105c25.333 -13.333 64.333 -27 117 -41
c52.667 -13.333 93.334 -24 122.001 -32s56.334 -16.333 83.001 -25c80.667 -26 142.667 -61.333 186 -106s65 -105.334 65 -182.001c0 -104 -39.667 -182.333 -119 -235c-79.333 -52 -186.333 -78 -321 -78s-272.667 30.667 -414 92l45 143
c122.667 -54.667 242 -82 358 -82c154 0 231.333 48 232 144c0.666992 36 -7 60 -23 72c-16 12.667 -28.667 22.334 -38 29.001s-24.333 13.667 -45 21c-21.333 6 -37.666 11 -48.999 15s-31.666 9.33301 -60.999 16c-176.667 40 -290.334 87.333 -341.001 142
c-50.667 54 -75.334 118.667 -74.001 194c0 104 37.667 182 113 234s178.333 77.667 309 77z" />
    <glyph glyph-name="Scedilla" unicode="&#x15e;" horiz-adv-x="1271" 
d="M106 1044c0 134.667 48.6699 236.664 146.003 305.997s230.666 104 399.999 104s330.333 -37.667 483 -113l-64 -172c-46 27.333 -111.333 51.333 -196 72s-169 31 -253 31s-151.333 -17.667 -202 -53s-76 -83 -76 -143s22.667 -109.667 68 -149
c16.667 -15.333 44 -30.333 82 -45s94.333 -32 169 -52s134 -37 178 -51c117.333 -37.333 200.666 -81.333 249.999 -132c63.333 -64.667 95 -148 95 -250c0 -130 -43.667 -229.667 -131 -299s-207 -108 -359 -116l-32 -103c113.333 4 170 -42.333 170 -139
c0 -102.667 -70.333 -154 -211 -154c-64 0 -119.333 11 -166 33l16 86c35.333 -16.667 81.666 -25 138.999 -25s86 19.333 86 58c0 50.667 -43.667 69.667 -131 57l-35 47l48 140c-92 4 -182.667 18 -272 42s-162 51.333 -218 82l60 175c170.667 -78 331 -117 481 -117
c214.667 0 321.667 69 321 207c0 54.667 -19.333 99.334 -58 134.001s-134.667 71.667 -288 111c-61.333 16.667 -110 30.334 -146 41.001c-36 10 -79.667 27 -131 51s-91 49.333 -119 76s-52.333 62.667 -73 108c-20.667 44.667 -31 95.334 -31 152.001z" />
    <glyph glyph-name="scedilla" unicode="&#x15f;" horiz-adv-x="995" 
d="M506 1081c130.667 0 257.665 -24.333 380.998 -73l-37 -142c-113.333 42 -220.666 63.333 -321.999 64c-151.333 0 -227 -47.333 -227 -142c0 -48.667 20 -83.667 60 -105c25.333 -13.333 64.333 -27 117 -41c52.667 -13.333 93.334 -24 122.001 -32
s56.334 -16.333 83.001 -25c80.667 -26 142.667 -61.333 186 -106s65 -110.334 65 -197.001s-34.667 -156 -104 -208s-161 -81.333 -275 -88l-35 -107c113.333 4 170 -42.333 170 -139c0 -102.667 -70.333 -154 -211 -154c-64 0 -119.333 11 -166 33l17 86
c35.333 -16.667 81.666 -25 138.999 -25s86 19.333 86 58c0 50.667 -43.667 69.667 -131 57l-35 47l49 144c-124 8 -243.333 38 -358 90l45 143c122.667 -54.667 242 -82 358 -82c154 0 231.333 48 232 144c0.666992 36 -7 60 -23 72c-16 12.667 -28.667 22.334 -38 29.001
s-24.333 13.667 -45 21c-21.333 6 -37.666 11 -48.999 15s-31.666 9.33301 -60.999 16c-176.667 40 -290.334 87.333 -341.001 142c-50.667 54 -75.334 118.667 -74.001 194c0 104 37.667 182 113 234s178.333 77.667 309 77z" />
    <glyph glyph-name="Scaron" unicode="&#x160;" horiz-adv-x="1271" 
d="M963 1765l-228 -233h-194l-228 233h181l145 -155l143 155h181zM106 1044c0 134.667 48.6689 236.665 146.002 305.998s230.666 104 399.999 104s330.333 -37.667 483 -113l-64 -172c-46 27.333 -111.333 51.333 -196 72s-169 31 -253 31s-151.333 -17.667 -202 -53
s-76 -83 -76 -143s22.667 -109.667 68 -149c16.667 -15.333 44 -30.333 82 -45s94.333 -32 169 -52s134 -37 178 -51c117.333 -37.333 200.666 -81.333 249.999 -132c63.333 -64.667 95 -148 95 -250c0 -138 -49.333 -242 -148 -312s-233 -105 -403 -105
c-100.667 0 -201 12.667 -301 38s-181.333 54.666 -244 87.999l60 175c170.667 -78 331 -117 481 -117c214.667 0 321.667 69 321 207c0 54.667 -19.333 99.334 -58 134.001s-134.667 71.667 -288 111c-61.333 16.667 -110 30.334 -146 41.001c-36 10 -79.667 27 -131 51
s-91 49.333 -119 76s-52.333 62.667 -73 108c-20.667 44.667 -31 95.334 -31 152.001z" />
    <glyph glyph-name="scaron" unicode="&#x161;" horiz-adv-x="995" 
d="M831 1499l-227 -305h-194l-228 305h180l146 -217l143 217h180zM506 1081c130.667 0 257.664 -24.333 380.997 -73l-37 -142c-113.333 42 -220.666 63.333 -321.999 64c-151.333 0 -227 -47.333 -227 -142c0 -48.667 20 -83.667 60 -105
c25.333 -13.333 64.333 -27 117 -41c52.667 -13.333 93.334 -24 122.001 -32s56.334 -16.333 83.001 -25c80.667 -26 142.667 -61.333 186 -106s65 -105.334 65 -182.001c0 -104 -39.667 -182.333 -119 -235c-79.333 -52 -186.333 -78 -321 -78s-272.667 30.667 -414 92
l45 143c122.667 -54.667 242 -82 358 -82c154 0 231.333 48 232 144c0.666992 36 -7 60 -23 72c-16 12.667 -28.667 22.334 -38 29.001s-24.333 13.667 -45 21c-21.333 6 -37.666 11 -48.999 15s-31.666 9.33301 -60.999 16c-176.667 40 -290.334 87.333 -341.001 142
c-50.667 54 -75.334 118.667 -74.001 194c0 104 37.667 182 113 234s178.333 77.667 309 77z" />
    <glyph glyph-name="Tcommaaccent" unicode="&#x162;" horiz-adv-x="1251" 
d="M709 -92c0 -82.667 -20 -172 -60 -268h-131c26 104.667 38.333 194 37 268h154zM1223 1434v-177h-484v-1257h-227v1257h-479v177h1190z" />
    <glyph glyph-name="tcommaaccent" unicode="&#x163;" horiz-adv-x="751" 
d="M522 -92c0 -65.333 -9.33301 -124.333 -28 -177s-29 -83 -31 -91h-131c26 104.667 38.333 194 37 268h153zM399 1372v-307h295v-152h-295v-598c0 -65.333 11.333 -111 34 -137c22 -26 56.333 -39 103 -39s98.667 8.33301 156 25l8 -146
c-61.333 -22.667 -138 -34 -230 -34s-162 24.667 -210 74s-72 133 -72 251v604h-151v152h151l31 307h180z" />
    <glyph glyph-name="Tcaron" unicode="&#x164;" horiz-adv-x="1251" 
d="M950 1765l-227 -233h-195l-227 233h180l146 -155l143 155h180zM1223 1434v-177h-484v-1257h-227v1257h-479v177h1190z" />
    <glyph glyph-name="tcaron" unicode="&#x165;" horiz-adv-x="745" 
d="M399 1372v-307h295v-152h-295v-598c0 -65.333 11.333 -111 34 -137c22 -26 56.333 -39 103 -39s98.667 8.33301 156 25l8 -146c-61.333 -22.667 -138 -34 -230 -34s-162 24.667 -210 74s-72 133 -72 251v604h-151v152h151l31 307h180zM520 1487l150 -0.000976562
c0 -75.333 -14.333 -173.666 -43 -294.999h-107v295z" />
    <glyph glyph-name="Tbar" unicode="&#x166;" horiz-adv-x="1253" 
d="M1223 1434v-177h-484v-481h318v-102h-318v-674h-227v674h-317v102h317v481h-479v177h1190z" />
    <glyph glyph-name="tbar" unicode="&#x167;" horiz-adv-x="751" 
d="M399 1372v-307h295v-152h-295v-188h295v-76h-295v-334c0 -65.333 11.333 -111 34 -137c22 -26 56.333 -39 103 -39s98.667 8.33301 156 25l8 -146c-61.333 -22.667 -138 -34 -230 -34s-162 24.667 -210 74s-72 133 -72 251v340h-151v76h151v188h-151v152h151l31 307h180z
" />
    <glyph glyph-name="Utilde" unicode="&#x168;" horiz-adv-x="1480" 
d="M864 1563c-27.333 0 -73.668 14.334 -139.001 43.001c-62.667 31.333 -105.667 47 -129 47c-39.333 0 -72 -24.667 -98 -74l-74 31c36.667 116 101.334 174 194.001 174c32.667 0 79.334 -14.333 140.001 -43c57.333 -30 100.333 -45 129 -45
c40.667 -0.666992 74 23.666 100 72.999l74 -32c-36.667 -116 -102.334 -174 -197.001 -174zM1325 1434l0.00195312 -920.001c0 -168 -54 -299 -162 -393s-250 -141 -426 -141s-317 48.333 -423 145s-158.667 226.334 -158 389.001v920h227v-928
c0 -106.667 33.667 -190.667 101 -252s152.666 -92 255.999 -92s188.666 30.333 255.999 91s101.333 145 102 253v928h227z" />
    <glyph glyph-name="utilde" unicode="&#x169;" horiz-adv-x="1241" 
d="M737 1225c-27.333 0 -73.668 14.333 -139.001 43c-62.667 31.333 -105.667 47 -129 47c-39.333 0 -72 -24.667 -98 -74l-74 31c36.667 116 101.667 174 195 174c32.667 0 78.334 -14.667 137.001 -44s105.334 -44 140.001 -44s65 24.667 91 74l74 -33
c-36.667 -116 -102.334 -174 -197.001 -174zM339.998 414c0 -178 86 -267.001 258 -267.001c88 -0.666992 157.333 33 208 101c51.333 68 77 149.333 77 244v573h211v-1065h-185l-16 180c-80.667 -131.333 -205.667 -196.666 -375 -195.999
c-259.333 0 -389 136.333 -389 409v672h211v-651z" />
    <glyph glyph-name="Umacron" unicode="&#x16a;" horiz-adv-x="1480" 
d="M1051 1729v-125h-623v125h623zM1325 1434l0.00195312 -920.001c0 -168 -54 -299 -162 -393s-250 -141 -426 -141s-317 48.333 -423 145s-158.667 226.334 -158 389.001v920h227v-928c0 -106.667 33.667 -190.667 101 -252s152.666 -92 255.999 -92
s188.666 30.333 255.999 91s101.333 145 102 253v928h227z" />
    <glyph glyph-name="umacron" unicode="&#x16b;" horiz-adv-x="1241" 
d="M924 1391v-125h-623v125h623zM340 414c0 -178 86 -267.001 258 -267.001c88 -0.666992 157.333 33 208 101c51.333 68 77 149.333 77 244v573h211v-1065h-185l-16 180c-80.667 -131.333 -205.667 -196.666 -375 -195.999c-259.333 0 -389 136.333 -389 409v672h211v-651z
" />
    <glyph glyph-name="Ubreve" unicode="&#x16c;" horiz-adv-x="1480" 
d="M737 1548c-172 0 -266.667 73.667 -284 221l127 9c18.667 -80.667 72 -121 160 -121s139.667 40.333 155 121l127 -9c-18 -147.333 -113 -221 -285 -221zM1325 1434l0.00195312 -920.001c0 -168 -54 -299 -162 -393s-250 -141 -426 -141s-317 48.333 -423 145
s-158.667 226.334 -158 389.001v920h227v-928c0 -106.667 33.667 -190.667 101 -252s152.666 -92 255.999 -92s188.666 30.333 255.999 91s101.333 145 102 253v928h227z" />
    <glyph glyph-name="ubreve" unicode="&#x16d;" horiz-adv-x="1241" 
d="M610 1319c46.667 0.666992 81.667 12.333 105 35s41 59.334 53 110.001l127 -14c-12 -83.333 -41.333 -144 -88 -182c-46.667 -38.667 -112.334 -58 -197.001 -58c-84 0 -149.333 19.333 -196 58s-76 99.334 -88 182.001l127 14c12 -50.667 29.667 -87.334 53 -110.001
c22.667 -22.667 57.334 -34.334 104.001 -35.001zM340 413.999c0 -178 86 -267.001 258 -267.001c88 -0.666992 157.333 33 208 101c51.333 68 77 149.333 77 244v573h211v-1065h-185l-16 180c-80.667 -131.333 -205.667 -196.666 -375 -195.999
c-259.333 0 -389 136.333 -389 409v672h211v-651z" />
    <glyph glyph-name="Uring" unicode="&#x16e;" horiz-adv-x="1480" 
d="M738 1837c-29.333 0 -53.999 -9 -73.999 -27s-29.667 -46 -29 -84c0 -37.333 10 -64.666 30 -81.999c19.333 -17.333 43.666 -26 72.999 -26s54.333 8.66699 75 26s31 44.666 31 81.999s-10.333 65.333 -31 84c-20.667 18 -45.667 27 -75 27zM738.001 1929
c62.667 0 114.669 -17.332 156.002 -51.999s62 -84.334 62 -149.001c0 -65.333 -20.333 -115.333 -61 -150s-92.334 -52 -155.001 -52s-114.667 17.333 -156 52s-62 84.667 -62 150s20.667 115 62 149c41.333 34.667 92.666 52 153.999 52zM1325 1434l0.00195312 -920.001
c0 -168 -54 -299 -162 -393s-250 -141 -426 -141s-317 48.333 -423 145s-158.667 226.334 -158 389.001v920h227v-928c0 -106.667 33.667 -190.667 101 -252s152.666 -92 255.999 -92s188.666 30.333 255.999 91s101.333 145 102 253v928h227z" />
    <glyph glyph-name="uring" unicode="&#x16f;" horiz-adv-x="1241" 
d="M717 1389c0 38 -10.333 65.667 -31 83s-45.667 26.333 -75 27c-28.667 -0.666992 -53 -9.66699 -73 -27s-30 -45 -30 -83s10 -65.667 30 -83s44.667 -26 74 -26s54 8.66699 74 26c20.667 17.333 31 45 31 83zM611 1591c62 0 113.668 -17.332 155.001 -51.999
s62.333 -84.334 63 -149.001c0 -65.333 -20.333 -115.333 -61 -150c-41.333 -34.667 -93.333 -52 -156 -52s-114.334 17.333 -155.001 52s-61 84.667 -61 150s20 115 60 149c41.333 34.667 93 52 155 52zM340.001 414.001c0 -178 86 -267.001 258 -267.001
c88 -0.666992 157.333 33 208 101c51.333 68 77 149.333 77 244v573h211v-1065h-185l-16 180c-80.667 -131.333 -205.667 -196.666 -375 -195.999c-259.333 0 -389 136.333 -389 409v672h211v-651z" />
    <glyph glyph-name="Uhungarumlaut" unicode="&#x170;" horiz-adv-x="1480" 
d="M803 1765l-174 -233h-158l133 233h199zM1130 1765l-174 -233h-157l133 233h198zM1325 1434l0.00195312 -920.001c0 -168 -54 -299 -162 -393s-250 -141 -426 -141s-317 48.333 -423 145s-158.667 226.334 -158 389.001v920h227v-928c0 -106.667 33.667 -190.667 101 -252
s152.666 -92 255.999 -92s188.666 30.333 255.999 91s101.333 145 102 253v928h227z" />
    <glyph glyph-name="uhungarumlaut" unicode="&#x171;" horiz-adv-x="1241" 
d="M1004 1499l-175 -305h-157l133 305h199zM676 1499l-174 -305h-158l133 305h199zM340 414c0 -178 86 -267.001 258 -267.001c88 -0.666992 157.333 33 208 101c51.333 68 77 149.333 77 244v573h211v-1065h-185l-16 180c-80.667 -131.333 -205.667 -196.666 -375 -195.999
c-259.333 0 -389 136.333 -389 409v672h211v-651z" />
    <glyph glyph-name="Uogonek" unicode="&#x172;" horiz-adv-x="1480" 
d="M1325 1434l0.00390625 -920.001c0 -130 -33.333 -238.667 -100 -326s-158.334 -148 -275.001 -182c-46.667 -28.667 -78 -56 -94 -82s-24.333 -53.667 -25 -83c0.666992 -28.667 7.66699 -50.334 21 -65.001s31 -22 53 -22s47.333 4.33301 76 13l12 -109
c-35.333 -16.667 -77.333 -25 -126 -25s-89.334 13.667 -122.001 41s-49 72.333 -49 135s30.667 120.334 92 173.001c-10.667 -1.33301 -27 -2 -49 -2c-177.333 0 -319 48.333 -425 145s-158.667 226.334 -158 389.001v920h227v-928c0 -106.667 33.667 -190.667 101 -252
s152.666 -92 255.999 -92s188.666 30.333 255.999 91s101.333 145 102 253v928h227z" />
    <glyph glyph-name="uogonek" unicode="&#x173;" horiz-adv-x="1241" 
d="M340 414c0 -178 86.001 -267.001 258.001 -267.001c88 -0.666992 157.333 33 208 101c51.333 68 77 149.333 77 244v573h211v-1065c-72.667 -45.333 -109 -100 -109 -164c0 -25.333 7.33301 -45.333 22 -60c14 -14.667 31.667 -22 53 -22s46.333 4.33301 75 13l12 -109
c-35.333 -16.667 -77.333 -25 -126 -25s-89.334 13.667 -122.001 41s-49 68.333 -49 123c0 78 37 145.667 111 203h-52l-16 180c-80.667 -131.333 -205.667 -196.666 -375 -195.999c-259.333 0 -389 136.333 -389 409v672h211v-651z" />
    <glyph glyph-name="Wcircumflex" unicode="&#x174;" horiz-adv-x="2029" 
d="M1352 1532h-181l-143 156l-145 -156h-181l228 233h194zM1980 1434l-403.002 -1434h-279l-284 1085l-283 -1085h-278l-404 1434h248l188 -703c16.667 -61.333 38.334 -150.333 65.001 -267s42.667 -184.667 48 -204h2l295 1159h238l297 -1159h2
c6.66699 23.333 23.334 93.666 50.001 210.999s48 205.333 64 264l189 699h245z" />
    <glyph glyph-name="wcircumflex" unicode="&#x175;" horiz-adv-x="1691" 
d="M1180 1194h-181l-143 217l-145 -217h-181l228 305h194zM1640 1065l-311 -1065h-239l-246 762l-244 -762h-240l-309 1065h219l224 -836l258 820h188l256 -824l225 840h219z" />
    <glyph glyph-name="Ycircumflex" unicode="&#x176;" horiz-adv-x="1310" 
d="M993 1532h-180l-143 156l-146 -156h-180l227 233h195zM770 0h-227v561l-516 873h235l393 -682l394 682h235l-514 -871v-563z" />
    <glyph glyph-name="ycircumflex" unicode="&#x177;" horiz-adv-x="1202" 
d="M954 1194h-180l-143 217l-146 -217h-180l227 305h195zM366 -356c-74.667 0 -149 6.00098 -223 18.001l7 162c68 -10.667 120.333 -16.334 157 -17.001c83.333 0 145 50.667 185 152l16 41l-451 1065h236l328 -829l303 829h219l-432 -1131
c-45.333 -116 -95.333 -193.333 -150 -232c-55.333 -38.667 -120.333 -58 -195 -58z" />
    <glyph glyph-name="Ydieresis" unicode="&#x178;" horiz-adv-x="1310" 
d="M881 1759c70.667 0 106 -33 106 -99s-35.333 -99 -106 -99c-32.667 0.666992 -58 9.66699 -76 27s-27 41.333 -27 72s9 54.667 27 72s43.333 26.333 76 27zM434 1561c-70.667 0 -106 33 -106 99s35 99 105 99s105.333 -33.333 106 -100
c0.666992 -65.333 -34.333 -98 -105 -98zM770 0h-227v561l-516 873h235l393 -682l394 682h235l-514 -871v-563z" />
    <glyph glyph-name="Zacute" unicode="&#x179;" horiz-adv-x="1277" 
d="M907 1765l-186 -233h-158l146 233h198zM1188 1434v-150l-840 -1114l410 6h430v-176h-1116v150l837 1112l-413 -5h-392v177h1084z" />
    <glyph glyph-name="zacute" unicode="&#x17a;" horiz-adv-x="1058" 
d="M735 1497l-186 -303h-158l146 303h198zM975 1065v-168l-660 -752l351 7h309v-152h-893v164l666 756l-375 -7h-277v152h879z" />
    <glyph glyph-name="Zdotaccent" unicode="&#x17b;" horiz-adv-x="1277" 
d="M631 1759c70.667 0 106 -32.6631 106 -97.9961s-35.333 -98 -106 -98c-32.667 -0.666992 -58.334 7.66602 -77.001 24.999s-28 41.666 -28 72.999s9.33301 55.666 28 72.999s44.334 25.666 77.001 24.999zM1188 1434v-150l-840 -1114l410 6h430v-176h-1116v150l837 1112
l-413 -5h-392v177h1084z" />
    <glyph glyph-name="zdotaccent" unicode="&#x17c;" horiz-adv-x="1058" 
d="M518 1432c78 0 117 -34.667 117 -104s-39 -103.666 -117 -102.999c-78 -0.666992 -117 33.666 -117 102.999s39 104 117 104zM975 1065v-168l-660 -752l351 7h309v-152h-893v164l666 756l-375 -7h-277v152h879z" />
    <glyph glyph-name="Zcaron" unicode="&#x17d;" horiz-adv-x="1277" 
d="M956 1765l-227 -233h-194l-228 233h180l146 -155l143 155h180zM1188 1434v-150l-840 -1114l410 6h430v-176h-1116v150l837 1112l-413 -5h-392v177h1084z" />
    <glyph glyph-name="zcaron" unicode="&#x17e;" horiz-adv-x="1058" 
d="M842 1499l-228 -305h-194l-227 305h180l145 -217l144 217h180zM975 1065v-168l-660 -752l351 7h309v-152h-893v164l666 756l-375 -7h-277v152h879z" />
    <glyph glyph-name="AEacute" unicode="&#x1fc;" horiz-adv-x="2121" 
d="M1604 1765l-187 -233h-157l145 233h199zM977 557v700h-21l-399 -700h420zM2001 1434v-177h-797v-471h686v-176h-686v-434h817v-176h-1044v381h-520l-215 -381h-234l815 1434h1178z" />
    <glyph glyph-name="aeacute" unicode="&#x1fd;" horiz-adv-x="1904" 
d="M1237 1487l-186 -303h-158l145 303h199zM1329 915c-191.333 0 -299 -102.333 -323 -307h612c0 92.667 -23.667 167 -71 223s-120 84 -218 84zM510 141c73.333 0 136.667 14.332 190 42.999s89.666 69 108.999 121c-18 57.333 -27.667 118 -29 182
c-69.333 6.66699 -137.666 10.334 -204.999 11.001c-192.667 0 -288.667 -61.667 -288 -185c0 -114.667 74.333 -172 223 -172zM614.001 1081c169.333 0 287 -38.666 353 -115.999c95.333 78 217.666 117 366.999 117s268 -46.333 356 -139
c87.333 -92 131 -217.333 131 -376c0 -61.333 -2 -98 -6 -110h-814c2 -96.667 37.667 -171.667 107 -225s161.666 -80 276.999 -80s232.666 27 351.999 81l39 -157c-135.333 -61.333 -274.666 -92 -417.999 -92c-233.333 0 -396 65.333 -488 196
c-31.333 -53.333 -80.666 -99.333 -147.999 -138s-159 -58 -275 -58s-208 27 -276 81c-67.333 54 -101 137.667 -101 251s42.333 195.333 127 246c84.667 50 206 75 364 75c60 0 135 -4 225 -12c9.33301 57.333 21 103.666 35 138.999c-8 58.667 -33.667 99 -77 121
s-114.666 33 -213.999 33s-215.333 -18.667 -348 -56l-30 160c138.667 39.333 292.667 59 462 59z" />
    <glyph glyph-name="Oslashacute" unicode="&#x1fe;" horiz-adv-x="1642" 
d="M1047 1765l-187 -233h-158l146 233h199zM1315 720c0 178 -49.333 317.667 -148 419l-594 -918c72.667 -39.333 156 -59 250 -59c151.333 0 271.333 48.333 360 145c88 97.333 132 235 132 413zM823 1272c-150 0 -269.667 -49.332 -359 -147.999
s-134 -237.334 -134 -416.001c0 -178 49 -316.333 147 -415l596 917c-74 41.333 -157.333 62 -250 62zM823 1454c131.333 0 251 -26 359 -78l80 123h141l-121 -184c181.333 -135.333 272 -335.333 272 -600c0 -221.333 -66 -399.333 -198 -534s-309.667 -201.667 -533 -201
c-134 0 -253.333 25 -358 75l-78 -121h-141l116 183c-181.333 132.667 -272 332 -272 598c0 223.333 66.667 402.333 200 537s311 202 533 202z" />
    <glyph glyph-name="oslashacute" unicode="&#x1ff;" horiz-adv-x="1275" 
d="M823 1497l-186 -303h-158l146 303h198zM641 915c-106.667 0 -190.333 -33 -251 -99c-60.667 -66.667 -91 -160 -91 -280s28.667 -214 86 -282l410 629c-44 21.333 -95.333 32 -154 32zM977.001 540c0 126.667 -37 225.332 -111 295.999l-413 -639
c52 -31.333 114.667 -47 188 -47c104 0 186 33.333 246 100s90 163.334 90 290.001zM639.001 1083c90 0 174.668 -16.334 254.001 -49.001l68 103h102l-94 -144c150 -98 225 -251.667 225 -461c0 -170.667 -51 -305 -153 -403s-236 -147 -402 -147
c-106.667 0 -202.334 21 -287.001 63l-69 -108h-105l101 153c-131.333 98 -197 245.333 -197 442c0 170.667 50.667 305.334 152 404.001c102 98 237 147 405 147z" />
    <glyph glyph-name="Scommaaccent" unicode="&#x218;" horiz-adv-x="1259" 
d="M748 -92c0 -82.667 -20 -172 -60 -268h-131c26 104.667 38.333 194 37 268h154zM106 1044c0 134.667 48.6689 236.665 146.002 305.998s230.666 104 399.999 104s330.333 -37.667 483 -113l-64 -172c-46 27.333 -111.333 51.333 -196 72s-169 31 -253 31
s-151.333 -17.667 -202 -53s-76 -83 -76 -143s22.667 -109.667 68 -149c16.667 -15.333 44 -30.333 82 -45s94.333 -32 169 -52s134 -37 178 -51c117.333 -37.333 200.666 -81.333 249.999 -132c63.333 -64.667 95 -148 95 -250c0 -138 -49.333 -242 -148 -312
s-233 -105 -403 -105c-100.667 0 -201 12.667 -301 38s-181.333 54.666 -244 87.999l60 175c170.667 -78 331 -117 481 -117c214.667 0 321.667 69 321 207c0 54.667 -19.333 99.334 -58 134.001s-134.667 71.667 -288 111c-61.333 16.667 -110 30.334 -146 41.001
c-36 10 -79.667 27 -131 51s-91 49.333 -119 76s-52.333 62.667 -73 108c-20.667 44.667 -31 95.334 -31 152.001z" />
    <glyph glyph-name="scommaaccent" unicode="&#x219;" horiz-adv-x="995" 
d="M582 -92c0 -82.667 -20 -172 -60 -268h-131c26 104.667 38.333 194 37 268h154zM506 1081c130.667 0 257.664 -24.333 380.997 -73l-37 -142c-113.333 42 -220.666 63.333 -321.999 64c-151.333 0 -227 -47.333 -227 -142c0 -48.667 20 -83.667 60 -105
c25.333 -13.333 64.333 -27 117 -41c52.667 -13.333 93.334 -24 122.001 -32s56.334 -16.333 83.001 -25c80.667 -26 142.667 -61.333 186 -106s65 -105.334 65 -182.001c0 -104 -39.667 -182.333 -119 -235c-79.333 -52 -186.333 -78 -321 -78s-272.667 30.667 -414 92
l45 143c122.667 -54.667 242 -82 358 -82c154 0 231.333 48 232 144c0.666992 36 -7 60 -23 72c-16 12.667 -28.667 22.334 -38 29.001s-24.333 13.667 -45 21c-21.333 6 -37.666 11 -48.999 15s-31.666 9.33301 -60.999 16c-176.667 40 -290.334 87.333 -341.001 142
c-50.667 54 -75.334 118.667 -74.001 194c0 104 37.667 182 113 234s178.333 77.667 309 77z" />
    <glyph glyph-name="circumflex" unicode="&#x2c6;" horiz-adv-x="956" 
d="M805 1163h-180l-144 217l-145 -217h-180l227 305h195z" />
    <glyph glyph-name="caron" unicode="&#x2c7;" horiz-adv-x="956" 
d="M805 1468l-227 -305h-195l-227 305h180l145 -217l144 217h180z" />
    <glyph glyph-name="breve" unicode="&#x2d8;" horiz-adv-x="886" 
d="M442 1180c-84 0 -149.333 19 -196 57s-76 98.667 -88 182l127 15c12 -50.667 29.667 -87.667 53 -111c22.667 -23.333 57.334 -35 104.001 -35s81.667 11.667 105 35s41 60.333 53 111l127 -15c-12 -83.333 -41.333 -144 -88 -182s-112.334 -57 -197.001 -57z" />
    <glyph glyph-name="dotaccent" unicode="&#x2d9;" horiz-adv-x="530" 
d="M266 1401c78 0.666992 117 -33.667 117 -103s-39 -104 -117 -104s-116.667 34.667 -116 104c-0.666992 68.667 38 103 116 103z" />
    <glyph glyph-name="ring" unicode="&#x2da;" horiz-adv-x="710" 
d="M463 1358c0 38.667 -10.333 66.667 -31 84s-45.667 26 -75 26c-28.667 0 -53 -8.66699 -73 -26s-30 -45.333 -30 -84c0 -38 10 -65.667 30 -83s44.667 -26 74 -26s54 8.66699 74 26c20.667 17.333 31 45 31 83zM357 1561c62 -0.666992 113.668 -18.3311 155.001 -52.998
s62.333 -84.334 63 -149.001c0 -64.667 -20.333 -114.334 -61 -149.001c-41.333 -34.667 -93.333 -52.334 -156 -53.001c-62.667 0 -114.334 17.333 -155.001 52c-40.667 34 -61 83.667 -61 149s20 115.333 60 150c41.333 34.667 93 52.334 155 53.001z" />
    <glyph glyph-name="ogonek" unicode="&#x2db;" horiz-adv-x="630" 
d="M396 -246c21.333 0 46.335 4.33301 75.002 13l12 -109c-35.333 -16.667 -77 -25 -125 -25s-88.667 13.667 -122 41c-32.667 27.333 -49.334 68.333 -50.001 123c0 104 67 190 201 258l43 -55c-72.667 -45.333 -108.667 -100 -108 -164c0 -25.333 7.33301 -45.333 22 -60
c13.333 -14.667 30.666 -22 51.999 -22z" />
    <glyph glyph-name="tilde" unicode="&#x2dc;" horiz-adv-x="954" 
d="M600 1194c-27.333 0 -73.668 14.333 -139.001 43c-62.667 31.333 -105.667 47 -129 47c-39.333 0 -72.333 -24.667 -99 -74l-73 31c36.667 116 101.334 174 194.001 174c32.667 0 79.334 -14.333 140.001 -43c57.333 -30 103.333 -45 138 -45s65 24.667 91 74l74 -33
c-36.667 -116 -102.334 -174 -197.001 -174z" />
    <glyph glyph-name="hungarumlaut" unicode="&#x2dd;" horiz-adv-x="1003" 
d="M840 1468l-174 -305h-158l133 305h199zM512 1468l-174 -305h-158l133 305h199z" />
    <glyph glyph-name="Wgrave" unicode="&#x1e80;" horiz-adv-x="2029" 
d="M1014 1763l133 -231h-160l-172 231h199zM1980 1434l-403.002 -1434h-279l-284 1085l-283 -1085h-278l-404 1434h248l188 -703c16.667 -61.333 38.334 -150.333 65.001 -267s42.667 -184.667 48 -204h2l295 1159h238l297 -1159h2
c6.66699 23.333 23.334 93.666 50.001 210.999s48 205.333 64 264l189 699h245z" />
    <glyph glyph-name="wgrave" unicode="&#x1e81;" horiz-adv-x="1691" 
d="M633 1497h198l134 -303h-160zM1640 1065l-311 -1065h-239l-246 762l-244 -762h-240l-309 1065h219l224 -836l258 820h188l256 -824l225 840h219z" />
    <glyph glyph-name="Wacute" unicode="&#x1e82;" horiz-adv-x="2029" 
d="M1290 1765l-186 -233h-158l146 233h198zM1980 1434l-403.002 -1434h-279l-284 1085l-283 -1085h-278l-404 1434h248l188 -703c16.667 -61.333 38.334 -150.333 65.001 -267s42.667 -184.667 48 -204h2l295 1159h238l297 -1159h2
c6.66699 23.333 23.334 93.666 50.001 210.999s48 205.333 64 264l189 699h245z" />
    <glyph glyph-name="wacute" unicode="&#x1e83;" horiz-adv-x="1691" 
d="M1118 1497l-186 -303h-158l146 303h198zM1640 1065l-311 -1065h-239l-246 762l-244 -762h-240l-309 1065h219l224 -836l258 820h188l256 -824l225 840h219z" />
    <glyph glyph-name="Wdieresis" unicode="&#x1e84;" horiz-adv-x="2029" 
d="M1239 1759c70.667 0 106.333 -33.333 107 -100c0 -65.333 -35.667 -98 -107 -98c-32.667 0.666992 -58 9.66699 -76 27s-27 41.333 -27 72s9 55 27 73c18 17.333 43.333 26 76 26zM791.999 1759c70 0 105 -33 105 -99s-35 -99 -105 -99s-105.333 32.667 -106 98
c0.666992 66.667 36 100 106 100zM1980 1434l-403.002 -1434h-279l-284 1085l-283 -1085h-278l-404 1434h248l188 -703c16.667 -61.333 38.334 -150.333 65.001 -267s42.667 -184.667 48 -204h2l295 1159h238l297 -1159h2c6.66699 23.333 23.334 93.666 50.001 210.999
s48 205.333 64 264l189 699h245z" />
    <glyph glyph-name="wdieresis" unicode="&#x1e85;" horiz-adv-x="1691" 
d="M956 1325c0 70 37 105 111 105s111 -35 111 -105c0 -66.667 -37 -100 -111 -100s-111 33.333 -111 100zM616 1430c76.667 0 115 -35 115 -105c0 -66.667 -38.333 -100 -115 -100c-34.667 0.666992 -61.334 9.66699 -80.001 27s-28 42 -28 74s9.33301 57.333 28 76
s45.334 28 80.001 28zM1640 1065l-311 -1065h-239l-246 762l-244 -762h-240l-309 1065h219l224 -836l258 820h188l256 -824l225 840h219z" />
    <glyph glyph-name="germandbls.case" unicode="&#x1e9e;" horiz-adv-x="1488" 
d="M1391 328c0 -124 -42.6611 -216.67 -127.994 -278.003c-84.667 -61.333 -192.334 -91.666 -323.001 -90.999c-130.667 0 -252.334 19 -365.001 57l31 174c101.333 -38 195.666 -57 282.999 -57s155.333 17 204 51s73 85.333 73 154s-29.667 129.334 -89 182.001
c-24.667 22 -49 45 -73 69c-58.667 58 -88.334 132.667 -89.001 224c-0.666992 52.667 5 95 17 127c29.333 80.667 68 155 116 223c14.667 20.667 21.667 31.667 21 33c-114.667 57.333 -225.334 86 -332.001 86c-230.667 0 -346 -123 -346 -369v-913h-227v911
c0 173.333 49.333 307.666 148 402.999c99.333 94.667 234.333 142.667 405 144c210 0 411.333 -64 604 -192c0 -1.33301 -15.667 -24 -47 -68c-34.667 -49.333 -71.334 -106.666 -110.001 -171.999s-58 -130.333 -58 -195c0 -65.333 33.667 -126.666 101 -183.999
c28 -23.333 55.667 -48 83 -74c67.333 -64 101 -145.667 101 -245z" />
    <glyph glyph-name="Ygrave" unicode="&#x1ef2;" horiz-adv-x="1310" 
d="M662 1763l133 -231h-160l-172 231h199zM770 0h-227v561l-516 873h235l393 -682l394 682h235l-514 -871v-563z" />
    <glyph glyph-name="ygrave" unicode="&#x1ef3;" horiz-adv-x="1202" 
d="M397 1497h199l133 -303h-160zM366 -356c-74.667 0 -149 6.00098 -223 18.001l7 162c68 -10.667 120.333 -16.334 157 -17.001c83.333 0 145 50.667 185 152l16 41l-451 1065h236l328 -829l303 829h219l-432 -1131c-45.333 -116 -95.333 -193.333 -150 -232
c-55.333 -38.667 -120.333 -58 -195 -58z" />
    <glyph glyph-name="endash" unicode="&#x2013;" horiz-adv-x="1460" 
d="M1315 625v-158l-1170 -2v160h1170z" />
    <glyph glyph-name="emdash" unicode="&#x2014;" horiz-adv-x="1992" 
d="M1847 627v-160h-1702v160h1702z" />
    <glyph glyph-name="quoteleft" unicode="&#x2018;" horiz-adv-x="538" 
d="M298 1159c30.667 -0.666992 54.666 -9.66602 71.999 -26.999s26 -42 26 -74s-10.667 -58.333 -32 -79s-51.333 -31 -90 -31s-72 16.333 -100 49c-27.333 32.667 -41 77 -41 133c0 121.333 69.667 218.333 209 291l45 -73c-98 -50.667 -147 -118.334 -147 -203.001
c0 -12 0.666992 -21 2 -27c6.66699 27.333 25.334 41 56.001 41z" />
    <glyph glyph-name="quoteright" unicode="&#x2019;" horiz-adv-x="538" 
d="M143 1306c0 32 10.6689 58.002 32.002 78.002s51.666 30.333 90.999 31c40 0 73.333 -16.333 100 -49s40 -76.334 40 -131.001c0 -124 -69.667 -221 -209 -291l-45 72c98 50.667 147 119 147 205c0 1.33301 -0.333008 4.66602 -1 9.99902s-1 9.33301 -1 12
c-6.66699 -26 -25.334 -39 -56.001 -39s-54.667 9 -72 27s-26 43 -26 75z" />
    <glyph glyph-name="quotesinglbase" unicode="&#x201a;" horiz-adv-x="538" 
d="M266 213c40 0 73.334 -16.665 100.001 -49.998s40 -78 40 -134c0 -122.667 -69.667 -219 -209 -289l-45 72c98 50.667 147 118.667 147 204c0 1.33301 -0.333008 4.66602 -1 9.99902s-1 9.66602 -1 12.999c-6.66699 -26 -25 -39 -55 -39
c-65.333 -0 -98.333 33.333 -99 100c0 32.667 10.667 59.667 32 81s51.666 32 90.999 32z" />
    <glyph glyph-name="quotedblleft" unicode="&#x201c;" horiz-adv-x="913" 
d="M240 1147c0 -12 0.666016 -20.999 1.99902 -26.999c8 26 26.333 39 55 39c65.333 0 98 -32.667 98 -98c0.666992 -32.667 -9.66602 -59.667 -30.999 -81s-51.333 -32 -90 -32s-72 16.333 -100 49c-27.333 32.667 -41 78 -41 136c0 122.667 69.667 218.667 209 288l45 -71
c-98 -50.667 -147 -118.334 -147 -203.001zM671.999 1159c65.333 0 98 -32.666 98 -97.999c0 -32.667 -10.667 -59.667 -32 -81s-51.333 -32 -90 -32s-71.667 16.333 -99 49s-41 78 -41 136c0 122.667 69.667 218.667 209 288l45 -71
c-98 -50.667 -147.333 -118.334 -148 -203.001c0 -12 0.666992 -21 2 -27c8 26 26.667 39 56 39z" />
    <glyph glyph-name="quotedblright" unicode="&#x201d;" horiz-adv-x="913" 
d="M614 1204c-30.667 0 -53.999 8.99805 -69.999 26.998c-17.333 18 -26 43 -26 75s10.667 58.667 32 80s51.666 31.666 90.999 30.999c39.333 0 72.333 -16.333 99 -49s40 -77 40 -133c0 -122.667 -69.667 -219 -209 -289l-45 72c98 50.667 147.333 118.334 148 203.001
c0 2.66699 -0.333008 6.33398 -1 11.001s-1 8.33398 -1 11.001c-8 -26 -27.333 -39 -58 -39zM143.001 1306c0 32 10.6689 58.6689 32.002 80.002s51.666 31.666 90.999 30.999c40 0 73.333 -16.333 100 -49s40 -77 40 -133c0 -122.667 -69.667 -219 -209 -289l-45 72
c98 50.667 147 119 147 205c0 1.33301 -0.333008 4.66602 -1 9.99902s-1 9.33301 -1 12c-6.66699 -27.333 -25.334 -41 -56.001 -41s-54.667 9 -72 27s-26 43 -26 75z" />
    <glyph glyph-name="quotedblbase" unicode="&#x201e;" horiz-adv-x="905" 
d="M260 213c39.333 0 72.334 -16.333 99.001 -49s40 -77.667 40 -135c0 -122.667 -69.667 -219 -209 -289l-45 72c98 50.667 147.333 118.667 148 204c0 2.66699 -0.333008 6.66699 -1 12s-1 9 -1 11c-8 -26 -26.333 -39 -55 -39c-65.333 -0 -98.333 33.333 -99 100
c0 32.667 10.667 59.667 32 81s51.666 32 90.999 32zM635.001 213c39.333 0 72.334 -16.333 99.001 -49s40 -77.667 40 -135c0 -122.667 -69.667 -219 -209 -289l-45 72c98 50.667 147.333 118.667 148 204c0 2.66699 -0.333008 6.66699 -1 12s-1 9 -1 11
c-8 -26 -26.667 -39 -56 -39c-65.333 -0 -98 33.333 -98 100c0 32.667 10.667 59.667 32 81s51.666 32 90.999 32z" />
    <glyph glyph-name="dagger" unicode="&#x2020;" horiz-adv-x="1177" 
d="M1083 1114v-147l-323 24v92zM94 1114l324 -31v-92l-324 -24v147zM676 1436l-21 -1436h-131l-24 1436h176z" />
    <glyph glyph-name="daggerdbl" unicode="&#x2021;" horiz-adv-x="1251" 
d="M1120 1114v-147l-323 24v92zM131 1114l324 -31v-92l-324 -24v147zM1120 578v-152l-323 29v94zM131 578l324 -29v-94l-324 -29v152zM717 1436l-23 -1436h-133l-24 1436h180z" />
    <glyph glyph-name="bullet" unicode="&#x2022;" horiz-adv-x="843" 
d="M422 911c61.333 0 111.667 -17.668 151 -53.001s59 -85 59 -149c0 -63.333 -19.333 -113 -58 -149c-40 -36 -90.667 -54 -152 -54s-112 18 -152 54c-39.333 36 -59 85.333 -59 148s19.667 112.334 59 149.001c40 36 90.667 54 152 54z" />
    <glyph glyph-name="ellipsis" unicode="&#x2026;" horiz-adv-x="1355" 
d="M683 201c34.667 0 63 -10.333 85 -31s33 -48.334 33 -83.001s-11 -61.667 -33 -81s-50.667 -29 -86 -29s-63.333 9.66699 -84 29s-31 46.333 -31 81s10.667 62.334 32 83.001s49.333 31 84 31zM253 201c34.667 0 63 -10.333 85 -31s33 -48.334 33 -83.001
s-11 -61.667 -33 -81s-50.667 -29 -86 -29s-63.333 9.66699 -84 29s-31 46.333 -31 81s10.667 62.334 32 83.001s49.333 31 84 31zM1111 201c34.667 0 63 -10.333 85 -31s33 -48.334 33 -83.001s-11 -61.667 -33 -81s-50.667 -29 -86 -29s-63.333 9.66699 -84 29
s-31 46.333 -31 81s10.667 62.334 32 83.001s49.333 31 84 31z" />
    <glyph glyph-name="perthousand" unicode="&#x2030;" horiz-adv-x="2508" 
d="M584 1110c0 65.333 -15.333 116.667 -46 154s-71 55.666 -121 54.999c-50 0 -90.667 -19 -122 -57c-31.333 -37.333 -47 -88 -47 -152s16 -114.667 48 -152s72.333 -55.666 121 -54.999c48.667 0 88.667 18.333 120 55c31.333 36 47 86.667 47 152zM418 1456
c98.667 0 178.333 -31 239 -93s91 -145.667 91 -251s-30.667 -189.333 -92 -252s-141 -94 -239 -94c-98.667 0 -178.334 31 -239.001 93c-60 62 -90 145.667 -90 251s30.333 189.333 91 252s140.334 94 239.001 94zM2095 532.001c-49.333 0 -89.668 -19 -121.001 -57
s-47 -89 -47 -153s16 -114.667 48 -152s72.333 -55.666 121 -54.999c48.667 0 88.667 18.333 120 55c31.333 36 47 86.667 47 152s-15.667 116.666 -47 153.999s-71.666 56 -120.999 56zM2098 670.001c98.667 0 178.001 -31.333 238.001 -94s90.333 -146.667 91 -252
c0 -104 -30 -187.333 -90 -250c-60.667 -62.667 -140.334 -94 -239.001 -94s-178.334 31 -239.001 93s-91 145 -91 249s30.333 188 91 252s140.334 96 239.001 96zM1268 532.001c-49.333 0 -89.668 -19 -121.001 -57s-47 -89 -47 -153s16 -114.667 48 -152
s72.333 -55.666 121 -54.999c48.667 0 88.667 18.333 120 55c31.333 36 47 86.667 47 152s-15.667 116.666 -47 153.999s-71.666 56 -120.999 56zM937.996 322.001c0 104 30.667 188 92 252s141.333 96 240 96s177.667 -31.333 237 -94c60 -62.667 90 -146.667 90 -252
c0 -104 -30 -187.333 -90 -250s-139.333 -94 -238 -94s-178.667 31 -240 93c-60.667 62 -91 145 -91 249zM1335 1436l-821 -1436h-172l825 1436h168z" />
    <glyph glyph-name="guilsinglleft" unicode="&#x2039;" horiz-adv-x="745" 
d="M633 920l-295 -388l295 -395l-109 -110l-428 479v45l428 483z" />
    <glyph glyph-name="guilsinglright" unicode="&#x203a;" horiz-adv-x="745" 
d="M223 1034l426 -483v-45l-426 -479l-110 110l297 395l-297 388z" />
    <glyph glyph-name="fraction" unicode="&#x2044;" horiz-adv-x="843" 
d="M819 1436l-624 -1436h-172l624 1436h172z" />
    <glyph glyph-name="Euro" unicode="&#x20ac;" horiz-adv-x="1583" 
d="M998 1454c173.333 0 322.666 -30.667 447.999 -92l-62 -164c-101.333 49.333 -216.333 74 -345 74s-236 -33.333 -322 -100s-144 -159 -174 -277h659l-39 -100h-637c-2.66699 -19.333 -4 -47.333 -4 -84s1.33301 -64 4 -82h576l-35 -101h-524
c28.667 -116 86.334 -206 173.001 -270s198.334 -96 335.001 -96c96.667 0 207.667 23 333 69l2 -176c-109.333 -50.667 -234.666 -75.667 -375.999 -75c-186 0 -342.333 48 -469 144s-207.334 230.667 -242.001 404h-180l37 101h131c-2.66699 35.333 -4 67.333 -4 96
s0.666992 52 2 70h-174l36 100h152c34 175.333 115.667 312.333 245 411s280.666 148 453.999 148z" />
    <glyph glyph-name="trademark" unicode="&#x2122;" horiz-adv-x="1630" 
d="M690 1434v-109h-221v-526h-111v526h-221v109h553zM1460 1434v-635h-110v420l-168 -330h-78l-178 330v-420h-111v635h109l219 -420l207 420h110z" />
    <glyph glyph-name="commaaccent" unicode="&#xf6c3;" horiz-adv-x="0" 
d="M-195 -92c0 -84 -19.667 -173.333 -59 -268h-131c26 104.667 38.333 194 37 268h153z" />
    <glyph glyph-name="apple" unicode="&#xf8ff;" horiz-adv-x="2893" 
d="M1162 670c-20 0 -29.667 -13.667 -29 -41h51c5.33301 27.333 -2 41 -22 41zM1783 672c-20 0 -30 -13.667 -30 -41h51c6 27.333 -1 41 -21 41zM2401 668c-12.667 0 -19 -18 -19 -54s6.33301 -53.667 19 -53c12.667 -0.666992 19 17 19 53s-6.33301 54 -19 54zM2095 655
c-9.33301 0 -19 -4.66699 -29 -14v-76c9.33301 -6.66699 17.666 -10 25 -10c20.667 0 31 16.667 31 50s-9 50 -27 50zM850 655c-9.33301 0 -18.999 -4.66699 -28.999 -14v-76c9.33301 -6.66699 17.666 -10 24.999 -10c20.667 0 31 16.667 31 50s-9 50 -27 50zM1462 659
c-23.333 0 -35 -17.333 -35 -52s8.33301 -52 25 -52c10.667 0 21 4.66699 31 14v84c-8.66699 4 -15.667 6 -21 6zM276.001 819v-90h60v-76h-60v-39c0 -31.333 21.333 -41.333 64 -30l2 -76c-24.667 -10.667 -54.334 -16 -89.001 -16s-60.667 8 -78 24
s-25.666 43.333 -24.999 82v55h-48v76h48l16 90h110zM2728 819l0.000976562 -90h57v-76h-57v-39c0 -31.333 20.333 -41.333 61 -30l2 -76c-24.667 -10.667 -54.334 -16 -89 -16c-34.667 0 -60.334 8 -77.001 24c-17.333 16 -26 43.333 -26 82v55h-45v76h45l16 90h113z
M1773 739c89.333 0 134.001 -31.333 134.001 -94c0 -23.333 -0.666992 -41 -2 -53h-150c3.33301 -23.333 21.666 -35 54.999 -35s62 3.33301 86 10v-59c-36.667 -13.333 -72.667 -20.333 -108 -21c-100 0 -150 41.667 -150 125c0.666992 84.667 45.667 127 135 127z
M1161 737c83.333 0 125 -31.333 125 -94c0 -23.333 -0.666992 -41 -2 -53h-149c4 -23.333 23 -35 57 -35s62 3.33301 84 10v-59c-34 -13.333 -70.333 -20.333 -109 -21c-100 0 -149.667 41.667 -149 125c0 84.667 47.667 127 143 127zM2400 737h1.99902
c92.667 0 139.334 -41.667 140.001 -125c0 -84.667 -46 -127 -138 -127h-4c-48 0 -82.667 10.333 -104 31c-21.333 20 -32.333 52 -33 96c0.666992 44 11.667 76 33 96s56 29.667 104 29zM2140 737c31.333 0.666992 55.666 -9.66699 73 -31
c17.333 -21.333 25.666 -52 25 -92c0 -86 -34 -129 -102 -129c-27.333 0 -50 7.66699 -68 23v-123h-131v344h109l8 -27c26 23.333 54.667 35 86 35zM895.002 736.999c31.333 0.666992 55.668 -9.66699 73.001 -31s25.666 -52 24.999 -92c0 -86 -34 -129 -102 -129
c-27.333 0 -50 7.66699 -68 23v-123h-131v344h109l8 -27c26 23.333 54.667 35 86 35zM1612 837.998v-344h-119l-6 22c-24.667 -20.667 -50 -31 -76 -31c-66.667 0 -100 42 -100 126s34.667 126 104 126c22 0 44 -6.66699 66 -20v121h131zM657.004 728.998
l0.000976562 -221.001c0.666992 -46.667 -10.333 -80.667 -33 -102s-61 -31.666 -115 -30.999c-54 0 -94.667 8 -122 24l12 66c27.333 -9.33301 56 -14 86 -14s45 10.667 45 32v21c-20.667 -12 -42.334 -18.333 -65.001 -19c-61.333 0 -92 33.667 -92 101v143h129v-164
c0 -16.667 9.33301 -20.667 28 -12v176h127z" />
    <glyph glyph-name="nonmarkingreturn" horiz-adv-x="681" 
 />
    <glyph glyph-name="J.alt" horiz-adv-x="659" 
d="M485 1434v-1266c0.666992 -110.667 -38.333 -205.334 -117 -284.001s-174 -136.334 -286 -173.001l-72 152c165.333 76.667 248 186.667 248 330v1064h-139v177h366z" />
    <glyph glyph-name="Jcircumflex.alt" horiz-adv-x="659" 
d="M672 1532h-180l-144 156l-145 -156h-180l227 233h194zM485 1434v-1266c0.666992 -110.667 -38.333 -205.334 -117 -284.001s-174 -136.334 -286 -173.001l-72 152c165.333 76.667 248 186.667 248 330v1064h-139v177h366z" />
    <glyph glyph-name="a.alt" horiz-adv-x="1306" 
d="M620 918c-97.333 0 -175.333 -34 -234 -102c-58 -68 -87 -162.333 -87 -283s29 -215 87 -283c58.667 -68 136.667 -102 234 -102s177.333 33.333 240 100s94 162 94 286s-31.333 218.667 -94 284c-62.667 66.667 -142.667 100 -240 100zM580 1083
c80.667 0 154 -15.667 220 -47s118.667 -77.666 158 -138.999l21 168h180v-1065h-211v166c-80 -122.667 -200.667 -184 -362 -184s-285.666 52.667 -372.999 158s-131 236.666 -131 393.999c0 158 43.667 289 131 393s209.666 156 366.999 156z" />
    <glyph glyph-name="aacute.alt" horiz-adv-x="1306" 
d="M860 1497l-186 -303h-158l146 303h198zM620 918c-97.333 0 -175.333 -34 -234 -102c-58 -68 -87 -162.333 -87 -283s29 -215 87 -283c58.667 -68 136.667 -102 234 -102s177.333 33.333 240 100s94 162 94 286s-31.333 218.667 -94 284
c-62.667 66.667 -142.667 100 -240 100zM580 1083c80.667 0 154 -15.667 220 -47s118.667 -77.666 158 -138.999l21 168h180v-1065h-211v166c-80 -122.667 -200.667 -184 -362 -184s-285.666 52.667 -372.999 158s-131 236.666 -131 393.999c0 158 43.667 289 131 393
s209.666 156 366.999 156z" />
    <glyph glyph-name="abreve.alt" horiz-adv-x="1306" 
d="M670 1319c46.667 0.666992 81.332 12.333 103.999 35s40.334 59.334 53.001 110.001l127 -14c-12 -83.333 -41.333 -144 -88 -182c-46.667 -38.667 -112 -58 -196 -58s-149.667 19.333 -197 58c-46.667 38.667 -76 99.334 -88 182.001l127 14
c12 -50.667 29.667 -87.334 53 -110.001s58.333 -34.334 105 -35.001zM619.998 917.999c-97.333 0 -175.333 -34 -234 -102c-58 -68 -87 -162.333 -87 -283s29 -215 87 -283c58.667 -68 136.667 -102 234 -102s177.333 33.333 240 100s94 162 94 286
s-31.333 218.667 -94 284c-62.667 66.667 -142.667 100 -240 100zM579.998 1083c80.667 0 154 -15.667 220 -47s118.667 -77.666 158 -138.999l21 168h180v-1065h-211v166c-80 -122.667 -200.667 -184 -362 -184s-285.666 52.667 -372.999 158s-131 236.666 -131 393.999
c0 158 43.667 289 131 393s209.666 156 366.999 156z" />
    <glyph glyph-name="acircumflex.alt" horiz-adv-x="1306" 
d="M1008 1194h-181l-143 217l-145 -217h-181l228 305h194zM620 918c-97.333 0 -175.333 -34 -234 -102c-58 -68 -87 -162.333 -87 -283s29 -215 87 -283c58.667 -68 136.667 -102 234 -102s177.333 33.333 240 100s94 162 94 286s-31.333 218.667 -94 284
c-62.667 66.667 -142.667 100 -240 100zM580 1083c80.667 0 154 -15.667 220 -47s118.667 -77.666 158 -138.999l21 168h180v-1065h-211v166c-80 -122.667 -200.667 -184 -362 -184s-285.666 52.667 -372.999 158s-131 236.666 -131 393.999c0 158 43.667 289 131 393
s209.666 156 366.999 156z" />
    <glyph glyph-name="adieresis.alt" horiz-adv-x="1306" 
d="M784 1325c0 70 37 105 111 105s111 -35 111 -105c0 -66.667 -37 -100 -111 -100s-111 33.333 -111 100zM444 1430c76.667 0 115 -35 115 -105c0 -66.667 -38.333 -100 -115 -100c-34.667 0.666992 -61.334 9.66699 -80.001 27s-28 42 -28 74s9.33301 57.333 28 76
s45.334 28 80.001 28zM620 918c-97.333 0 -175.333 -34 -234 -102c-58 -68 -87 -162.333 -87 -283s29 -215 87 -283c58.667 -68 136.667 -102 234 -102s177.333 33.333 240 100s94 162 94 286s-31.333 218.667 -94 284c-62.667 66.667 -142.667 100 -240 100zM580 1083
c80.667 0 154 -15.667 220 -47s118.667 -77.666 158 -138.999l21 168h180v-1065h-211v166c-80 -122.667 -200.667 -184 -362 -184s-285.666 52.667 -372.999 158s-131 236.666 -131 393.999c0 158 43.667 289 131 393s209.666 156 366.999 156z" />
    <glyph glyph-name="agrave.alt" horiz-adv-x="1306" 
d="M477 1497h199l133 -303h-160zM620 918c-97.333 0 -175.333 -34 -234 -102c-58 -68 -87 -162.333 -87 -283s29 -215 87 -283c58.667 -68 136.667 -102 234 -102s177.333 33.333 240 100s94 162 94 286s-31.333 218.667 -94 284c-62.667 66.667 -142.667 100 -240 100z
M580 1083c80.667 0 154 -15.667 220 -47s118.667 -77.666 158 -138.999l21 168h180v-1065h-211v166c-80 -122.667 -200.667 -184 -362 -184s-285.666 52.667 -372.999 158s-131 236.666 -131 393.999c0 158 43.667 289 131 393s209.666 156 366.999 156z" />
    <glyph glyph-name="amacron.alt" horiz-adv-x="1306" 
d="M983 1391v-125h-623v125h623zM620 918c-97.333 0 -175.333 -34 -234 -102c-58 -68 -87 -162.333 -87 -283s29 -215 87 -283c58.667 -68 136.667 -102 234 -102s177.333 33.333 240 100s94 162 94 286s-31.333 218.667 -94 284c-62.667 66.667 -142.667 100 -240 100z
M580 1083c80.667 0 154 -15.667 220 -47s118.667 -77.666 158 -138.999l21 168h180v-1065h-211v166c-80 -122.667 -200.667 -184 -362 -184s-285.666 52.667 -372.999 158s-131 236.666 -131 393.999c0 158 43.667 289 131 393s209.666 156 366.999 156z" />
    <glyph glyph-name="aogonek.alt" horiz-adv-x="1306" 
d="M620 918c-97.333 0 -175.333 -34 -234 -102c-58 -68 -87 -162.333 -87 -283s29 -215 87 -283c58.667 -68 136.667 -102 234 -102s177.333 33.333 240 100s94 162 94 286s-31.333 218.667 -94 284c-62.667 66.667 -142.667 100 -240 100zM580 1083
c80.667 0 154.001 -15.667 220.001 -47s118.667 -77.666 158 -138.999l21 168h180v-1065c-72.667 -45.333 -108.667 -100 -108 -164c-0.666992 -25.333 6.33301 -45.333 21 -60s32.667 -22 54 -22s46 4.33301 74 13l12 -109c-36 -16.667 -78 -25 -126 -25
s-88.333 13.667 -121 41s-49.334 68.333 -50.001 123c0 78 37 145.667 111 203h-78v166c-80 -122.667 -200.667 -184 -362 -184s-285.666 52.667 -372.999 158s-131 236.666 -131 393.999c0 158 43.667 289 131 393s209.666 156 366.999 156z" />
    <glyph glyph-name="aring.alt" horiz-adv-x="1306" 
d="M776 1389c0 38 -10 65.667 -30 83s-45 26.333 -75 27c-29.333 -0.666992 -54 -9.66699 -74 -27s-30 -45 -30 -83s10 -65.667 30 -83s44.667 -26 74 -26c30 0 55 8.66699 75 26s30 45 30 83zM671 1591c62 0 113.667 -17.332 155 -51.999s62 -84.334 62 -149.001
c0 -65.333 -20 -115.333 -60 -150c-41.333 -34.667 -93.333 -52 -156 -52s-114.667 17.333 -156 52c-40.667 34.667 -61 84.667 -61 150s20.333 115 61 149c41.333 34.667 93 52 155 52zM620 918.001c-97.333 0 -175.333 -34 -234 -102c-58 -68 -87 -162.333 -87 -283
s29 -215 87 -283c58.667 -68 136.667 -102 234 -102s177.333 33.333 240 100s94 162 94 286s-31.333 218.667 -94 284c-62.667 66.667 -142.667 100 -240 100zM580 1083c80.667 0 154 -15.667 220 -47s118.667 -77.666 158 -138.999l21 168h180v-1065h-211v166
c-80 -122.667 -200.667 -184 -362 -184s-285.666 52.667 -372.999 158s-131 236.666 -131 393.999c0 158 43.667 289 131 393s209.666 156 366.999 156z" />
    <glyph glyph-name="atilde.alt" horiz-adv-x="1306" 
d="M797 1225c-27.333 0 -74.0029 14.333 -140.003 43c-62.667 31.333 -105.667 47 -129 47c-39.333 0 -72 -24.667 -98 -74l-74 31c36.667 116 101.667 174 195 174c32.667 0 78.334 -14.667 137.001 -44s105.334 -44 140.001 -44s65.334 24.667 92.001 74l73 -33
c-36.667 -116 -102 -174 -196 -174zM619.997 918c-97.333 0 -175.333 -34 -234 -102c-58 -68 -87 -162.333 -87 -283s29 -215 87 -283c58.667 -68 136.667 -102 234 -102s177.333 33.333 240 100s94 162 94 286s-31.333 218.667 -94 284
c-62.667 66.667 -142.667 100 -240 100zM579.997 1083c80.667 0 154 -15.667 220 -47s118.667 -77.666 158 -138.999l21 168h180v-1065h-211v166c-80 -122.667 -200.667 -184 -362 -184s-285.666 52.667 -372.999 158s-131 236.666 -131 393.999c0 158 43.667 289 131 393
s209.666 156 366.999 156z" />
    <glyph glyph-name="g.alt" horiz-adv-x="1288" 
d="M615 915c-103.333 0 -181.667 -31.333 -235 -94s-80.333 -150 -81 -262c0 -112 27.333 -199 82 -261s133.667 -93 237 -93c102.667 0 180 32 232 96s78 150 78 258s-26.333 194.333 -79 259s-130.667 97 -234 97zM568.999 1081c87.333 0 163.666 -17.667 228.999 -53
s112.666 -80.333 141.999 -135l21 172h180v-915c0 -338.667 -181 -508 -543 -508c-181.333 0 -337.666 34.667 -468.999 104l59 158c138.667 -62.667 265.334 -94 380.001 -94s203 26.667 265 80s93 133.666 93 240.999v82c-33.333 -56 -82 -99 -146 -129
s-134.333 -45 -211 -45c-140.667 0 -257 42 -349 126s-138 214.333 -138 391s46.333 308.334 139 395.001s208.667 130 348 130z" />
    <glyph glyph-name="gbreve.alt" horiz-adv-x="1288" 
d="M654 1319c46.667 0.666992 81.335 12.333 104.002 35c23.333 22.667 41 59.334 53 110.001l127 -14c-12 -83.333 -41.333 -144 -88 -182c-46.667 -38.667 -112.334 -58 -197.001 -58s-150.334 19.333 -197.001 58s-75.667 99.334 -87 182.001l127 14
c12 -50.667 29.667 -87.334 53 -110.001s58.333 -34.334 105 -35.001zM615.001 914.999c-103.333 0 -181.667 -31.333 -235 -94s-80.333 -150 -81 -262c0 -112 27.333 -199 82 -261s133.667 -93 237 -93c102.667 0 180 32 232 96s78 150 78 258s-26.333 194.333 -79 259
s-130.667 97 -234 97zM569 1081c87.333 0 163.666 -17.667 228.999 -53s112.666 -80.333 141.999 -135l21 172h180v-915c0 -338.667 -181 -508 -543 -508c-181.333 0 -337.666 34.667 -468.999 104l59 158c138.667 -62.667 265.334 -94 380.001 -94s203 26.667 265 80
s93 133.666 93 240.999v82c-33.333 -56 -82 -99 -146 -129s-134.333 -45 -211 -45c-140.667 0 -257 42 -349 126s-138 214.333 -138 391s46.333 308.334 139 395.001s208.667 130 348 130z" />
    <glyph glyph-name="gcircumflex.alt" horiz-adv-x="1288" 
d="M991 1194h-180l-143 217l-146 -217h-180l227 305h195zM615 915c-103.333 0 -181.667 -31.333 -235 -94s-80.333 -150 -81 -262c0 -112 27.333 -199 82 -261s133.667 -93 237 -93c102.667 0 180 32 232 96s78 150 78 258s-26.333 194.333 -79 259s-130.667 97 -234 97z
M568.999 1081c87.333 0 163.666 -17.667 228.999 -53s112.666 -80.333 141.999 -135l21 172h180v-915c0 -338.667 -181 -508 -543 -508c-181.333 0 -337.666 34.667 -468.999 104l59 158c138.667 -62.667 265.334 -94 380.001 -94s203 26.667 265 80s93 133.666 93 240.999
v82c-33.333 -56 -82 -99 -146 -129s-134.333 -45 -211 -45c-140.667 0 -257 42 -349 126s-138 214.333 -138 391s46.333 308.334 139 395.001s208.667 130 348 130z" />
    <glyph glyph-name="gcommaaccent.alt" horiz-adv-x="1288" 
d="M508 1192c0 47.333 3.66699 85.667 11 115c7.33301 30 16.333 61 27 93s17.667 52 21 60h131c-25.333 -104.667 -37.333 -194 -36 -268h-154zM615 915.001c-103.333 0 -181.667 -31.333 -235 -94s-80.333 -150 -81 -262c0 -112 27.333 -199 82 -261s133.667 -93 237 -93
c102.667 0 180 32 232 96s78 150 78 258s-26.333 194.333 -79 259s-130.667 97 -234 97zM568.999 1081c87.333 0 163.666 -17.667 228.999 -53s112.666 -80.333 141.999 -135l21 172h180v-915c0 -338.667 -181 -508 -543 -508c-181.333 0 -337.666 34.667 -468.999 104
l59 158c138.667 -62.667 265.334 -94 380.001 -94s203 26.667 265 80s93 133.666 93 240.999v82c-33.333 -56 -82 -99 -146 -129s-134.333 -45 -211 -45c-140.667 0 -257 42 -349 126s-138 214.333 -138 391s46.333 308.334 139 395.001s208.667 130 348 130z" />
    <glyph glyph-name="gdotaccent.alt" horiz-adv-x="1288" 
d="M655 1432c78 0 117 -34.668 117 -104.001s-39 -103.666 -117 -102.999c-78 0 -116.667 34.667 -116 104c-0.666992 68.667 38 103 116 103zM615 914.999c-103.333 0 -181.667 -31.333 -235 -94s-80.333 -150 -81 -262c0 -112 27.333 -199 82 -261s133.667 -93 237 -93
c102.667 0 180 32 232 96s78 150 78 258s-26.333 194.333 -79 259s-130.667 97 -234 97zM568.999 1081c87.333 0 163.666 -17.667 228.999 -53s112.666 -80.333 141.999 -135l21 172h180v-915c0 -338.667 -181 -508 -543 -508c-181.333 0 -337.666 34.667 -468.999 104
l59 158c138.667 -62.667 265.334 -94 380.001 -94s203 26.667 265 80s93 133.666 93 240.999v82c-33.333 -56 -82 -99 -146 -129s-134.333 -45 -211 -45c-140.667 0 -257 42 -349 126s-138 214.333 -138 391s46.333 308.334 139 395.001s208.667 130 348 130z" />
    <glyph glyph-name="j.alt" horiz-adv-x="552" 
d="M275 1442c80 0 120 -34.667 120 -104s-40 -104.333 -120 -105c-80 0 -119.667 34.667 -119 104c-0.666992 70 39 105 119 105zM403 1065v-1004c0.666992 -54 -8.33301 -103 -27 -147s-39.334 -79.333 -62.001 -106c-48 -55.333 -132.333 -107.333 -253 -156l-75 141
c1.33301 1.33301 10 6 26 14c84 42.667 139.667 97 167 163c8.66699 22.667 13.334 47 14.001 73v870h-144v152h354z" />
    <glyph glyph-name="jcircumflex.alt" horiz-adv-x="552" 
d="M596 1194h-180l-144 217l-145 -217h-180l227 305h195zM403 1065v-1004c0.666992 -54 -8.33301 -103 -27 -147s-39.334 -79.333 -62.001 -106c-48 -55.333 -132.333 -107.333 -253 -156l-75 141c1.33301 1.33301 10 6 26 14c84 42.667 139.667 97 167 163
c8.66699 22.667 13.334 47 14.001 73v870h-144v152h354z" />
    <glyph glyph-name="f_b" horiz-adv-x="1988" 
d="M1372 918c-98.667 0 -179.333 -33.999 -242 -101.999s-94 -162.667 -94 -284c0 -122.667 31.333 -217.334 94 -284.001s143 -100 241 -100s176 33.333 234 100c58 68 87 162.667 87 284s-28.667 216 -86 284s-135.333 102 -234 102zM614.001 1516
c124 0 226.001 -32.667 306.001 -98s120 -162 120 -290v-227c80 121.333 202 182 366 182s289 -52 375 -156c85.333 -104.667 128 -236.667 128 -396s-42 -291 -126 -395s-204.667 -155.333 -362 -154c-182.667 0 -312.334 62 -389.001 186l-20 -168h-183v1126
c0 76.667 -20.667 134 -62 172c-42 38.667 -91.667 58 -149 58s-106 -18.667 -146 -56s-60 -93 -60 -167v-68h225v-152h-225v-913h-211v913h-162v152h162v59c0 118.667 37.667 213.667 113 285c76 71.333 176 107 300 107z" />
    <glyph glyph-name="f_f_b" horiz-adv-x="2568" 
d="M2271 532c0.666992 121.333 -27.666 216.001 -85 284.001c-57.333 68 -134.666 102 -232 102c-97.333 0 -178 -34 -242 -102c-62.667 -68 -94 -162.667 -94 -284c0 -122.667 31.333 -217.334 94 -284.001s142.667 -100 240 -100s174.666 33.333 232 100
c57.333 68 86.333 162.667 87 284zM784 1139c0 119.333 38.001 214.332 114.001 284.999s175.667 106 299 106s225 -32.667 305 -98s120 -162.333 120 -291v-238c80 120 202 180 366 180c164 -0.666992 288.333 -53 373 -157s127 -235.667 127 -395s-41.667 -291 -125 -395
s-203.333 -155.333 -360 -154c-182.667 0 -312.334 62 -389.001 186l-21 -168h-182v1139c0 78 -20.333 135.667 -61 173c-40 37.333 -89.333 56 -148 56s-107.667 -19.333 -147 -58s-59.333 -95.667 -60 -171v-74h224v-152h-224v-913h-211v913h-372v-913h-211v913h-162v152
h162v106c0 116 23.333 202.667 70 260c47.333 56.667 129 85 245 85c50.667 0 100.667 -6.33301 150 -19l-21 -151c-54.667 6.66699 -86 10 -94 10c-49.333 0 -85 -13.667 -107 -41s-32.667 -69.666 -32 -126.999v-123h372v74z" />
    <glyph glyph-name="f_f_h" horiz-adv-x="2519" 
d="M784 1139c0 119.333 37.998 214.331 113.998 284.998s175.667 106 299 106s225 -32.667 305 -98s120 -162.333 120 -291v-250c80.667 126.667 202.334 190 365.001 190c259.333 0 389 -136.333 389 -409v-672h-211v651c0.666992 88.667 -20.333 155.334 -63 200.001
s-107.667 67 -195 67s-156.666 -34 -207.999 -102s-77 -149 -77 -243v-573h-211v1145c0 75.333 -20.333 131.333 -61 168c-40 36.667 -89.333 55 -148 55s-107.667 -18.667 -147 -56s-59.333 -93 -60 -167v-80h224v-152h-224v-913h-211v913h-372v-913h-211v913h-162v152h162
v106c0 116 23.333 202.667 70 260c47.333 56.667 129 85 245 85c50.667 0 100.667 -6.33301 150 -19l-21 -151c-54.667 6.66699 -86 10 -94 10c-49.333 0 -85 -13.667 -107 -41s-32.667 -69.666 -32 -126.999v-123h372v74z" />
    <glyph glyph-name="f_f_k" horiz-adv-x="2369" 
d="M1620 0l-211.001 -0.00195312v1145c0 74 -20.333 129.667 -61 167c-41.333 37.333 -90.666 56 -147.999 56s-105.666 -18.667 -144.999 -56s-59.333 -93 -60 -167v-80h224v-152h-224v-913h-211v913h-372v-913h-211v913h-162v152h162v106c0 116 23.333 202.667 70 260
c47.333 56.667 129 85 245 85c50.667 0 100.667 -6.33301 150 -19l-21 -151c-54.667 6.66699 -86 10 -94 10c-49.333 0 -85 -13.667 -107 -41s-32.667 -69.666 -32 -126.999v-123h372v74c0 118.667 38 213.334 114 284.001c76 71.333 175.667 107 299 107
s224.666 -32.667 303.999 -98s119 -162.333 119 -291v-590l498 514h233l-395 -410l397 -655h-237l-304 508l-192 -199v-309z" />
    <glyph glyph-name="f_h" horiz-adv-x="1939" 
d="M1585 651c-0.666992 178 -87 267.001 -259 267.001c-88 0 -157.667 -34 -209 -102s-77 -149 -77 -243v-573h-211v1130c0 75.333 -20.333 131.666 -61 168.999c-41.333 38 -91.333 57 -150 57s-107.667 -18.667 -147 -56s-59 -94 -59 -170v-65h225v-152h-225v-913h-211
v913h-162v152h162v59c0 118.667 37.667 213.667 113 285c76 71.333 176 107 300 107s226 -32.667 306 -98s120 -162 120 -290v-233c82 124 203.667 186 365 186c260.667 0 391 -136.333 391 -409v-672h-211v651z" />
    <glyph glyph-name="f_k" horiz-adv-x="1787" 
d="M614 1516c124 0 226 -32.668 306 -98.001s119.333 -162 118 -290v-577l500 514h234l-402 -412l399 -653h-237l-303 506l-191 -197v-309h-211v1130c0 76.667 -20.333 133.334 -61 170.001c-40 37.333 -89.333 56 -148 56s-107.667 -18.667 -147 -56s-59 -94 -59 -170v-65
h225v-152h-225v-913h-211v913h-162v152h162v59c0 118.667 37.667 213.667 113 285c76 71.333 176 107 300 107z" />
    <glyph glyph-name="zero.tnum" 
d="M726 160c118 0 209.332 48 273.999 144c65.333 96 98 232.667 98 410s-32.667 314.666 -98 411.999c-65.333 98.667 -157 148 -275 148c-117.333 0 -208.666 -48 -273.999 -144c-66 -96 -99 -233.333 -99 -412c0 -177.333 32.667 -314.666 98 -411.999
s157.333 -146 276 -146zM1329 718c0 -224 -55 -402.667 -165 -536c-110 -134.667 -256.667 -202 -440 -202s-329.666 66 -438.999 198s-164 311 -164 537s55 405.667 165 539s256.667 200 440 200s329.666 -66.667 438.999 -200s164 -312 164 -536z" />
    <glyph glyph-name="one.tnum" 
d="M879 1436v-1272h376v-164h-993v164h393v1061l-331 -133l-76 155l454 189h177z" />
    <glyph glyph-name="two.tnum" 
d="M705 1454c147.333 0 268.333 -37.332 363 -111.999s142 -175.334 142 -302.001s-37 -233.334 -111 -320.001c-39.333 -47.333 -73.666 -84 -102.999 -110l-132 -112l-383 -314h744v-184h-1020v168l534 463c69.333 64.667 120.333 117 153 157
c55.333 66.667 83.333 139.334 84 218.001c0.666992 80 -26.333 144.667 -81 194c-54 49.333 -133 74 -237 74s-229 -37.667 -375 -113l-62 168c63.333 35.333 139.666 65 228.999 89s174.333 36 255 36z" />
    <glyph glyph-name="three.tnum" 
d="M973 1054c0 144 -112.668 216.002 -338.001 216.002c-104 0 -213.333 -24.667 -328 -74l-55 162c48 21.333 114 42.666 198 63.999s168 32 252 32c152 0 273.333 -32 364 -96s136 -155 136 -273c0 -76.667 -22 -144.334 -66 -203.001s-114 -101.334 -210 -128.001
c101.333 -19.333 181.333 -61.333 240 -126s88.334 -143.667 89.001 -237c-0.666992 -135.333 -53.667 -237.666 -159 -306.999s-246.666 -104 -423.999 -104s-330.333 34.667 -459 104l66 162c117.333 -57.333 235.666 -86 354.999 -86c254.667 0 382.667 87.333 384 262
c0 85.333 -35.333 150 -106 194s-157 66.667 -259 68h-135v154h125c94 0 172.667 17 236 51c62.667 34 94 89 94 165z" />
    <glyph glyph-name="four.tnum" 
d="M918 496v661l-558 -661h558zM1133 1436v-940h170v-168h-170v-328h-218v328h-772v155l791 953h199z" />
    <glyph glyph-name="five.tnum" 
d="M1174 1434l0.000976562 -180.999h-695l-24 -419c79.333 48 189 72 329 72s253 -41 339 -123c85.333 -80.667 128 -190.334 128 -329.001s-49.333 -252.334 -148 -341.001c-98 -88.667 -236.333 -133 -415 -133s-341 39.333 -487 118l73 164
c130 -70.667 253.667 -106 371 -106s209.333 26.667 276 80c66 53.333 99 126.333 99 219s-28.667 164.334 -86 215.001s-135.333 76 -234 76s-195.334 -33.667 -290.001 -101l-140 88l47 701h857z" />
    <glyph glyph-name="six.tnum" 
d="M754 750c-98.667 0 -176.667 -30 -234 -90s-86 -133.333 -86 -220c0 -86 29.333 -156 88 -210c58.667 -53.333 136 -80 232 -80s172.667 26.667 230 80c58 53.333 87 126 87 218s-28.333 165.333 -85 220s-134 82 -232 82zM796 1454
c185.333 0 342.668 -37.668 472.001 -113.001l-80 -151c-112 57.333 -229.333 86 -352 86c-143.333 0 -252 -52 -326 -156c-61.333 -82 -97 -202.667 -107 -362v-56c82 139.333 224 209 426 209c138 0.666992 251.333 -38.333 340 -117s133 -191.667 133 -339
s-50 -263.666 -150 -348.999c-100.667 -85.333 -230.667 -127.333 -390 -126c-217.333 0 -374.333 81 -471 243c-75.333 120 -113 275 -113 465c0 236 58.667 423 176 561c109.333 136.667 256.666 205 441.999 205z" />
    <glyph glyph-name="seven.tnum" 
d="M1300 1434v-177l-647 -1257h-250l662 1243h-842v191h1077z" />
    <glyph glyph-name="eight.tnum" 
d="M726 1284c-82.667 0 -149.666 -20 -200.999 -60s-77 -94 -77 -162s24.333 -122.333 73 -163s116.667 -61 204 -61s155.333 20.333 204 61s73 95 73 163s-25.333 122 -76 162s-117.334 60 -200.001 60zM726.001 666c-98.667 0 -178.002 -23.333 -238.002 -70
c-59.333 -46.667 -89 -111.667 -89 -195c0.666992 -83.333 32.334 -147 95.001 -191s140.334 -66.333 233.001 -67c92.667 0 169.334 22 230.001 66c60.667 44.667 91 109 91 193s-28.667 149 -86 195c-58.667 46 -137.334 69 -236.001 69zM230.999 1083
c-0.666992 116.667 44.3311 207.667 134.998 273s210 98 358 98s267 -32.667 357 -98s135.333 -156.333 136 -273c0 -80.667 -23.667 -149 -71 -205s-114.666 -96 -201.999 -120c106.667 -23.333 189.334 -67.333 248.001 -132s88 -145 88 -241
c0 -132.667 -51.333 -233.334 -154 -302.001s-236.667 -103 -402 -103s-299.333 34.333 -402 103s-154 169.334 -154 302.001c0 95.333 29.333 175 88 239s140 108.667 244 134c-84.667 23.333 -150.667 63 -198 119s-71 124.667 -71 206z" />
    <glyph glyph-name="nine.tnum" 
d="M710 1284c-96 0 -173.333 -26.666 -232 -79.999s-87.667 -126.333 -87 -219c0 -92.667 28.333 -165.667 85 -219s134.667 -80 234 -80c100 0 178.667 29.333 236 88s86 131.667 86 219s-29.667 157.666 -89 210.999s-137 80 -233 80zM627 158.001
c276.667 0 422.001 172.666 436.001 517.999v49c-38 -62.667 -94 -112 -168 -148s-161.333 -54.333 -262 -55c-138 0 -251.333 39.667 -340 119s-133 192.333 -133 339s50 262.334 150 347.001s230.667 127 392 127c212.667 0 367 -77 463 -231
c82 -114.667 123 -274 123 -478c0 -241.333 -56.667 -429.333 -170 -564c-113.333 -134 -263.333 -201 -450 -201s-344.334 37.333 -473.001 112l79 152c112 -57.333 229.667 -86 353 -86z" />
    <glyph glyph-name="exclamdown.case" horiz-adv-x="569" 
d="M285 1460c82 0 123 -37.333 123 -112s-41 -112.334 -123 -113.001c-82 0.666992 -123 38.334 -123 113.001s41 112 123 112zM375 1024l31 -1024h-240l33 1024h176z" />
    <glyph glyph-name="questiondown.case" horiz-adv-x="1007" 
d="M438 1343c0 76.667 41 115 123 115s123 -37.667 123 -113s-41 -113 -123 -113s-123 37 -123 111zM653 1022l-0.00390625 -129c0.666992 -91.333 -29.666 -163.666 -90.999 -216.999s-120 -101.666 -176 -144.999s-84.333 -99 -85 -167c0 -68 23 -118.333 69 -151
s103 -49 171 -49c96.667 0 198.334 32 305.001 96l69 -158c-118 -78.667 -241.667 -118 -371 -118s-237 29.667 -323 89s-129 147.666 -129 264.999c0 61.333 13.333 115.333 40 162s58.334 84 95.001 112s73.667 54.333 111 79
c90.667 61.333 136.334 130.666 137.001 207.999v123h178z" />
    <glyph glyph-name="braceleft.case" horiz-adv-x="690" 
d="M598 1628v-160h-80c-53.333 0 -90 -11.333 -110 -34s-30.333 -57 -31 -103v-450c0 -92.667 -45 -146.667 -135 -162c90 -10.667 135 -64 135 -160v-453c0 -44 10.333 -78 31 -102s57.334 -35.667 110.001 -35h80v-157h-96c-114.667 0 -193 26 -235 78
c-41.333 52.667 -62 127 -62 223v432c0 38 -10.333 65.333 -31 82s-52.667 26 -96 28v131c44 2.66699 76 12 96 28s30.333 43.667 31 83v426c0 96.667 20.667 171.667 62 225s119.666 80 234.999 80h96z" />
    <glyph glyph-name="braceright.case" horiz-adv-x="690" 
d="M92 1628l98 0.00195312c113.333 0 191.333 -26.667 234 -80s63.667 -128.333 63 -225v-426c0 -39.333 10 -67 30 -83s51.667 -25.333 95 -28v-131c-44 -3.33301 -76 -13 -96 -29s-29.667 -43 -29 -81v-432c0 -95.333 -21 -169.666 -63 -222.999s-120 -79.333 -234 -78
h-98v157h82c53.333 0 90 12 110 36s29.667 57.667 29 101v453c0 95.333 46 148.666 138 159.999c-91.333 15.333 -137.333 69.333 -138 162v450c0 45.333 -9.66699 79.666 -29 102.999c-20 23.333 -56.667 34.666 -110 33.999h-82v160z" />
    <glyph glyph-name="bracketleft.case" horiz-adv-x="641" 
d="M547 1464h-197v-1497h197v-155h-371v1816h371v-164z" />
    <glyph glyph-name="bracketright.case" horiz-adv-x="641" 
d="M94 1628h373v-1816h-373v155h197v1497h-197v164z" />
    <glyph glyph-name="parenleft.case" horiz-adv-x="706" 
d="M98 731c0 151.333 21.666 295.336 64.999 432.003s90 243.667 140 321c50.667 77.333 104.667 144.666 162 201.999h213c-48 -52 -89.333 -102.333 -124 -151s-72.667 -111.667 -114 -189c-85.333 -161.333 -127.666 -366.333 -126.999 -615
c0 -248.667 42.333 -453.334 127 -614.001c41.333 -78 79.333 -141.333 114 -190s76 -98.667 124 -150h-213c-94 91.333 -178.667 218.666 -254 381.999s-113 354 -113 572z" />
    <glyph glyph-name="parenright.case" horiz-adv-x="706" 
d="M393 731c0 122.667 -10.999 236.33 -32.999 340.997c-46.667 220.667 -157 425.334 -331 614.001h213c57.333 -57.333 111.333 -124.666 162 -201.999s97.334 -184.333 140.001 -321c43.333 -136.667 64.666 -280.667 63.999 -432c0 -219.333 -37.333 -410.333 -112 -573
s-159.334 -289.667 -254.001 -381h-213c174 188.667 284.333 393 331 613c22 104.667 33 218.334 33 341.001z" />
    <glyph glyph-name="emdash.case" horiz-adv-x="1992" 
d="M1847 803v-158h-1702v158h1702z" />
    <glyph glyph-name="endash.case" horiz-adv-x="1460" 
d="M1315 803v-158h-1170v158h1170z" />
    <glyph glyph-name="hyphen.case" horiz-adv-x="1036" 
d="M891 803v-158h-746v158h746z" />
    <glyph glyph-name="hyphen.tnum" 
d="M1135 764v-158h-822v158h822z" />
    <glyph glyph-name="guillemotleft.case" horiz-adv-x="1263" 
d="M522 1192l111 -111l-307 -391l307 -387l-111 -115l-426 482v43zM1038 1192l111 -111l-307 -391l307 -387l-111 -115l-426 482v43z" />
    <glyph glyph-name="guillemotright.case" horiz-adv-x="1263" 
d="M223 1192l426 -479v-43l-424 -482l-112 113l307 389l-307 389zM737 1192l426 -479v-43l-424 -482l-112 113l307 389l-307 389z" />
    <glyph glyph-name="guilsinglleft.case" horiz-adv-x="745" 
d="M522 1192l111 -111l-307 -391l307 -387l-111 -115l-426 482v43z" />
    <glyph glyph-name="guilsinglright.case" horiz-adv-x="745" 
d="M223 1194l426 -481v-41l-424 -484l-112 115l307 389l-307 389z" />
    <glyph glyph-name="cent.tnum" 
d="M860 1411l0.00195312 -168.001c98 -4 192.333 -25.667 283 -65l-43 -146c-80.667 32.667 -161.334 49 -242.001 49c-130 0 -228 -35 -294 -105c-66 -70.667 -99 -164 -99 -280s33 -209 99 -279s164.667 -105.333 296 -106c83.333 0 166.666 16.333 249.999 49l37 -145
c-91.333 -40.667 -187 -63.334 -287 -68.001v-163h-119v168c-151.333 14.667 -271.333 69.334 -360 164.001s-133 221.334 -133 380.001s44.333 285 133 379s208.667 149.333 360 166v170h119z" />
    <glyph glyph-name="dollar.tnum" 
d="M795 1630v-173.999c140.667 -8 275.667 -41.333 405 -100l-63 -170c-36.667 20 -91.334 40.667 -164.001 62s-151.667 32 -237 32s-152.666 -18.667 -201.999 -56c-50 -37.333 -75 -86 -75 -146s19.333 -108 58 -144c38.667 -36.667 80.667 -63 126 -79
s110.333 -33.333 195 -52c134.667 -35.333 238 -82.333 310 -141s108 -149.334 108 -272.001s-41.333 -219 -124 -289c-82.667 -68.667 -195 -110 -337 -124v-178h-123v181c-165.333 12 -312.333 46.667 -441 104l58 170c148.667 -66.667 294 -100 436 -100
c96.667 0 170 18.667 220 56s75 85.333 75 144s-17 104 -51 136c-34 33.333 -67.667 56 -101 68s-89.666 28.667 -168.999 50c-78.667 20.667 -144.334 41.667 -197.001 63c-124.667 50 -205.667 116.333 -243 199c-22.667 49.333 -34 106.666 -34 171.999
c0 122.667 39 219.334 117 290.001s188 112 330 124v174h123z" />
    <glyph glyph-name="Euro.tnum" 
d="M928 1454c173.333 0 322.667 -30.667 448 -92l-61 -164c-100.667 49.333 -215.667 74 -345 74s-237 -33.333 -323 -100s-144 -159 -174 -277h657l-38 -100h-635c-2.66699 -19.333 -4 -47.333 -4 -84s1.33301 -64 4 -82h573l-35 -101h-522
c28.667 -116 86.334 -206 173.001 -270s198.334 -96 335.001 -96c96.667 0 208 23 334 69l2 -176c-109.333 -50.667 -235 -75.667 -377 -75c-186 0 -342.333 48 -469 144s-207.334 230.667 -242.001 404h-182l37 101h133c-2.66699 35.333 -4 67.333 -4 96s0.666992 52 2 70
h-176l37 100h153c34 175.333 115.667 312.333 245 411s280.666 148 453.999 148z" />
    <glyph glyph-name="sterling.tnum" 
d="M1104 741v-115.999h-496c9.33301 -55.333 14 -115 14 -179s-15.333 -122.333 -46 -175c-32 -52.667 -67 -87.667 -105 -105h770v-166h-1018v154c17.333 4 37 14 59 30c22.667 15.333 42 32.666 58 51.999s30 47.666 42 84.999c12.667 38 19 80.333 19 127
s-5.33301 105.667 -16 177h-131v116h108c-18 88.667 -26.667 175.334 -26 260.001c0 134 46.333 243 139 327s213.667 126 363 126s274 -37.667 374 -113l-84 -147c-84.667 57.333 -175 86 -271 86s-170.333 -26 -223 -78s-79 -118.667 -79 -200s10.333 -168.333 31 -261
h518z" />
    <glyph glyph-name="yen.tnum" 
d="M838 518h260v-100h-260v-101h260v-100h-260v-217h-228v217h-258v100h258v101h-258v100h258v68l-504 850h240l379 -656l377 656h239l-503 -850v-68z" />
    <glyph glyph-name="divide.tnum" 
d="M728 418c32 0 58 -9 78 -27s30 -43.667 30 -77s-10 -59.333 -30 -78s-46.333 -27.667 -79 -27c-32.667 0 -59 9.33301 -79 28c-20 18 -30 43.667 -30 77s10.333 59 31 77s47 27 79 27zM728 1137c32 0 58 -9 78 -27s30 -44 30 -78s-10 -60.333 -30 -79
c-20 -18 -46.333 -27 -79 -27s-59 9.33301 -79 28s-30 44.667 -30 78c0 34 10.333 60 31 78s47 27 79 27zM1200 737v-139h-950v139h950z" />
    <glyph glyph-name="equal.tnum" 
d="M1118 567v-147h-786v147h786zM1118 934v-146h-786v146h786z" />
    <glyph glyph-name="multiply.tnum" 
d="M285 1018l108 112l330 -333l332 333l110 -112l-331 -332l331 -330l-110 -110l-332 329l-330 -329l-108 110l329 330z" />
    <glyph glyph-name="percent.tnum" 
d="M815 322c0 106.667 28.667 190.667 86 252c57.333 62.667 133.333 94 228 94c95.333 0 171 -30.667 227 -92s84 -145.333 84 -252s-28 -191 -84 -253s-132 -93 -228 -93s-172 30.667 -228 92c-56.667 61.333 -85 145.333 -85 252zM1126 532
c-49.333 0 -88.668 -18.6699 -118.001 -56.0029s-43.666 -88.666 -42.999 -153.999c0 -65.333 15 -116.666 45 -153.999c30.667 -37.333 70 -55.666 118 -54.999c48 0 86.333 18.667 115 56c28.667 38 43 89.667 43 155s-14.333 116.333 -43 153s-67.667 55 -117 55z
M322.998 1456c94.667 0 170 -30.667 226 -92s84 -145.333 84 -252s-28 -191 -84 -253c-55.333 -62 -131 -93 -227 -93s-172.333 30.667 -229 92s-85 145.333 -85 252s28.667 191 86 253c58 62 134.333 93 229 93zM316.998 1321c-48.667 0 -87.667 -18.667 -117 -56
c-29.333 -38 -44 -89.667 -44 -155s15 -116.666 45 -153.999s69 -55.666 117 -54.999c48 0 86.667 18.667 116 56c28.667 38 43 89.667 43 155s-14.333 116.666 -43 153.999s-67.667 55.666 -117 54.999zM1190 1436l-774 -1436h-164l780 1436h158z" />
    <glyph glyph-name="plus.tnum" 
d="M801 1155v-391h395v-158h-395v-377h-164v377h-383v158h383v391h164z" />
    <glyph glyph-name="acute.case" horiz-adv-x="632" 
d="M512 1397l-186 -234h-158l145 234h199z" />
    <glyph glyph-name="breve.case" horiz-adv-x="886" 
d="M442 1180c-172 0 -266.667 73.667 -284 221l127 8c18 -80.667 71 -121 159 -121s140 40.333 156 121l127 -8c-18 -147.333 -113 -221 -285 -221z" />
    <glyph glyph-name="caron.case" horiz-adv-x="956" 
d="M805 1397l-227 -234h-195l-227 234h180l145 -156l144 156h180z" />
    <glyph glyph-name="circumflex.case" horiz-adv-x="956" 
d="M805 1163h-180l-144 156l-145 -156h-180l227 234h195z" />
    <glyph glyph-name="dieresis.case" horiz-adv-x="993" 
d="M721 1391c70.667 0.666992 106 -32.333 106 -99s-35.333 -100 -106 -100c-32.667 0 -58 9 -76 27s-27 42.333 -27 73s9 54.667 27 72c18 18 43.333 27 76 27zM274 1192c-70.667 0 -106 33.333 -106 100s35 99.667 105 99c70 0 105.333 -33.667 106 -101
c0.666992 -65.333 -34.333 -98 -105 -98z" />
    <glyph glyph-name="dotaccent.case" horiz-adv-x="530" 
d="M266 1391c70.667 0 106.333 -33 107 -99c0 -65.333 -35.667 -98 -107 -98c-32.667 0 -58.334 8.66699 -77.001 26c-18 17.333 -27 41.333 -27 72s9 55 27 73c18.667 17.333 44.334 26 77.001 26z" />
    <glyph glyph-name="grave.case" horiz-adv-x="651" 
d="M389 1395l133 -232h-160l-172 232h199z" />
    <glyph glyph-name="hungarumlaut.case" horiz-adv-x="1003" 
d="M512 1397l-174 -234h-158l133 234h199zM840 1397l-174 -234h-158l133 234h199z" />
    </font>
</defs>
</svg>
